<svg xmlns="http://www.w3.org/2000/svg" xmlns:xlink="http://www.w3.org/1999/xlink" viewBox="0 0 62 60"><defs><style>.cls-1{isolation:isolate;}.cls-2{fill:#4d6bac;}.cls-3{fill:url(#linear-gradient);}.cls-4{fill:url(#linear-gradient-2);}.cls-5{fill:url(#linear-gradient-3);}.cls-6{mix-blend-mode:color-dodge;fill:url(#linear-gradient-4);}.cls-7{fill:#36588e;}.cls-8{fill:#fff;}.cls-9{fill:none;stroke:#fff;stroke-miterlimit:10;stroke-width:0.8px;}</style><linearGradient id="linear-gradient" x1="11.78" y1="8.46" x2="49.66" y2="50.85" gradientUnits="userSpaceOnUse"><stop offset="0" stop-color="#9c7748"/><stop offset="0.06" stop-color="#a27e4b"/><stop offset="0.15" stop-color="#b19153"/><stop offset="0.25" stop-color="#cab05f"/><stop offset="0.33" stop-color="#e1cc6b"/><stop offset="0.52" stop-color="#e6d68c"/><stop offset="0.66" stop-color="#e1cc6b"/><stop offset="1" stop-color="#9c7748"/></linearGradient><linearGradient id="linear-gradient-2" x1="21.07" y1="39.67" x2="62.04" y2="-1.3" gradientUnits="userSpaceOnUse"><stop offset="0" stop-color="#252a38"/><stop offset="0.21" stop-color="#282e3d"/><stop offset="0.47" stop-color="#2f394c"/><stop offset="0.76" stop-color="#3c4b65"/><stop offset="1" stop-color="#4a5f80"/></linearGradient><linearGradient id="linear-gradient-3" x1="6.49" y1="29.85" x2="55.3" y2="29.85" xlink:href="#linear-gradient"/><linearGradient id="linear-gradient-4" x1="46.98" y1="30.85" x2="12.46" y2="27.17" gradientUnits="userSpaceOnUse"><stop offset="0" stop-color="#a6a6a6"/><stop offset="0.05" stop-color="#8d8d8d"/><stop offset="0.14" stop-color="#686868"/><stop offset="0.23" stop-color="#484848"/><stop offset="0.33" stop-color="#2f2f2f"/><stop offset="0.44" stop-color="#1b1b1b"/><stop offset="0.57" stop-color="#0d0d0d"/><stop offset="0.73" stop-color="#040404"/><stop offset="1" stop-color="#020202"/></linearGradient></defs><g class="cls-1"><g id="Слой_1" data-name="Слой 1"><path class="cls-2" d="M1.66,32.85a7.89,7.89,0,0,0,0-6,4.74,4.74,0,0,1,1.05-5.24,7.93,7.93,0,0,0,2.34-5.55,4.79,4.79,0,0,1,3-4.44,8.11,8.11,0,0,0,4.32-4.24,4.85,4.85,0,0,1,4.51-3,8.27,8.27,0,0,0,5.64-2.3,4.9,4.9,0,0,1,5.31-1,8.24,8.24,0,0,0,6.1,0,4.91,4.91,0,0,1,5.32,1,8.27,8.27,0,0,0,5.64,2.3,4.86,4.86,0,0,1,4.51,3,8.11,8.11,0,0,0,4.32,4.24,4.81,4.81,0,0,1,3,4.44,8,8,0,0,0,2.33,5.55,4.74,4.74,0,0,1,1.06,5.24,7.89,7.89,0,0,0,0,6,4.74,4.74,0,0,1-1.06,5.24,7.92,7.92,0,0,0-2.33,5.54,4.8,4.8,0,0,1-3,4.44,8.09,8.09,0,0,0-4.32,4.25,4.88,4.88,0,0,1-4.51,3,8.21,8.21,0,0,0-5.64,2.29,4.93,4.93,0,0,1-5.32,1.05,8.24,8.24,0,0,0-6.1,0,4.92,4.92,0,0,1-5.31-1.05,8.21,8.21,0,0,0-5.64-2.29,4.87,4.87,0,0,1-4.51-3,8.09,8.09,0,0,0-4.32-4.25,4.78,4.78,0,0,1-3-4.44,7.89,7.89,0,0,0-2.34-5.54A4.74,4.74,0,0,1,1.66,32.85Z"/><path class="cls-3" d="M56.91,29.85a25.82,25.82,0,0,1-26,25.61,25.82,25.82,0,0,1-26-25.61,25.82,25.82,0,0,1,26-25.61A25.81,25.81,0,0,1,56.91,29.85Z"/><path class="cls-4" d="M53.93,29.85a22.86,22.86,0,0,1-23,22.68,22.87,22.87,0,0,1-23-22.68,22.86,22.86,0,0,1,23-22.68A22.85,22.85,0,0,1,53.93,29.85Z"/><path class="cls-5" d="M30.9,6.33A23.73,23.73,0,0,1,54.78,29.85,23.72,23.72,0,0,1,30.9,53.36,23.74,23.74,0,0,1,7,29.85,23.74,23.74,0,0,1,30.9,6.33m0-.5a24.22,24.22,0,0,0-24.41,24,24.22,24.22,0,0,0,24.41,24,24.22,24.22,0,0,0,24.4-24,24.21,24.21,0,0,0-24.4-24Z"/><path class="cls-6" d="M20.16,49.1A250.4,250.4,0,0,1,42.65,11.29a22.38,22.38,0,0,0-11.41-3.1A22.09,22.09,0,0,0,9,30.1,21.83,21.83,0,0,0,20.16,49.1Z"/><ellipse class="cls-7" cx="30.99" cy="29.98" rx="22.94" ry="22.79"/><ellipse class="cls-8" cx="30.91" cy="29.91" rx="17.23" ry="17.4"/><path class="cls-7" d="M44,32.1a9.36,9.36,0,0,1-2.46,4.1,17.35,17.35,0,0,1-4,2.7h0a.6.6,0,0,1-.37,0c-.07-.06,0-.17-.07-.26s.07-.11.19-.11a1.45,1.45,0,0,0,.5-.08,2.31,2.31,0,0,0,.72-.29c.78-.46,1.17-.69,1.34-.81a16.43,16.43,0,0,0,1.57-1.27A13.48,13.48,0,0,0,44,32.1Z"/><ellipse class="cls-9" cx="30.87" cy="29.88" rx="22.26" ry="22.04"/><path class="cls-7" d="M17.74,29.65l-1.83.89,1.63,3.85,2.38-.9,1.94,2.36-1.31,1.37,5.33,2.87,1.37-1.8,3.68.35-.05,2.16H37V38.64l.46.25,0,4-6.63.23V40.8l-3.31-.16-1.52,2-5.51-2.72-.11-2.68c-.48-.5-.64-1-1.12-1.44l-1.7.94-2.44-5.86.49-.48,2.06-1Z"/><path class="cls-7" d="M18,30.76V20H24.8v1.88H20.31v2.47h2.07a4.07,4.07,0,0,1,2.6.78,2.65,2.65,0,0,1,1,2.21,3.15,3.15,0,0,1-1,2.49,4.07,4.07,0,0,1-2.78.89Zm2.28-4.69v3h1.46c1.17,0,1.76-.51,1.76-1.53s-.56-1.46-1.69-1.46Z"/><path class="cls-7" d="M35.14,21.75h-3.6v8.12h-2.7V21.75h-3.6V20h9.9Z"/><path class="cls-7" d="M45.36,30.76h-2.9l-3.25-4.69a3.56,3.56,0,0,1-.28-.56h0v5.25H36.61V20H38.9V25.1h0a3.74,3.74,0,0,1,.31-.57L42.31,20H45L41.2,25.15Z"/><path class="cls-8" d="M43.76,15.9a.7.7,0,0,1,.34-.4.71.71,0,0,1,.57-.09.78.78,0,0,1,.28.19c.13.15.11.23.25.37s.18.17.3.14a.2.2,0,0,0,.15-.13.86.86,0,0,1,.87-.52c.1.1-.1.89-.47,1a.17.17,0,0,0-.12.13.41.41,0,0,0,.08.32c.12.17.25.13.38.3a.7.7,0,0,1,.12.22.86.86,0,0,1-.11.69.68.68,0,0,1-.24.25.72.72,0,0,1-.93-.21.47.47,0,0,1,0-.5.11.11,0,0,1,.09-.05c.06,0,.08.09.16.21a.57.57,0,0,0,.19.19.33.33,0,0,0,.28,0,.3.3,0,0,0,.16-.16.44.44,0,0,0,0-.36.6.6,0,0,0-.6-.26.79.79,0,0,0-.69.49c-.13.34.08.66,0,.71s-.16-.05-.6-.55-.54-.67-.51-.72.31.13.65,0a.84.84,0,0,0,.57-.65.72.72,0,0,0-.08-.52.43.43,0,0,0-.27-.19.3.3,0,0,0-.36.25.41.41,0,0,0,.16.42.39.39,0,0,1,.11.09s0,.08,0,.13-.2.07-.31,0a.67.67,0,0,1-.35-.29A.74.74,0,0,1,43.76,15.9Z"/><path class="cls-8" d="M39.29,12.83a.69.69,0,0,1,1.11-.54c.16.12.15.2.31.31s.21.13.33.07a.22.22,0,0,0,.12-.15c0-.41.64-.76.75-.7s.07.89-.28,1a.2.2,0,0,0-.09.16.37.37,0,0,0,.14.29c.15.14.27.08.43.21a.59.59,0,0,1,.16.2.89.89,0,0,1,0,.69.81.81,0,0,1-.2.3.72.72,0,0,1-1,0,.49.49,0,0,1-.1-.49.09.09,0,0,1,.08-.06c.06,0,.09.06.19.16a.54.54,0,0,0,.23.15.3.3,0,0,0,.28,0,.28.28,0,0,0,.12-.19.42.42,0,0,0-.07-.34.61.61,0,0,0-.65-.14.84.84,0,0,0-.58.63c-.06.36.2.63.12.7s-.16,0-.68-.42-.66-.54-.64-.59.33.06.64-.11a.85.85,0,0,0,.44-.75.71.71,0,0,0-.18-.49.4.4,0,0,0-.3-.13.27.27,0,0,0-.22.1.33.33,0,0,0-.09.22.43.43,0,0,0,.24.38.36.36,0,0,1,.13.06s.06.07,0,.12-.18.12-.3.11a.62.62,0,0,1-.39-.21A.73.73,0,0,1,39.29,12.83Z"/><path class="cls-8" d="M34.25,11.43a.76.76,0,0,1,0-.53.75.75,0,0,1,.41-.43.62.62,0,0,1,.33,0c.2,0,.22.11.41.13a.36.36,0,0,0,.33-.08.27.27,0,0,0,0-.19.91.91,0,0,1,.4-1c.13,0,.42.77.16,1.06a.26.26,0,0,0,0,.19c0,.14.22.19.25.2.19.06.27-.05.47,0a.54.54,0,0,1,.22.11.87.87,0,0,1,.31.62.76.76,0,0,1-.06.35.73.73,0,0,1-.86.42.48.48,0,0,1-.3-.41s0-.07,0-.09.11,0,.25.06a.48.48,0,0,0,.26,0,.32.32,0,0,0,.24-.15.49.49,0,0,0,0-.24.45.45,0,0,0-.21-.28.62.62,0,0,0-.64.17.87.87,0,0,0-.28.83c.09.35.44.48.4.57s-.16.06-.79-.07-.82-.2-.82-.26.32-.09.54-.37a.94.94,0,0,0,.1-.88.66.66,0,0,0-.37-.36.38.38,0,0,0-.32,0,.35.35,0,0,0-.16.19.36.36,0,0,0,0,.24.39.39,0,0,0,.37.24.33.33,0,0,1,.14,0s.09,0,.1.09-.11.18-.22.23a.61.61,0,0,1-.45,0A.67.67,0,0,1,34.25,11.43Z"/><path class="cls-8" d="M29,11.26a.77.77,0,0,1-.08-.54.66.66,0,0,1,.63-.61c.19,0,.24.06.43,0s.24,0,.29-.16a.24.24,0,0,0,0-.2.92.92,0,0,1,.18-1c.14,0,.58.65.39,1a.27.27,0,0,0,0,.19.37.37,0,0,0,.29.13c.2,0,.25-.11.46-.11a.89.89,0,0,1,.24,0,.83.83,0,0,1,.43.53.77.77,0,0,1,0,.36.75.75,0,0,1-.75.61c-.17,0-.36-.17-.37-.32s0-.07,0-.1.11,0,.25,0a.49.49,0,0,0,.27,0,.35.35,0,0,0,.19-.21.3.3,0,0,0,0-.24.36.36,0,0,0-.26-.22c-.24-.06-.48.16-.59.31a.91.91,0,0,0-.09.87c.17.33.53.37.51.47s-.13.09-.78.12-.84,0-.85-.06.29-.16.44-.49a.9.9,0,0,0-.1-.88.63.63,0,0,0-.43-.27.44.44,0,0,0-.31.09.33.33,0,0,0-.12.22.4.4,0,0,0,.06.23.38.38,0,0,0,.41.15.29.29,0,0,1,.14,0,.17.17,0,0,1,.12.06c0,.07-.08.2-.18.27a.56.56,0,0,1-.43.09A.65.65,0,0,1,29,11.26Z"/><ellipse class="cls-8" cx="46.7" cy="18.97" rx="0.3" ry="0.31"/><ellipse class="cls-8" cx="43.09" cy="15.07" rx="0.3" ry="0.31"/><ellipse class="cls-8" cx="38.57" cy="12.19" rx="0.3" ry="0.31"/><ellipse class="cls-8" cx="33.32" cy="10.79" rx="0.3" ry="0.31"/><path class="cls-8" d="M46.91,20.09a.78.78,0,0,1,.41-.32.7.7,0,0,1,.58,0,.8.8,0,0,1,.23.25c.1.18.06.25.17.41s.14.21.27.21a.2.2,0,0,0,.17-.09.85.85,0,0,1,.95-.32c.08.12-.27.85-.65.83a.22.22,0,0,0-.14.11.35.35,0,0,0,0,.33c.08.19.21.18.31.37a1,1,0,0,1,.07.25.93.93,0,0,1-.24.65.8.8,0,0,1-.29.18.71.71,0,0,1-.87-.4.48.48,0,0,1,.09-.5.1.1,0,0,1,.1,0c.06,0,.06.1.11.23a.65.65,0,0,0,.15.24.4.4,0,0,0,.27.08.34.34,0,0,0,.19-.12.48.48,0,0,0,.07-.35.68.68,0,0,0-.54-.4.79.79,0,0,0-.78.33c-.19.31-.05.66-.15.69s-.14-.08-.47-.67-.4-.77-.35-.81.27.19.62.17a.81.81,0,0,0,.69-.5.68.68,0,0,0,0-.52.42.42,0,0,0-.22-.25.29.29,0,0,0-.24,0,.33.33,0,0,0-.17.17.45.45,0,0,0,.07.45.36.36,0,0,1,.1.11s0,.09,0,.13-.21,0-.31,0a.6.6,0,0,1-.28-.37A.7.7,0,0,1,46.91,20.09Z"/><path class="cls-8" d="M49.34,24.93a.72.72,0,0,1,.5-.14.79.79,0,0,1,.52.27.78.78,0,0,1,.12.33c0,.2,0,.25,0,.45s.06.25.18.3a.23.23,0,0,0,.19,0,.83.83,0,0,1,1,.09c0,.14-.56.67-.9.5a.23.23,0,0,0-.18,0,.43.43,0,0,0-.1.32c0,.2.13.25.15.47a.59.59,0,0,1,0,.25.81.81,0,0,1-.46.5.59.59,0,0,1-.34.06.76.76,0,0,1-.65-.72c0-.18.13-.39.27-.42a.08.08,0,0,1,.09,0s0,.12,0,.27a.49.49,0,0,0,0,.27A.35.35,0,0,0,50,28a.32.32,0,0,0,.22,0,.42.42,0,0,0,.18-.3c0-.26-.2-.48-.35-.58a.77.77,0,0,0-.84,0c-.29.2-.29.58-.39.57s-.1-.13-.19-.8-.09-.88,0-.9.18.29.51.41a.79.79,0,0,0,.82-.18.71.71,0,0,0,.21-.48.44.44,0,0,0-.11-.32.32.32,0,0,0-.22-.1.39.39,0,0,0-.22.08.44.44,0,0,0-.09.45.47.47,0,0,1,0,.14s0,.1,0,.13-.21-.06-.28-.15a.65.65,0,0,1-.13-.45A.72.72,0,0,1,49.34,24.93Z"/><path class="cls-8" d="M49.84,30.8a.69.69,0,0,1,.52,0,.82.82,0,0,1,.4.43.73.73,0,0,1,0,.35c0,.2-.11.23-.12.43a.4.4,0,0,0,.07.34.21.21,0,0,0,.19,0c.35-.18.92.27.91.41s-.73.45-1,.19a.2.2,0,0,0-.18,0c-.13,0-.18.24-.19.26-.05.2,0,.29,0,.5a.7.7,0,0,1-.11.23.79.79,0,0,1-.58.33.66.66,0,0,1-.34,0,.77.77,0,0,1-.4-.9.47.47,0,0,1,.38-.32s.06,0,.09.05,0,.12-.06.26a.68.68,0,0,0,0,.28.41.41,0,0,0,.15.24.29.29,0,0,0,.22,0A.39.39,0,0,0,50,33.7a.69.69,0,0,0-.16-.67.79.79,0,0,0-.79-.28c-.34.1-.46.47-.55.43s0-.16.07-.83.18-.86.24-.86.09.33.36.55a.78.78,0,0,0,.84.09.67.67,0,0,0,.34-.38.44.44,0,0,0,0-.34.29.29,0,0,0-.18-.17.31.31,0,0,0-.23,0,.45.45,0,0,0-.23.39.25.25,0,0,1,0,.15.18.18,0,0,1-.08.11c-.07,0-.17-.12-.22-.24a.67.67,0,0,1,0-.47A.69.69,0,0,1,49.84,30.8Z"/><path class="cls-8" d="M48.83,36a.7.7,0,0,1,.48.19.78.78,0,0,1,.28.53.72.72,0,0,1-.08.34c-.08.19-.16.19-.23.38a.41.41,0,0,0,0,.35.24.24,0,0,0,.16.1c.39-.07.82.54.77.66s-.82.22-1-.12a.23.23,0,0,0-.17-.07c-.14,0-.24.17-.25.19-.11.18,0,.29-.13.48a.89.89,0,0,1-.16.19.76.76,0,0,1-.65.14.66.66,0,0,1-.31-.15.8.8,0,0,1-.14-1c.1-.14.32-.24.44-.18a.1.1,0,0,1,.08.07c0,.06,0,.11-.13.23a.62.62,0,0,0-.11.25.4.4,0,0,0,.08.29.32.32,0,0,0,.2.1.41.41,0,0,0,.32-.13.71.71,0,0,0,0-.69.8.8,0,0,0-.69-.51c-.35,0-.56.31-.64.24s0-.17.29-.78.4-.76.46-.75,0,.35.19.65a.83.83,0,0,0,.78.34A.68.68,0,0,0,49.1,37a.5.5,0,0,0,.09-.33.4.4,0,0,0-.13-.22.27.27,0,0,0-.22-.05.41.41,0,0,0-.33.3.2.2,0,0,1,0,.14s0,.09-.1.08-.14-.17-.15-.29a.71.71,0,0,1,.14-.45A.69.69,0,0,1,48.83,36Z"/><path class="cls-8" d="M46.22,41.07a.7.7,0,0,1,.42.3.78.78,0,0,1,.16.58.86.86,0,0,1-.15.32c-.12.16-.2.14-.31.31a.42.42,0,0,0-.1.33.21.21,0,0,0,.14.14c.39,0,.68.72.6.83s-.84,0-1-.36a.21.21,0,0,0-.14-.11.34.34,0,0,0-.29.13c-.14.15-.09.27-.23.43a.63.63,0,0,1-.2.15.74.74,0,0,1-.66,0,.68.68,0,0,1-.27-.22.82.82,0,0,1,.07-1,.44.44,0,0,1,.48-.07.17.17,0,0,1,.06.09c0,.06-.07.09-.18.19a.57.57,0,0,0-.16.22.4.4,0,0,0,0,.3.31.31,0,0,0,.17.15A.4.4,0,0,0,45,43.7a.73.73,0,0,0,.18-.67.85.85,0,0,0-.56-.65c-.34-.09-.62.17-.68.08s0-.17.45-.69.56-.65.61-.62-.08.34,0,.67a.83.83,0,0,0,.69.52.61.61,0,0,0,.48-.16.43.43,0,0,0,.15-.29.4.4,0,0,0-.08-.25.39.39,0,0,0-.2-.11.41.41,0,0,0-.39.23.22.22,0,0,1-.07.12s-.06.07-.11,0-.1-.19-.08-.32a.65.65,0,0,1,.23-.4A.66.66,0,0,1,46.22,41.07Z"/><path class="cls-8" d="M42.48,44.91a.71.71,0,0,1,.35.4.8.8,0,0,1,0,.6.73.73,0,0,1-.21.27c-.16.12-.23.09-.38.22s-.18.17-.16.3a.23.23,0,0,0,.1.17.91.91,0,0,1,.39,1c-.1.1-.83-.2-.85-.59a.23.23,0,0,0-.11-.15.36.36,0,0,0-.32.06c-.17.11-.15.24-.32.36a.53.53,0,0,1-.23.1.77.77,0,0,1-.64-.19.77.77,0,0,1,.1-1.23.43.43,0,0,1,.48.05.12.12,0,0,1,0,.1c0,.06-.09.07-.21.14a.72.72,0,0,0-.21.18.38.38,0,0,0,0,.29.4.4,0,0,0,.13.19.42.42,0,0,0,.34,0c.24-.09.32-.42.33-.61a.87.87,0,0,0-.39-.77c-.31-.17-.63,0-.67-.09s.06-.16.59-.56.69-.49.74-.45-.16.31-.11.67a.85.85,0,0,0,.54.67.63.63,0,0,0,.5,0,.43.43,0,0,0,.22-.25.35.35,0,0,0,0-.26.33.33,0,0,0-.17-.16.4.4,0,0,0-.42.12.35.35,0,0,1-.1.11.13.13,0,0,1-.13,0c-.06,0,0-.21,0-.33a.62.62,0,0,1,.32-.33A.63.63,0,0,1,42.48,44.91Z"/><path class="cls-8" d="M37.52,47.4a.66.66,0,0,1,.21.49.78.78,0,0,1-.16.58.75.75,0,0,1-.28.19c-.19.06-.25,0-.42.09s-.23.09-.25.23a.2.2,0,0,0,.05.19.94.94,0,0,1,.09,1c-.13.06-.73-.46-.63-.84a.24.24,0,0,0-.07-.17c-.1-.11-.29-.06-.32-.06-.19,0-.21.19-.41.25a.5.5,0,0,1-.24,0,.82.82,0,0,1-.55-.38.69.69,0,0,1-.12-.34.77.77,0,0,1,.57-.8.43.43,0,0,1,.44.2.16.16,0,0,1,0,.1c0,.06-.11,0-.24.07a.51.51,0,0,0-.25.1.4.4,0,0,0-.14.26.33.33,0,0,0,.08.22.37.37,0,0,0,.31.14c.25,0,.42-.29.48-.46a.88.88,0,0,0-.14-.87c-.24-.26-.6-.2-.61-.31s.11-.12.72-.33.81-.24.84-.19-.24.24-.3.6a.89.89,0,0,0,.32.82.62.62,0,0,0,.48.13.39.39,0,0,0,.28-.17.33.33,0,0,0,.06-.25.3.3,0,0,0-.12-.2.38.38,0,0,0-.43,0,.23.23,0,0,1-.13.07.11.11,0,0,1-.12,0c-.05-.06,0-.22.09-.32a.66.66,0,0,1,.4-.21A.7.7,0,0,1,37.52,47.4Z"/><path class="cls-8" d="M32,48.6a.8.8,0,0,1,.08.53.78.78,0,0,1-.31.51.66.66,0,0,1-.32.1c-.19,0-.24-.06-.43,0s-.24,0-.3.15a.23.23,0,0,0,0,.2.93.93,0,0,1-.18,1,.93.93,0,0,1-.39-1,.24.24,0,0,0,0-.18.37.37,0,0,0-.29-.14c-.2,0-.25.12-.46.12a.74.74,0,0,1-.24-.06.83.83,0,0,1-.43-.53.73.73,0,0,1,0-.35.75.75,0,0,1,.75-.62c.17,0,.36.18.37.33a.14.14,0,0,1,0,.1c-.05,0-.12,0-.26,0a.57.57,0,0,0-.26,0,.35.35,0,0,0-.2.21.39.39,0,0,0,0,.23.45.45,0,0,0,.27.23c.24.06.48-.16.59-.31a.9.9,0,0,0,.08-.88c-.16-.32-.53-.36-.51-.47s.14-.09.79-.11.83,0,.85,0-.29.17-.44.5a.93.93,0,0,0,.09.88.7.7,0,0,0,.44.26.43.43,0,0,0,.31-.08.42.42,0,0,0,.12-.23.4.4,0,0,0-.06-.23.42.42,0,0,0-.42-.15.22.22,0,0,1-.13,0s-.1,0-.12-.06.07-.21.17-.28a.59.59,0,0,1,.44-.09A.67.67,0,0,1,32,48.6Z"/><ellipse class="cls-8" cx="49.2" cy="23.78" rx="0.3" ry="0.31"/><ellipse class="cls-8" cx="50.1" cy="29.56" rx="0.3" ry="0.31"/><ellipse class="cls-8" cx="49.5" cy="35.21" rx="0.3" ry="0.31"/><ellipse class="cls-8" cx="47" cy="40.18" rx="0.3" ry="0.31"/><ellipse class="cls-8" cx="43.2" cy="44.56" rx="0.3" ry="0.31"/><ellipse class="cls-8" cx="38.53" cy="47.66" rx="0.3" ry="0.31"/><ellipse class="cls-8" cx="33.25" cy="48.92" rx="0.3" ry="0.31"/><path class="cls-8" d="M18.09,16.14a.76.76,0,0,0-.88-.49.62.62,0,0,0-.27.2c-.13.14-.11.22-.24.36s-.18.17-.3.14a.2.2,0,0,1-.14-.13.82.82,0,0,0-.84-.52c-.1.1.1.89.46,1a.18.18,0,0,1,.11.13.37.37,0,0,1-.08.32c-.12.17-.24.13-.37.3a.62.62,0,0,0-.11.22.92.92,0,0,0,.1.69.77.77,0,0,0,.24.25.69.69,0,0,0,.9-.21.5.5,0,0,0,0-.5.15.15,0,0,0-.09-.05c-.06,0-.08.09-.16.21a.47.47,0,0,1-.18.19.3.3,0,0,1-.27,0,.3.3,0,0,1-.16-.16.41.41,0,0,1,0-.35.58.58,0,0,1,.59-.27.79.79,0,0,1,.67.49c.12.34-.08.66,0,.71s.15,0,.57-.55.53-.67.5-.72-.3.13-.63,0a.87.87,0,0,1-.56-.65.72.72,0,0,1,.09-.51.41.41,0,0,1,.25-.2.31.31,0,0,1,.24.05.37.37,0,0,1,.12.2.42.42,0,0,1-.16.42.27.27,0,0,0-.1.09s-.06.08,0,.13.2.08.31,0A.54.54,0,0,0,18,16.7.74.74,0,0,0,18.09,16.14Z"/><path class="cls-8" d="M22.31,13a.75.75,0,0,0-.24-.48.72.72,0,0,0-.52-.21.71.71,0,0,0-.3.13c-.16.11-.15.19-.31.29s-.21.13-.32.07a.21.21,0,0,1-.11-.15c0-.41-.61-.77-.72-.71s-.08.89.26,1a.26.26,0,0,1,.08.16.4.4,0,0,1-.14.3c-.15.13-.26.06-.42.2a.75.75,0,0,0-.16.19.94.94,0,0,0,0,.7.74.74,0,0,0,.19.29.67.67,0,0,0,.92,0,.51.51,0,0,0,.11-.49s0-.06-.08-.06-.09.06-.19.16a.54.54,0,0,1-.22.15.34.34,0,0,1-.27-.05.32.32,0,0,1-.12-.19.48.48,0,0,1,.08-.35.6.6,0,0,1,.63-.12.81.81,0,0,1,.55.64c.05.36-.21.63-.13.7s.15,0,.67-.41.65-.53.63-.58-.32.05-.62-.12a.89.89,0,0,1-.42-.76.7.7,0,0,1,.19-.48.38.38,0,0,1,.29-.13.33.33,0,0,1,.22.1.41.41,0,0,1,.08.22.43.43,0,0,1-.24.38.23.23,0,0,0-.12.06s-.07.07-.06.12.17.12.29.11a.59.59,0,0,0,.38-.2A.75.75,0,0,0,22.31,13Z"/><path class="cls-8" d="M27.05,11.36a.82.82,0,0,0-.57-.89.87.87,0,0,0-.32,0c-.18.06-.19.15-.37.19s-.23.06-.32,0a.25.25,0,0,1-.08-.18.9.9,0,0,0-.52-.89,1,1,0,0,0,0,1.07.22.22,0,0,1,0,.18.34.34,0,0,1-.21.24c-.17.08-.26,0-.45.06a.74.74,0,0,0-.2.14.83.83,0,0,0-.2.65.9.9,0,0,0,.1.35.71.71,0,0,0,.89.29.52.52,0,0,0,.23-.44s0-.07-.06-.09-.11,0-.23.1a.53.53,0,0,1-.24.08.36.36,0,0,1-.25-.13.39.39,0,0,1-.08-.22.45.45,0,0,1,.16-.31.59.59,0,0,1,.64.07.91.91,0,0,1,.38.79c0,.36-.35.53-.29.62s.15,0,.74-.18.76-.31.75-.37-.32-.05-.57-.3a.93.93,0,0,1-.22-.85.63.63,0,0,1,.3-.41.36.36,0,0,1,.31,0,.31.31,0,0,1,.18.16.37.37,0,0,1-.29.53.25.25,0,0,0-.14,0s-.08.05-.08.1.14.17.25.2a.57.57,0,0,0,.43-.09A.62.62,0,0,0,27.05,11.36Z"/><ellipse class="cls-8" cx="14.97" cy="19.29" rx="0.29" ry="0.31"/><ellipse class="cls-8" cx="18.75" cy="15.38" rx="0.29" ry="0.31"/><ellipse class="cls-8" cx="23.08" cy="12.5" rx="0.29" ry="0.31"/><ellipse class="cls-8" cx="27.98" cy="10.96" rx="0.29" ry="0.31"/><path class="cls-8" d="M14.67,20.37a.72.72,0,0,0-.4-.33.67.67,0,0,0-.56.05.7.7,0,0,0-.23.25c-.09.17-.06.24-.16.41s-.14.2-.26.2a.2.2,0,0,1-.17-.09.79.79,0,0,0-.92-.31c-.08.11.27.84.63.82a.22.22,0,0,1,.14.11.38.38,0,0,1,0,.33c-.08.19-.2.18-.3.38a.55.55,0,0,0-.06.24.85.85,0,0,0,.23.65.67.67,0,0,0,.28.19.7.7,0,0,0,.84-.41.53.53,0,0,0-.09-.5s0,0-.09,0-.06.1-.12.24a.49.49,0,0,1-.14.23.29.29,0,0,1-.26.08.38.38,0,0,1-.19-.12.51.51,0,0,1-.06-.35.64.64,0,0,1,.53-.4.77.77,0,0,1,.75.33c.19.31.05.67.15.7s.13-.09.45-.67.38-.78.34-.82-.27.19-.6.18a.82.82,0,0,1-.67-.51.68.68,0,0,1,0-.52.42.42,0,0,1,.21-.25.31.31,0,0,1,.24,0,.33.33,0,0,1,.16.16.45.45,0,0,1-.07.45.25.25,0,0,0-.09.11.16.16,0,0,0,0,.14c0,.06.2,0,.31,0a.62.62,0,0,0,.27-.36A.75.75,0,0,0,14.67,20.37Z"/><path class="cls-8" d="M12.72,24.93a.67.67,0,0,0-.48-.14.76.76,0,0,0-.5.27.78.78,0,0,0-.12.33c0,.2,0,.25,0,.45s0,.25-.17.3a.2.2,0,0,1-.18,0,.79.79,0,0,0-1,.09c0,.14.54.67.87.5a.2.2,0,0,1,.17,0,.43.43,0,0,1,.1.32c0,.2-.13.25-.15.47a.56.56,0,0,0,0,.25.77.77,0,0,0,.44.5.57.57,0,0,0,.33.06.76.76,0,0,0,.63-.72c0-.18-.12-.39-.26-.42a.08.08,0,0,0-.09,0s0,.12,0,.27a.59.59,0,0,1,0,.27.39.39,0,0,1-.22.19.27.27,0,0,1-.21,0,.42.42,0,0,1-.18-.3A.68.68,0,0,1,12,27a.72.72,0,0,1,.81,0c.28.2.29.58.38.57s.1-.13.19-.8.08-.88,0-.9-.18.29-.5.41a.75.75,0,0,1-.8-.18.77.77,0,0,1-.2-.48.44.44,0,0,1,.11-.32.32.32,0,0,1,.22-.1.34.34,0,0,1,.2.08.47.47,0,0,1,.1.45.29.29,0,0,0-.05.14s0,.1.05.13.19-.06.27-.15a.63.63,0,0,0,.12-.45A.68.68,0,0,0,12.72,24.93Z"/><path class="cls-8" d="M12,30.8a.64.64,0,0,0-.5,0,.72.72,0,0,0-.4.42,1.14,1.14,0,0,0,0,.35c0,.2.11.23.12.43a.4.4,0,0,1-.07.34.17.17,0,0,1-.18,0c-.34-.18-.9.26-.89.4s.71.46,1,.2a.18.18,0,0,1,.17,0c.13,0,.18.24.19.27.05.2,0,.28,0,.5a.73.73,0,0,0,.1.23.81.81,0,0,0,.57.34.67.67,0,0,0,.33-.06.78.78,0,0,0,.39-.89c-.06-.17-.23-.33-.37-.32a.12.12,0,0,0-.09,0s0,.12.06.26a.51.51,0,0,1,0,.27.32.32,0,0,1-.15.25.24.24,0,0,1-.21,0,.39.39,0,0,1-.26-.22A.74.74,0,0,1,12,33a.73.73,0,0,1,.77-.26c.33.1.44.47.53.42s.05-.15-.06-.82-.18-.86-.23-.87-.09.34-.35.56a.76.76,0,0,1-.82.07.7.7,0,0,1-.33-.39.53.53,0,0,1,0-.33.37.37,0,0,1,.18-.17.28.28,0,0,1,.22,0,.45.45,0,0,1,.22.4.38.38,0,0,0,0,.15s0,.09.08.1.17-.11.21-.23a.69.69,0,0,0,0-.47A.74.74,0,0,0,12,30.8Z"/><path class="cls-8" d="M13.07,36.06a.67.67,0,0,0-.47.19.81.81,0,0,0-.27.53,1,1,0,0,0,.07.35c.08.18.16.18.23.37a.42.42,0,0,1,0,.35c-.05.07-.13.11-.16.1-.37-.06-.79.54-.74.67s.8.21,1-.13a.24.24,0,0,1,.16-.07c.14,0,.24.17.25.2s0,.28.12.47a.61.61,0,0,0,.16.2.73.73,0,0,0,.63.13.58.58,0,0,0,.3-.15.84.84,0,0,0,.14-1,.42.42,0,0,0-.44-.18s-.06,0-.07.07,0,.11.12.23a.54.54,0,0,1,.11.26.38.38,0,0,1-.08.28.29.29,0,0,1-.19.1.4.4,0,0,1-.31-.13.71.71,0,0,1,0-.69.79.79,0,0,1,.66-.51c.34,0,.54.31.62.24s0-.17-.28-.77-.39-.77-.45-.76,0,.35-.18.65a.79.79,0,0,1-.76.34.65.65,0,0,1-.42-.27.51.51,0,0,1-.08-.33.4.4,0,0,1,.13-.22.35.35,0,0,1,.21-.05.41.41,0,0,1,.32.31.29.29,0,0,0,0,.14s.06.08.11.07.13-.16.14-.29a.65.65,0,0,0-.14-.44A.62.62,0,0,0,13.07,36.06Z"/><path class="cls-8" d="M15.62,40.84a.63.63,0,0,0-.41.3.77.77,0,0,0-.15.58.75.75,0,0,0,.14.31c.12.16.2.15.3.31a.41.41,0,0,1,.09.34.2.2,0,0,1-.13.13c-.38,0-.65.73-.58.84s.82,0,.93-.37a.21.21,0,0,1,.14-.11c.13,0,.26.11.28.13s.09.27.22.44a.73.73,0,0,0,.2.14.7.7,0,0,0,.64,0,.74.74,0,0,0,.26-.22.84.84,0,0,0-.08-1,.41.41,0,0,0-.46-.07.13.13,0,0,0-.05.09c0,.06.07.09.16.19a.53.53,0,0,1,.16.23.37.37,0,0,1,0,.29.34.34,0,0,1-.16.15.36.36,0,0,1-.33-.06c-.2-.14-.2-.48-.17-.66a.84.84,0,0,1,.54-.66c.33-.09.59.17.65.08s0-.16-.43-.68-.54-.66-.59-.63.08.34-.05.68a.81.81,0,0,1-.66.52.62.62,0,0,1-.47-.16.42.42,0,0,1-.14-.3.34.34,0,0,1,.07-.24.32.32,0,0,1,.2-.11.38.38,0,0,1,.37.22.24.24,0,0,0,.07.13s.06.06.11.05.09-.2.08-.32a.63.63,0,0,0-.23-.4A.57.57,0,0,0,15.62,40.84Z"/><path class="cls-8" d="M19.41,44.77a.73.73,0,0,0-.34.39.72.72,0,0,0,.2.88c.15.12.22.09.36.22s.18.17.16.3a.23.23,0,0,1-.1.17c-.36.12-.47.87-.38,1s.8-.2.83-.59a.2.2,0,0,1,.11-.14c.12-.07.28,0,.3,0s.14.25.31.37a.55.55,0,0,0,.22.1.74.74,0,0,0,.62-.19.69.69,0,0,0,.2-.28.82.82,0,0,0-.29-.95.42.42,0,0,0-.47,0s0,0,0,.1.09.07.21.14a.58.58,0,0,1,.2.18.38.38,0,0,1,.05.29.33.33,0,0,1-.46.22.73.73,0,0,1-.31-.61.83.83,0,0,1,.38-.77c.29-.17.61,0,.65-.09s-.07-.15-.57-.56-.68-.49-.72-.45.15.3.1.66a.82.82,0,0,1-.53.67.54.54,0,0,1-.48,0,.42.42,0,0,1-.21-.26.38.38,0,0,1,0-.25.33.33,0,0,1,.17-.16.38.38,0,0,1,.41.13.27.27,0,0,0,.09.1s.08,0,.12,0,.05-.21,0-.33a.65.65,0,0,0-.31-.33A.61.61,0,0,0,19.41,44.77Z"/><path class="cls-8" d="M23.86,47.4a.75.75,0,0,0-.21.49.83.83,0,0,0,.16.58.66.66,0,0,0,.27.19c.18.06.24,0,.41.09s.22.09.24.23a.2.2,0,0,1-.05.19,1,1,0,0,0-.08,1c.12.06.7-.46.61-.84a.22.22,0,0,1,.06-.17c.1-.11.28-.06.31-.06.18,0,.2.19.4.25a.46.46,0,0,0,.23,0,.79.79,0,0,0,.54-.38.83.83,0,0,0,.11-.34.77.77,0,0,0-.55-.8.43.43,0,0,0-.43.2.16.16,0,0,0,0,.1c0,.06.11,0,.24.07a.51.51,0,0,1,.24.1.4.4,0,0,1,.13.26.34.34,0,0,1-.07.22.36.36,0,0,1-.3.14c-.24,0-.41-.29-.47-.46a.9.9,0,0,1,.13-.87c.24-.26.59-.2.6-.31s-.11-.12-.7-.33-.78-.24-.81-.19.23.24.29.6a.91.91,0,0,1-.32.82.57.57,0,0,1-.46.13.38.38,0,0,1-.27-.17.33.33,0,0,1-.06-.25.36.36,0,0,1,.11-.2.38.38,0,0,1,.43,0,.2.2,0,0,0,.12.07.11.11,0,0,0,.12,0c.05-.06,0-.22-.09-.32a.64.64,0,0,0-.39-.21A.66.66,0,0,0,23.86,47.4Z"/><ellipse class="cls-8" cx="12.71" cy="24.04" rx="0.29" ry="0.31"/><ellipse class="cls-8" cx="11.89" cy="29.52" rx="0.29" ry="0.31"/><ellipse class="cls-8" cx="12.54" cy="35.24" rx="0.29" ry="0.31"/><ellipse class="cls-8" cx="14.87" cy="40.14" rx="0.29" ry="0.31"/><ellipse class="cls-8" cx="18.36" cy="44.34" rx="0.29" ry="0.31"/><ellipse class="cls-8" cx="22.8" cy="47.31" rx="0.29" ry="0.31"/><ellipse class="cls-8" cx="27.76" cy="48.61" rx="0.29" ry="0.31"/></g></g></svg>