<?xml version="1.0" encoding="utf-8"?>
<!-- Generator: Adobe Illustrator 25.2.1, SVG Export Plug-In . SVG Version: 6.00 Build 0)  -->
<svg version="1.1" id="PRINT" xmlns="http://www.w3.org/2000/svg" xmlns:xlink="http://www.w3.org/1999/xlink" x="0px" y="0px"
	 viewBox="0 0 536.37 379.71" style="enable-background:new 0 0 536.37 379.71;" xml:space="preserve">
<style type="text/css">
	.st0{fill:#1F66AB;}
	.st1{fill:#125084;}
	.st2{fill:#4D94CE;}
	.st3{fill:#92C943;}
	.st4{fill:url(#SVGID_1_);}
	.st5{fill:#6A9927;}
	.st6{fill:#73A92D;}
	.st7{fill:url(#SVGID_2_);}
	.st8{fill:url(#SVGID_3_);}
	.st9{fill:url(#SVGID_4_);}
	.st10{fill:url(#SVGID_5_);}
	.st11{fill:url(#SVGID_6_);}
	.st12{fill:none;}
</style>
<g>
	<polygon class="st0" points="47.43,285.26 103.09,288.71 94.34,258.67 	"/>
	<polygon class="st1" points="47.43,285.26 81.04,248.02 94.34,258.67 	"/>
</g>
<g>
	<polygon class="st0" points="238.22,132.49 271.87,166.59 283.6,141.61 	"/>
	<polygon class="st1" points="238.22,132.49 281.23,126.94 283.6,141.61 269.97,138.87 	"/>
</g>
<g>
	<polygon class="st0" points="53.72,71.89 51.75,38.83 34.67,46.15 	"/>
	<polygon class="st1" points="53.72,71.89 29.35,54.75 34.67,46.15 	"/>
</g>
<g>
	<polygon class="st0" points="456.2,283.17 454.23,250.11 437.16,257.43 	"/>
	<polygon class="st1" points="456.2,283.17 431.83,266.03 437.16,257.43 	"/>
</g>
<g>
	<polygon class="st0" points="176.35,122.71 138.62,81.37 123.97,109.14 	"/>
	<polygon class="st1" points="176.35,122.71 126.12,126.1 123.97,109.14 	"/>
</g>
<g>
	<g>
		<polygon class="st2" points="456.81,19.31 458.02,91.4 479.23,63.63 		"/>
		<polygon class="st0" points="456.81,19.31 500.86,58.26 479.23,63.63 		"/>
	</g>
	<polygon class="st1" points="458.02,91.4 500.86,58.26 479.23,63.63 	"/>
</g>
<g>
	<g>
		<polygon class="st2" points="431.83,173.04 481.79,182.02 465.5,163.59 		"/>
		<polygon class="st0" points="431.83,173.04 464.73,147.92 465.5,163.59 		"/>
	</g>
	<polygon class="st1" points="481.79,182.02 464.73,147.92 465.5,163.59 	"/>
</g>
<g>
	<g>
		<polygon class="st2" points="210.59,315.55 260.55,324.54 244.26,306.1 		"/>
		<polygon class="st0" points="210.59,315.55 243.49,290.43 244.26,306.1 		"/>
	</g>
	<polygon class="st1" points="260.55,324.54 243.49,290.43 244.26,306.1 	"/>
</g>
<g>
	<g>
		<polygon class="st2" points="254.97,72.91 245.85,31.95 237,50.26 		"/>
		<polygon class="st0" points="254.97,72.91 225.3,55.86 237,50.26 		"/>
	</g>
	<polygon class="st1" points="245.85,31.95 225.3,55.86 237,50.26 	"/>
</g>
<g>
	<g>
		<polygon class="st3" points="60.54,137.95 71.18,167.06 77.63,151.93 		"/>
		<linearGradient id="SVGID_1_" gradientUnits="userSpaceOnUse" x1="60.5361" y1="152.5043" x2="77.6262" y2="152.5043">
			<stop  offset="7.448330e-03" style="stop-color:#FFFFFF"/>
			<stop  offset="0.2168" style="stop-color:#E2F0CC;stop-opacity:0.789"/>
			<stop  offset="0.4853" style="stop-color:#C0E092;stop-opacity:0.5185"/>
			<stop  offset="0.715" style="stop-color:#A7D367;stop-opacity:0.2872"/>
			<stop  offset="0.8938" style="stop-color:#98CC4D;stop-opacity:0.107"/>
			<stop  offset="1" style="stop-color:#92C943;stop-opacity:0"/>
		</linearGradient>
		<polygon class="st4" points="60.54,137.95 71.18,167.06 77.63,151.93 		"/>
		<polygon class="st5" points="60.54,137.95 89.99,146.76 77.63,151.93 		"/>
	</g>
	<polygon class="st6" points="71.18,167.06 77.63,151.93 89.99,146.76 	"/>
</g>
<g>
	<g>
		<polygon class="st3" points="201.57,232 157.97,220.32 170.6,240.67 		"/>
		<linearGradient id="SVGID_2_" gradientUnits="userSpaceOnUse" x1="157.9692" y1="230.4964" x2="201.5738" y2="230.4964">
			<stop  offset="7.448330e-03" style="stop-color:#FFFFFF"/>
			<stop  offset="0.2168" style="stop-color:#E2F0CC;stop-opacity:0.789"/>
			<stop  offset="0.4853" style="stop-color:#C0E092;stop-opacity:0.5185"/>
			<stop  offset="0.715" style="stop-color:#A7D367;stop-opacity:0.2872"/>
			<stop  offset="0.8938" style="stop-color:#98CC4D;stop-opacity:0.107"/>
			<stop  offset="1" style="stop-color:#92C943;stop-opacity:0"/>
		</linearGradient>
		<polygon class="st7" points="201.57,232 157.97,220.32 170.6,240.67 		"/>
		<polygon class="st5" points="201.57,232 166.41,259.73 170.6,240.67 		"/>
	</g>
	<polygon class="st6" points="157.97,220.32 170.6,240.67 166.41,259.73 	"/>
</g>
<g>
	<g>
		<polygon class="st3" points="502.57,366.46 502.46,316.83 487.3,328.1 		"/>
		<polygon class="st5" points="502.57,366.46 472.05,326.05 487.3,328.1 		"/>
	</g>
	<polygon class="st6" points="502.46,316.83 487.3,328.1 472.05,326.05 	"/>
</g>
<g>
	<polygon class="st6" points="325.74,74.01 317.29,99.06 333.17,108.8 	"/>
	<linearGradient id="SVGID_3_" gradientUnits="userSpaceOnUse" x1="317.2873" y1="91.4023" x2="333.1699" y2="91.4023">
		<stop  offset="7.448330e-03" style="stop-color:#FFFFFF"/>
		<stop  offset="0.2168" style="stop-color:#E2F0CC;stop-opacity:0.789"/>
		<stop  offset="0.4853" style="stop-color:#C0E092;stop-opacity:0.5185"/>
		<stop  offset="0.715" style="stop-color:#A7D367;stop-opacity:0.2872"/>
		<stop  offset="0.8938" style="stop-color:#98CC4D;stop-opacity:0.107"/>
		<stop  offset="1" style="stop-color:#92C943;stop-opacity:0"/>
	</linearGradient>
	<polygon class="st8" points="325.74,74.01 317.29,99.06 333.17,108.8 	"/>
	<polygon class="st5" points="325.74,74.01 341.44,92.35 333.17,108.8 	"/>
</g>
<g>
	<polygon class="st6" points="279.98,223.27 271.52,248.33 287.4,258.07 	"/>
	<linearGradient id="SVGID_4_" gradientUnits="userSpaceOnUse" x1="271.5192" y1="240.6695" x2="287.4017" y2="240.6695">
		<stop  offset="7.448330e-03" style="stop-color:#FFFFFF"/>
		<stop  offset="0.2168" style="stop-color:#E2F0CC;stop-opacity:0.789"/>
		<stop  offset="0.4853" style="stop-color:#C0E092;stop-opacity:0.5185"/>
		<stop  offset="0.715" style="stop-color:#A7D367;stop-opacity:0.2872"/>
		<stop  offset="0.8938" style="stop-color:#98CC4D;stop-opacity:0.107"/>
		<stop  offset="1" style="stop-color:#92C943;stop-opacity:0"/>
	</linearGradient>
	<polygon class="st9" points="279.98,223.27 271.52,248.33 287.4,258.07 	"/>
	<polygon class="st5" points="279.98,223.27 295.67,241.62 287.4,258.07 	"/>
</g>
<g>
	<polygon class="st6" points="150.82,331.67 142.36,356.72 158.24,366.46 	"/>
	<linearGradient id="SVGID_5_" gradientUnits="userSpaceOnUse" x1="142.3611" y1="349.0626" x2="158.2437" y2="349.0626">
		<stop  offset="7.448330e-03" style="stop-color:#FFFFFF"/>
		<stop  offset="0.2168" style="stop-color:#E2F0CC;stop-opacity:0.789"/>
		<stop  offset="0.4853" style="stop-color:#C0E092;stop-opacity:0.5185"/>
		<stop  offset="0.715" style="stop-color:#A7D367;stop-opacity:0.2872"/>
		<stop  offset="0.8938" style="stop-color:#98CC4D;stop-opacity:0.107"/>
		<stop  offset="1" style="stop-color:#92C943;stop-opacity:0"/>
	</linearGradient>
	<polygon class="st10" points="150.82,331.67 142.36,356.72 158.24,366.46 	"/>
	<polygon class="st5" points="150.82,331.67 166.51,350.01 158.24,366.46 	"/>
</g>
<g>
	<g>
		<polygon class="st2" points="339.72,182.02 374.17,240.27 378.58,207.77 		"/>
		<polygon class="st0" points="339.72,182.02 393.73,193.35 378.58,207.77 		"/>
	</g>
	<polygon class="st1" points="374.17,240.27 393.73,193.35 378.58,207.77 	"/>
</g>
<linearGradient id="SVGID_6_" gradientUnits="userSpaceOnUse" x1="282.0818" y1="166.8845" x2="354.2273" y2="89.4342" gradientTransform="matrix(0.3869 -0.9221 0.9221 0.3869 129.985 581.6935)">
	<stop  offset="0" style="stop-color:#6A9927"/>
	<stop  offset="0.1983" style="stop-color:#74A52E;stop-opacity:0.8017"/>
	<stop  offset="0.7007" style="stop-color:#8ABF3D;stop-opacity:0.2993"/>
	<stop  offset="1" style="stop-color:#92C943;stop-opacity:0"/>
</linearGradient>
<polygon class="st11" points="397.15,307.49 341.44,359.64 392.2,370.28 "/>
<g>
	<g>
		<polygon class="st3" points="146.56,25.17 101.39,16.06 108.82,31.95 		"/>
		<polygon class="st5" points="146.56,25.17 104.13,45.45 108.82,31.95 		"/>
	</g>
	<polygon class="st6" points="101.39,16.06 108.82,31.95 104.13,45.45 	"/>
</g>
<g>
	<g>
		<polygon class="st3" points="442.33,112.03 397.15,102.92 404.58,118.81 		"/>
		<polygon class="st5" points="442.33,112.03 399.89,132.31 404.58,118.81 		"/>
	</g>
	<polygon class="st6" points="397.15,102.92 404.58,118.81 399.89,132.31 	"/>
</g>
<g>
	<g>
		<polygon class="st2" points="386.42,38.3 339.14,16.09 350.44,38.75 		"/>
		<polygon class="st0" points="386.42,38.3 347.03,54.53 350.44,38.75 		"/>
	</g>
	<polygon class="st1" points="339.14,16.09 347.03,54.53 350.44,38.75 	"/>
</g>
<rect class="st12" width="536.37" height="379.71"/>
</svg>
