<?xml version="1.0" encoding="utf-8"?>
<!-- Generator: Adobe Illustrator 25.2.1, SVG Export Plug-In . SVG Version: 6.00 Build 0)  -->
<svg version="1.1" id="PRINT" xmlns="http://www.w3.org/2000/svg" xmlns:xlink="http://www.w3.org/1999/xlink" x="0px" y="0px"
	 viewBox="0 0 536.37 379.71" style="enable-background:new 0 0 536.37 379.71;" xml:space="preserve">
<style type="text/css">
	.st0{fill:#1F66AB;}
	.st1{fill:#125084;}
	.st2{fill:#4D94CE;}
	.st3{fill:#92C943;}
	.st4{fill:url(#SVGID_1_);}
	.st5{fill:#6A9927;}
	.st6{fill:#73A92D;}
	.st7{fill:url(#SVGID_2_);}
	.st8{fill:url(#SVGID_3_);}
	.st9{fill:url(#SVGID_4_);}
	.st10{fill:url(#SVGID_5_);}
	.st11{fill:url(#SVGID_6_);}
	.st12{fill:url(#SVGID_7_);}
	.st13{fill:url(#SVGID_8_);}
	.st14{opacity:0.58;fill:url(#SVGID_9_);}
	.st15{fill:none;}
</style>
<g>
	<g>
		<polygon class="st0" points="234.75,75.65 337.58,82.02 321.4,26.53 		"/>
		<polygon class="st1" points="234.75,75.65 296.85,6.86 321.4,26.53 		"/>
	</g>
	<g>
		<polygon class="st0" points="312.25,159.06 362.16,208.77 378.91,172.98 		"/>
		<polygon class="st1" points="312.25,159.06 375.19,151.79 378.91,172.98 358.89,168.8 		"/>
	</g>
	<g>
		<polygon class="st0" points="102.1,118.3 97.91,47.98 61.6,63.55 		"/>
		<polygon class="st1" points="102.1,118.3 50.28,81.85 61.6,63.55 		"/>
	</g>
	<g>
		<polygon class="st0" points="258.22,129.18 200.15,65.56 177.61,108.3 		"/>
		<polygon class="st1" points="258.22,129.18 180.92,134.4 177.61,108.3 		"/>
	</g>
	<g>
		<g>
			<polygon class="st2" points="341.6,34.92 343.65,157.51 379.73,110.29 			"/>
			<polygon class="st0" points="341.6,34.92 416.5,101.15 379.73,110.29 			"/>
		</g>
		<polygon class="st1" points="343.65,157.51 416.5,101.15 379.73,110.29 		"/>
	</g>
	<g>
		<g>
			<polygon class="st2" points="304.09,322.32 354.04,331.3 337.75,312.87 			"/>
			<polygon class="st0" points="304.09,322.32 336.98,297.2 337.75,312.87 			"/>
		</g>
		<polygon class="st1" points="354.04,331.3 336.98,297.2 337.75,312.87 		"/>
	</g>
	<g>
		<g>
			<polygon class="st2" points="329.06,149.92 308.88,59.34 289.32,99.84 			"/>
			<polygon class="st0" points="329.06,149.92 263.44,112.21 289.32,99.84 			"/>
		</g>
		<polygon class="st1" points="308.88,59.34 263.44,112.21 289.32,99.84 		"/>
	</g>
	<g>
		<g>
			<polygon class="st3" points="105.53,71.05 134.98,151.54 152.8,109.7 			"/>
			<linearGradient id="SVGID_1_" gradientUnits="userSpaceOnUse" x1="105.5319" y1="111.2904" x2="152.7988" y2="111.2904">
				<stop  offset="7.448330e-03" style="stop-color:#FFFFFF"/>
				<stop  offset="0.2168" style="stop-color:#E2F0CC;stop-opacity:0.789"/>
				<stop  offset="0.4853" style="stop-color:#C0E092;stop-opacity:0.5185"/>
				<stop  offset="0.715" style="stop-color:#A7D367;stop-opacity:0.2872"/>
				<stop  offset="0.8938" style="stop-color:#98CC4D;stop-opacity:0.107"/>
				<stop  offset="1" style="stop-color:#92C943;stop-opacity:0"/>
			</linearGradient>
			<polygon class="st4" points="105.53,71.05 134.98,151.54 152.8,109.7 			"/>
			<polygon class="st5" points="105.53,71.05 186.99,95.42 152.8,109.7 			"/>
		</g>
		<polygon class="st6" points="134.98,151.54 152.8,109.7 186.99,95.42 		"/>
	</g>
	<g>
		<g>
			<polygon class="st3" points="310.65,158.52 236.45,138.65 257.95,173.27 			"/>
			<linearGradient id="SVGID_2_" gradientUnits="userSpaceOnUse" x1="236.4528" y1="155.9571" x2="310.645" y2="155.9571">
				<stop  offset="7.448330e-03" style="stop-color:#FFFFFF"/>
				<stop  offset="0.2168" style="stop-color:#E2F0CC;stop-opacity:0.789"/>
				<stop  offset="0.4853" style="stop-color:#C0E092;stop-opacity:0.5185"/>
				<stop  offset="0.715" style="stop-color:#A7D367;stop-opacity:0.2872"/>
				<stop  offset="0.8938" style="stop-color:#98CC4D;stop-opacity:0.107"/>
				<stop  offset="1" style="stop-color:#92C943;stop-opacity:0"/>
			</linearGradient>
			<polygon class="st7" points="310.65,158.52 236.45,138.65 257.95,173.27 			"/>
			<polygon class="st5" points="310.65,158.52 250.81,205.69 257.95,173.27 			"/>
		</g>
		<polygon class="st6" points="236.45,138.65 257.95,173.27 250.81,205.69 		"/>
	</g>
	<g>
		<g>
			<polygon class="st3" points="430.49,241.89 430.29,142.64 399.96,165.16 			"/>
			<polygon class="st5" points="430.49,241.89 369.45,161.06 399.96,165.16 			"/>
		</g>
		<polygon class="st6" points="430.29,142.64 399.96,165.16 369.45,161.06 		"/>
	</g>
	<g>
		<polygon class="st6" points="318.64,179.37 299.98,234.64 335.02,256.12 		"/>
		<linearGradient id="SVGID_3_" gradientUnits="userSpaceOnUse" x1="299.9814" y1="217.7417" x2="335.0175" y2="217.7417">
			<stop  offset="7.448330e-03" style="stop-color:#FFFFFF"/>
			<stop  offset="0.2168" style="stop-color:#E2F0CC;stop-opacity:0.789"/>
			<stop  offset="0.4853" style="stop-color:#C0E092;stop-opacity:0.5185"/>
			<stop  offset="0.715" style="stop-color:#A7D367;stop-opacity:0.2872"/>
			<stop  offset="0.8938" style="stop-color:#98CC4D;stop-opacity:0.107"/>
			<stop  offset="1" style="stop-color:#92C943;stop-opacity:0"/>
		</linearGradient>
		<polygon class="st8" points="318.64,179.37 299.98,234.64 335.02,256.12 		"/>
		<polygon class="st5" points="318.64,179.37 353.26,219.84 335.02,256.12 		"/>
	</g>
	<g>
		<g>
			<polygon class="st2" points="362.93,210.64 410.18,290.52 416.23,245.95 			"/>
			<polygon class="st0" points="362.93,210.64 437.01,226.17 416.23,245.95 			"/>
		</g>
		<polygon class="st1" points="410.18,290.52 437.01,226.17 416.23,245.95 		"/>
	</g>
	
		<linearGradient id="SVGID_4_" gradientUnits="userSpaceOnUse" x1="271.3768" y1="205.1866" x2="271.3768" y2="140.9489" gradientTransform="matrix(0.9871 -0.1602 0.1602 0.9871 -9.1645 71.6197)">
		<stop  offset="2.200000e-07" style="stop-color:#1F66AB"/>
		<stop  offset="1" style="stop-color:#1F66AB;stop-opacity:0"/>
	</linearGradient>
	<polygon class="st9" points="270.65,169 272.25,233.82 307.69,207.63 	"/>
	
		<linearGradient id="SVGID_5_" gradientUnits="userSpaceOnUse" x1="180.0668" y1="137.5548" x2="224.8823" y2="89.444" gradientTransform="matrix(0.9871 -0.1602 0.1602 0.9871 -9.1645 71.6197)">
		<stop  offset="0" style="stop-color:#6A9927"/>
		<stop  offset="0.1983" style="stop-color:#74A52E;stop-opacity:0.8017"/>
		<stop  offset="0.7007" style="stop-color:#8ABF3D;stop-opacity:0.2993"/>
		<stop  offset="1" style="stop-color:#92C943;stop-opacity:0"/>
	</linearGradient>
	<polygon class="st10" points="233.43,154.85 187.62,142.66 198.72,172.9 	"/>
	
		<linearGradient id="SVGID_6_" gradientUnits="userSpaceOnUse" x1="644.2434" y1="165.0879" x2="689.0621" y2="116.9737" gradientTransform="matrix(-0.3115 0.9502 -0.9502 -0.3115 684.693 -479.2631)">
		<stop  offset="0" style="stop-color:#6A9927"/>
		<stop  offset="0.1983" style="stop-color:#74A52E;stop-opacity:0.8017"/>
		<stop  offset="0.7007" style="stop-color:#8ABF3D;stop-opacity:0.2993"/>
		<stop  offset="1" style="stop-color:#92C943;stop-opacity:0"/>
	</linearGradient>
	<polygon class="st11" points="328.51,130.39 360.4,95.32 328.44,91.26 	"/>
	
		<linearGradient id="SVGID_7_" gradientUnits="userSpaceOnUse" x1="284.522" y1="166.0278" x2="356.6675" y2="88.5775" gradientTransform="matrix(0.3869 -0.9221 0.9221 0.3869 129.985 581.6935)">
		<stop  offset="0" style="stop-color:#6A9927"/>
		<stop  offset="0.1983" style="stop-color:#74A52E;stop-opacity:0.8017"/>
		<stop  offset="0.7007" style="stop-color:#8ABF3D;stop-opacity:0.2993"/>
		<stop  offset="1" style="stop-color:#92C943;stop-opacity:0"/>
	</linearGradient>
	<polygon class="st12" points="397.3,304.9 341.6,357.06 392.35,367.69 	"/>
	<linearGradient id="SVGID_8_" gradientUnits="userSpaceOnUse" x1="194.592" y1="97.5609" x2="245.2592" y2="97.5609">
		<stop  offset="0" style="stop-color:#004871"/>
		<stop  offset="0.8184" style="stop-color:#004871;stop-opacity:0"/>
	</linearGradient>
	<path class="st13" d="M194.59,109.94c0,0,51.1-2.52,50.66-3.25c-0.44-0.73-8.8-21.5-8.8-21.5L194.59,109.94z"/>
	
		<linearGradient id="SVGID_9_" gradientUnits="userSpaceOnUse" x1="645.3155" y1="241.2204" x2="687.9568" y2="241.2204" gradientTransform="matrix(-0.2961 0.9552 -0.9552 -0.2961 769.8259 -334.2831)">
		<stop  offset="0" style="stop-color:#004871"/>
		<stop  offset="0.8184" style="stop-color:#004871;stop-opacity:0"/>
	</linearGradient>
	<path class="st14" d="M333.34,206.05c0,0-1.17,44.74-0.34,44.54c0.82-0.21,18.99,1.37,18.99,1.37L333.34,206.05z"/>
	<g>
		<g>
			<polygon class="st3" points="268.63,74.56 189.81,58.66 202.79,86.38 			"/>
			<polygon class="st5" points="268.63,74.56 194.59,109.94 202.79,86.38 			"/>
		</g>
		<polygon class="st6" points="189.81,58.66 202.79,86.38 194.59,109.94 		"/>
	</g>
	<g>
		<g>
			<polygon class="st2" points="444.44,257.62 333.47,205.47 359.98,258.66 			"/>
			<polygon class="st0" points="444.44,257.62 351.98,295.7 359.98,258.66 			"/>
		</g>
		<polygon class="st1" points="333.47,205.47 351.98,295.7 359.98,258.66 		"/>
	</g>
</g>
<rect class="st15" width="536.37" height="379.71"/>
</svg>
