<?xml version="1.0" encoding="utf-8"?>
<!-- Generator: Adobe Illustrator 24.3.0, SVG Export Plug-In . SVG Version: 6.00 Build 0)  -->
<svg version="1.1" id="Слой_1" xmlns="http://www.w3.org/2000/svg" xmlns:xlink="http://www.w3.org/1999/xlink" x="0px" y="0px"
	 viewBox="0 0 125.8 49.5" style="enable-background:new 0 0 125.8 49.5;" xml:space="preserve">
<style type="text/css">
	.st0{opacity:0.1;}
	.st1{fill:#4D6BAC;}
	.st2{fill:url(#SVGID_1_);}
	.st3{fill:url(#SVGID_2_);}
	.st4{fill:url(#SVGID_3_);}
	.st5{fill:url(#SVGID_4_);}
	.st6{fill:#36588E;}
	.st7{fill:#FFFFFF;}
	.st8{fill:none;stroke:#FFFFFF;stroke-width:0.8;stroke-miterlimit:10;}
	.st9{opacity:0.1;}
	.st10{opacity:0.1;}
	.st11{opacity:0.1;}
</style>
<g class="st0">
	<g id="Слой_1_1_">
		<path class="st1" d="M-352,28.8c0.6-1.6,0.6-3.3,0-4.9c-0.6-1.5-0.3-3.2,0.9-4.3c1.2-1.2,1.9-2.8,1.9-4.5c0-1.6,1-3,2.5-3.6
			c1.6-0.7,2.8-1.9,3.5-3.5c0.6-1.5,2.1-2.5,3.7-2.5c1.7,0,3.4-0.7,4.6-1.9c1.2-1.1,2.9-1.4,4.3-0.8c1.6,0.6,3.4,0.6,5,0
			c1.5-0.6,3.2-0.3,4.3,0.8c1.2,1.2,2.9,1.9,4.6,1.9c1.6,0,3.1,1,3.7,2.5c0.7,1.6,2,2.8,3.5,3.5c1.5,0.6,2.4,2,2.5,3.6
			c0,1.7,0.7,3.3,1.9,4.5c1.1,1.1,1.5,2.8,0.9,4.3c-0.6,1.6-0.6,3.3,0,4.9c0.6,1.5,0.3,3.2-0.9,4.3c-1.2,1.2-1.9,2.8-1.9,4.5
			c0,1.6-1,3-2.5,3.6c-1.6,0.7-2.8,1.9-3.5,3.5c-0.6,1.5-2.1,2.5-3.7,2.5c-1.7,0-3.4,0.7-4.6,1.9c-1.1,1.1-2.9,1.5-4.3,0.9
			c-1.6-0.6-3.4-0.6-5,0c-1.5,0.6-3.2,0.3-4.3-0.9c-1.2-1.2-2.9-1.9-4.6-1.9c-1.6,0-3.1-1-3.7-2.5c-0.7-1.6-1.9-2.8-3.5-3.5
			c-1.5-0.6-2.5-2-2.5-3.6c0-1.7-0.7-3.3-1.9-4.5C-352.2,32-352.6,30.3-352,28.8z"/>
		
			<linearGradient id="SVGID_1_" gradientUnits="userSpaceOnUse" x1="-343.6746" y1="45.1493" x2="-312.7051" y2="10.4926" gradientTransform="matrix(1 0 0 -1 0 54.0148)">
			<stop  offset="0" style="stop-color:#9C7748"/>
			<stop  offset="6.000000e-02" style="stop-color:#A27E4B"/>
			<stop  offset="0.15" style="stop-color:#B19153"/>
			<stop  offset="0.25" style="stop-color:#CAB05F"/>
			<stop  offset="0.33" style="stop-color:#E1CC6B"/>
			<stop  offset="0.52" style="stop-color:#E6D68C"/>
			<stop  offset="0.66" style="stop-color:#E1CC6B"/>
			<stop  offset="1" style="stop-color:#9C7748"/>
		</linearGradient>
		<path class="st2" d="M-306.8,26.4c-0.1,11.6-9.6,21-21.3,20.9c-11.6,0.1-21.2-9.3-21.3-20.9c0.1-11.6,9.6-21,21.3-20.9
			C-316.4,5.3-306.9,14.7-306.8,26.4z"/>
		
			<linearGradient id="SVGID_2_" gradientUnits="userSpaceOnUse" x1="-336.0714" y1="19.6091" x2="-302.5757" y2="53.1049" gradientTransform="matrix(1 0 0 -1 0 54.0148)">
			<stop  offset="0" style="stop-color:#252A38"/>
			<stop  offset="0.21" style="stop-color:#282E3D"/>
			<stop  offset="0.47" style="stop-color:#2F394C"/>
			<stop  offset="0.76" style="stop-color:#3C4B65"/>
			<stop  offset="1" style="stop-color:#4A5F80"/>
		</linearGradient>
		<path class="st3" d="M-309.2,26.4c-0.1,10.3-8.5,18.6-18.8,18.5c-10.3,0.1-18.7-8.2-18.8-18.5c0.1-10.3,8.5-18.6,18.8-18.5
			C-317.7,7.8-309.3,16-309.2,26.4z"/>
		
			<linearGradient id="SVGID_3_" gradientUnits="userSpaceOnUse" x1="-348.0079" y1="27.6704" x2="-308.1024" y2="27.6704" gradientTransform="matrix(1 0 0 -1 0 54.0148)">
			<stop  offset="0" style="stop-color:#9C7748"/>
			<stop  offset="6.000000e-02" style="stop-color:#A27E4B"/>
			<stop  offset="0.15" style="stop-color:#B19153"/>
			<stop  offset="0.25" style="stop-color:#CAB05F"/>
			<stop  offset="0.33" style="stop-color:#E1CC6B"/>
			<stop  offset="0.52" style="stop-color:#E6D68C"/>
			<stop  offset="0.66" style="stop-color:#E1CC6B"/>
			<stop  offset="1" style="stop-color:#9C7748"/>
		</linearGradient>
		<path class="st4" d="M-328.1,7.1c10.7-0.1,19.4,8.5,19.5,19.2c-0.1,10.7-8.8,19.3-19.5,19.2c-10.7,0.1-19.4-8.5-19.5-19.2
			C-347.5,15.7-338.8,7.1-328.1,7.1 M-328.1,6.7c-10.9-0.1-19.9,8.7-20,19.6c0.1,10.9,9,19.7,20,19.6c10.9,0.1,19.8-8.7,19.9-19.6
			C-308.2,15.4-317.1,6.6-328.1,6.7z"/>
		
			<linearGradient id="SVGID_4_" gradientUnits="userSpaceOnUse" x1="-314.9044" y1="26.8383" x2="-343.1269" y2="29.847" gradientTransform="matrix(1 0 0 -1 0 54.0148)">
			<stop  offset="0" style="stop-color:#A6A6A6"/>
			<stop  offset="5.000000e-02" style="stop-color:#8D8D8D"/>
			<stop  offset="0.14" style="stop-color:#686868"/>
			<stop  offset="0.23" style="stop-color:#484848"/>
			<stop  offset="0.33" style="stop-color:#2F2F2F"/>
			<stop  offset="0.44" style="stop-color:#1B1B1B"/>
			<stop  offset="0.57" style="stop-color:#0D0D0D"/>
			<stop  offset="0.73" style="stop-color:#040404"/>
			<stop  offset="1" style="stop-color:#020202"/>
		</linearGradient>
		<path class="st5" d="M-336.8,42.1c5.2-10.8,11.4-21.2,18.4-30.9c-2.8-1.7-6-2.5-9.3-2.5c-10-0.1-18.1,7.9-18.2,17.9
			C-345.9,33-342.5,38.9-336.8,42.1z"/>
		<ellipse class="st6" cx="-328" cy="26.5" rx="18.8" ry="18.6"/>
		<ellipse class="st7" cx="-328" cy="26.4" rx="14.1" ry="14.2"/>
		<path class="st6" d="M-317.3,28.2c-0.4,1.3-1.1,2.4-2,3.4c-1,0.9-2.1,1.6-3.3,2.2l0,0c-0.1,0-0.2,0-0.3,0c-0.1,0,0-0.1-0.1-0.2
			c-0.1-0.1,0.1-0.1,0.2-0.1c0.1,0,0.3,0,0.4-0.1c0.2,0,0.4-0.1,0.6-0.2c0.6-0.4,1-0.6,1.1-0.7c0.4-0.3,0.9-0.7,1.3-1
			C-318.6,30.5-317.8,29.4-317.3,28.2z"/>
		<ellipse class="st8" cx="-328.1" cy="26.4" rx="18.2" ry="18"/>
		<path class="st6" d="M-338.8,26.2l-1.5,0.7l1.3,3.1l1.9-0.7l1.6,1.9l-1.1,1.1l4.4,2.3l1.1-1.5l3,0.3l0,1.8h5v-1.8l0.4,0.2V37
			l-5.4,0.2v-1.9l-2.7-0.1l-1.2,1.6l-4.5-2.2l-0.1-2.2c-0.4-0.4-0.5-0.8-0.9-1.2L-339,32l-2-4.8l0.4-0.4l1.7-0.8L-338.8,26.2z"/>
		<path class="st6" d="M-338.6,27.1v-8.8h5.6v1.5h-3.7v2h1.7c0.8,0,1.5,0.2,2.1,0.6c0.5,0.4,0.9,1.1,0.8,1.8c0,0.8-0.3,1.5-0.8,2
			c-0.6,0.5-1.5,0.8-2.3,0.7L-338.6,27.1z M-336.7,23.3v2.5h1.2c1,0,1.4-0.4,1.4-1.3c0-0.8-0.5-1.2-1.4-1.2L-336.7,23.3z"/>
		<path class="st6" d="M-324.6,19.7h-2.9v6.6h-2.2v-6.6h-2.9v-1.4h8.1V19.7z"/>
		<path class="st6" d="M-316.2,27.1h-2.4l-2.7-3.8c-0.1-0.1-0.2-0.3-0.2-0.5l0,0v4.3h-1.9v-8.8h1.9v4.2l0,0c0.1-0.2,0.2-0.3,0.3-0.5
			l2.5-3.7h2.2l-3.1,4.2L-316.2,27.1z"/>
		<path class="st7" d="M-317.5,15c0-0.1,0.1-0.3,0.3-0.3c0.1-0.1,0.3-0.1,0.5-0.1c0.1,0,0.2,0.1,0.2,0.2c0.1,0.1,0.1,0.2,0.2,0.3
			c0.1,0.1,0.1,0.1,0.2,0.1c0.1,0,0.1-0.1,0.1-0.1c0.1-0.3,0.4-0.5,0.7-0.4c0.1,0.1-0.1,0.7-0.4,0.8c-0.1,0-0.1,0.1-0.1,0.1
			c0,0.1,0,0.2,0.1,0.3c0.1,0.1,0.2,0.1,0.3,0.2c0,0.1,0.1,0.1,0.1,0.2c0.1,0.2,0,0.4-0.1,0.6c0,0.1-0.1,0.2-0.2,0.2
			c-0.3,0.1-0.6,0.1-0.8-0.2c-0.1-0.1-0.1-0.3,0-0.4c0,0,0,0,0.1,0c0,0,0.1,0.1,0.1,0.2c0,0.1,0.1,0.1,0.2,0.2c0.1,0,0.2,0,0.2,0
			c0.1,0,0.1-0.1,0.1-0.1c0-0.1,0-0.2,0-0.3c-0.1-0.2-0.3-0.2-0.5-0.2c-0.2,0-0.5,0.2-0.6,0.4c-0.1,0.3,0.1,0.5,0,0.6
			c-0.1,0-0.1,0-0.5-0.4s-0.4-0.5-0.4-0.6c0,0,0.3,0.1,0.5,0c0.2-0.1,0.4-0.3,0.5-0.5c0-0.1,0-0.3-0.1-0.4c0-0.1-0.1-0.1-0.2-0.2
			c-0.1,0-0.3,0.1-0.3,0.2c0,0,0,0,0,0c0,0.1,0,0.3,0.1,0.3c0,0,0.1,0,0.1,0.1c0,0,0,0.1,0,0.1c0,0-0.2,0.1-0.3,0
			c-0.1,0-0.2-0.1-0.3-0.2C-317.5,15.2-317.6,15.1-317.5,15z"/>
		<path class="st7" d="M-321.2,12.4c0-0.3,0.3-0.6,0.6-0.6c0.1,0,0.2,0,0.3,0.1c0.1,0.1,0.1,0.2,0.3,0.3c0.1,0.1,0.2,0.1,0.3,0.1
			c0,0,0.1-0.1,0.1-0.1c0-0.3,0.5-0.6,0.6-0.6c0.1,0,0.1,0.7-0.2,0.8c0,0-0.1,0.1-0.1,0.1c0,0.1,0,0.2,0.1,0.2
			c0.1,0.1,0.2,0.1,0.4,0.2c0.1,0,0.1,0.1,0.1,0.2c0.1,0.2,0.1,0.4,0,0.6c0,0.1-0.1,0.2-0.2,0.2c-0.2,0.2-0.6,0.2-0.8,0
			c-0.1-0.1-0.1-0.3-0.1-0.4c0,0,0,0,0.1,0c0,0,0.1,0,0.2,0.1c0.1,0.1,0.1,0.1,0.2,0.1c0.1,0,0.2,0,0.2,0c0.1,0,0.1-0.1,0.1-0.2
			c0-0.1,0-0.2-0.1-0.3c-0.1-0.1-0.3-0.2-0.5-0.1c-0.2,0.1-0.4,0.3-0.5,0.5c0,0.3,0.2,0.5,0.1,0.6c-0.1,0.1-0.1,0-0.6-0.3
			s-0.5-0.4-0.5-0.5c0,0,0.3,0,0.5-0.1c0.2-0.1,0.4-0.4,0.4-0.6c0-0.1,0-0.3-0.1-0.4c-0.1-0.1-0.2-0.1-0.2-0.1c-0.1,0-0.1,0-0.2,0.1
			c0,0-0.1,0.1-0.1,0.2c0,0.1,0.1,0.3,0.2,0.3c0,0,0.1,0,0.1,0c0,0,0,0.1,0,0.1c0,0-0.1,0.1-0.2,0.1c-0.1,0-0.2-0.1-0.3-0.2
			C-321.2,12.8-321.2,12.6-321.2,12.4z"/>
		<path class="st7" d="M-325.3,11.3c-0.1-0.1-0.1-0.3,0-0.4c0.1-0.2,0.2-0.3,0.3-0.4c0.1,0,0.2,0,0.3,0c0.2,0,0.2,0.1,0.3,0.1
			c0.1,0,0.2,0,0.3-0.1c0-0.1,0-0.1,0-0.2c-0.1-0.3,0.1-0.6,0.3-0.8c0.1,0,0.3,0.6,0.1,0.9c0,0,0,0.1,0,0.2c0,0.1,0.2,0.2,0.2,0.2
			c0.2,0,0.2,0,0.4,0c0.1,0,0.1,0,0.2,0.1c0.2,0.1,0.2,0.3,0.3,0.5c0,0.1,0,0.2,0,0.3c-0.1,0.3-0.4,0.4-0.7,0.3
			c-0.1-0.1-0.2-0.2-0.2-0.3c0,0,0-0.1,0-0.1s0.1,0,0.2,0c0.1,0,0.1,0,0.2,0c0.1,0,0.2-0.1,0.2-0.1c0-0.1,0-0.1,0-0.2
			c0-0.1-0.1-0.2-0.2-0.2c-0.2-0.1-0.4,0-0.5,0.1c-0.2,0.2-0.3,0.4-0.2,0.7c0.1,0.3,0.4,0.4,0.3,0.5c0,0.1-0.1,0-0.6-0.1
			s-0.7-0.2-0.7-0.2s0.3-0.1,0.4-0.3c0.1-0.2,0.2-0.5,0.1-0.7c-0.1-0.1-0.2-0.2-0.3-0.3c-0.1,0-0.2,0-0.3,0c-0.1,0-0.1,0.1-0.1,0.2
			c0,0.1,0,0.1,0,0.2c0.1,0.1,0.2,0.2,0.3,0.2c0,0,0.1,0,0.1,0c0,0,0.1,0,0.1,0.1c0,0.1-0.1,0.1-0.2,0.2c-0.1,0-0.2,0-0.4,0
			C-325.2,11.5-325.3,11.4-325.3,11.3z"/>
		<path class="st7" d="M-329.6,11.2c-0.1-0.1-0.1-0.3-0.1-0.4c0-0.3,0.2-0.5,0.5-0.5c0.2,0,0.2,0,0.4,0c0.2,0,0.2,0,0.2-0.1
			c0-0.1,0-0.1,0-0.2c-0.1-0.3-0.1-0.6,0.1-0.8c0.1,0,0.5,0.5,0.3,0.8c0,0.1,0,0.1,0,0.2c0.1,0.1,0.1,0.1,0.2,0.1
			c0.2,0,0.2-0.1,0.4-0.1c0.1,0,0.1,0,0.2,0c0.2,0.1,0.3,0.2,0.4,0.4c0,0.1,0,0.2,0,0.3c-0.1,0.3-0.3,0.5-0.6,0.5
			c-0.1,0-0.3-0.1-0.3-0.3c0-0.1,0-0.1,0-0.1s0.1,0,0.2,0c0.1,0,0.1,0,0.2,0c0.1,0,0.1-0.1,0.2-0.2c0-0.1,0-0.1,0-0.2
			c0-0.1-0.1-0.2-0.2-0.2c-0.2,0-0.4,0.1-0.5,0.3c-0.1,0.2-0.2,0.5-0.1,0.7c0.1,0.3,0.4,0.3,0.4,0.4c0,0.1-0.1,0.1-0.6,0.1
			c-0.5,0-0.7,0-0.7,0c0,0,0.2-0.1,0.4-0.4c0.1-0.2,0.1-0.5-0.1-0.7c-0.1-0.1-0.2-0.2-0.4-0.2c-0.1,0-0.2,0-0.3,0.1
			c-0.1,0-0.1,0.1-0.1,0.2c0,0.1,0,0.1,0,0.2c0.1,0.1,0.2,0.2,0.3,0.1c0,0,0.1,0,0.1,0c0,0,0.1,0,0.1,0c0,0.1-0.1,0.2-0.1,0.2
			c-0.1,0.1-0.2,0.1-0.4,0.1C-329.4,11.4-329.5,11.3-329.6,11.2z"/>
		<ellipse class="st7" cx="-315.1" cy="17.5" rx="0.2" ry="0.3"/>
		<ellipse class="st7" cx="-318.1" cy="14.3" rx="0.2" ry="0.3"/>
		<ellipse class="st7" cx="-321.8" cy="11.9" rx="0.2" ry="0.3"/>
		<ellipse class="st7" cx="-326.1" cy="10.8" rx="0.2" ry="0.3"/>
		<path class="st7" d="M-315,18.4c0.1-0.1,0.2-0.2,0.3-0.3c0.2-0.1,0.3-0.1,0.5,0c0.1,0.1,0.1,0.1,0.2,0.2c0.1,0.1,0,0.2,0.1,0.3
			c0.1,0.1,0.1,0.2,0.2,0.2c0.1,0,0.1,0,0.1-0.1c0.2-0.2,0.5-0.4,0.8-0.3c0.1,0.1-0.2,0.7-0.5,0.7c0,0-0.1,0-0.1,0.1
			c0,0.1,0,0.2,0,0.3c0.1,0.2,0.2,0.1,0.3,0.3c0,0.1,0,0.1,0.1,0.2c0,0.2-0.1,0.4-0.2,0.5c-0.1,0.1-0.1,0.1-0.2,0.1
			c-0.3,0.1-0.6-0.1-0.7-0.3c-0.1-0.1,0-0.3,0.1-0.4c0,0,0.1,0,0.1,0c0,0,0,0.1,0.1,0.2c0,0.1,0.1,0.1,0.1,0.2
			c0.1,0,0.1,0.1,0.2,0.1c0.1,0,0.1,0,0.2-0.1c0.1-0.1,0.1-0.2,0.1-0.3c-0.1-0.2-0.2-0.3-0.4-0.3c-0.2,0-0.5,0.1-0.6,0.3
			c-0.2,0.3,0,0.5-0.1,0.6c-0.1,0-0.1-0.1-0.4-0.5c-0.3-0.5-0.3-0.6-0.3-0.7c0,0,0.2,0.2,0.5,0.1c0.3,0,0.5-0.2,0.6-0.4
			c0.1-0.1,0.1-0.3,0-0.4c0-0.1-0.1-0.2-0.2-0.2c-0.1,0-0.1,0-0.2,0c-0.1,0-0.1,0.1-0.1,0.1c0,0.1,0,0.3,0.1,0.4
			c0,0,0.1,0.1,0.1,0.1c0,0,0,0.1,0,0.1s-0.2,0-0.3,0c-0.1-0.1-0.2-0.2-0.2-0.3C-315.1,18.7-315,18.5-315,18.4z"/>
		<path class="st7" d="M-313,22.3c0.1-0.1,0.3-0.1,0.4-0.1c0.2,0,0.3,0.1,0.4,0.2c0.1,0.1,0.1,0.2,0.1,0.3c0,0.2,0,0.2,0,0.4
			c0,0.2,0,0.2,0.1,0.2c0,0,0.1,0,0.2,0c0.3-0.2,0.6-0.1,0.8,0.1c0,0.1-0.5,0.5-0.7,0.4c0,0-0.1,0-0.1,0c-0.1,0.1-0.1,0.2-0.1,0.3
			c0,0.2,0.1,0.2,0.1,0.4c0,0.1,0,0.1,0,0.2c-0.1,0.2-0.2,0.3-0.4,0.4c-0.1,0-0.2,0.1-0.3,0c-0.3,0-0.5-0.3-0.5-0.6
			c0-0.1,0.1-0.3,0.2-0.3c0,0,0.1,0,0.1,0c0,0,0,0.1,0,0.2c0,0.1,0,0.1,0,0.2c0,0.1,0.1,0.2,0.2,0.2c0.1,0,0.1,0,0.2,0
			c0.1-0.1,0.1-0.1,0.1-0.2c0-0.2-0.2-0.4-0.3-0.5c-0.2-0.1-0.5-0.1-0.7,0c-0.2,0.2-0.2,0.5-0.3,0.5c-0.1,0-0.1-0.1-0.2-0.7
			c-0.1-0.5-0.1-0.7,0-0.7c0.1,0,0.1,0.2,0.4,0.3c0.2,0.1,0.5,0,0.7-0.1c0.1-0.1,0.2-0.2,0.2-0.4c0-0.1,0-0.2-0.1-0.3
			c0,0-0.1-0.1-0.2-0.1c-0.1,0-0.1,0-0.2,0.1c-0.1,0.1-0.1,0.2-0.1,0.4c0,0,0,0.1,0,0.1c0,0,0,0.1,0,0.1c0,0-0.2,0-0.2-0.1
			c-0.1-0.1-0.1-0.2-0.1-0.4C-313.2,22.6-313.1,22.5-313,22.3z"/>
		<path class="st7" d="M-312.6,27.1c0.1-0.1,0.3-0.1,0.4,0c0.1,0.1,0.3,0.2,0.3,0.4c0,0.1,0,0.2,0,0.3c0,0.2-0.1,0.2-0.1,0.4
			c0,0.1,0,0.2,0.1,0.3c0,0,0.1,0,0.2,0c0.3-0.1,0.8,0.2,0.7,0.3c0,0.1-0.6,0.4-0.8,0.2c0,0-0.1,0-0.1,0c-0.1,0-0.1,0.2-0.2,0.2
			c0,0.2,0,0.2,0,0.4c0,0.1,0,0.1-0.1,0.2c-0.1,0.2-0.3,0.3-0.5,0.3c-0.1,0-0.2,0-0.3,0c-0.3-0.1-0.4-0.4-0.3-0.7
			c0-0.1,0.2-0.2,0.3-0.3c0,0,0,0,0.1,0s0,0.1,0,0.2c0,0.1,0,0.2,0,0.2c0,0.1,0.1,0.1,0.1,0.2c0.1,0,0.1,0,0.2,0
			c0.1,0,0.1-0.1,0.2-0.1c0.1-0.2,0-0.4-0.1-0.5c-0.2-0.2-0.4-0.3-0.6-0.2c-0.3,0.1-0.4,0.4-0.4,0.4c-0.1,0,0-0.1,0.1-0.7
			c0.1-0.5,0.1-0.7,0.2-0.7c0,0,0.1,0.3,0.3,0.4c0.2,0.2,0.5,0.2,0.7,0.1c0.1-0.1,0.2-0.2,0.3-0.3c0-0.1,0-0.2,0-0.3
			c0-0.1-0.1-0.1-0.1-0.1c-0.1,0-0.1,0-0.2,0c-0.1,0.1-0.2,0.2-0.2,0.3c0,0,0,0.1,0,0.1c0,0,0,0.1-0.1,0.1c-0.1,0-0.1-0.1-0.2-0.2
			c0-0.1,0-0.3,0-0.4C-312.9,27.3-312.7,27.2-312.6,27.1z"/>
		<path class="st7" d="M-313.4,31.4c0.1,0,0.3,0.1,0.4,0.2c0.1,0.1,0.2,0.3,0.2,0.4c0,0.1,0,0.2-0.1,0.3c-0.1,0.2-0.1,0.2-0.2,0.3
			c0,0.1,0,0.2,0,0.3c0,0,0.1,0.1,0.1,0.1c0.3-0.1,0.7,0.4,0.6,0.5c0,0.1-0.7,0.2-0.8-0.1c0,0-0.1-0.1-0.1-0.1
			c-0.1,0-0.2,0.1-0.2,0.2c-0.1,0.1,0,0.2-0.1,0.4c0,0.1-0.1,0.1-0.1,0.2c-0.2,0.1-0.3,0.2-0.5,0.1c-0.1,0-0.2-0.1-0.3-0.1
			c-0.2-0.2-0.3-0.6-0.1-0.8c0.1-0.1,0.3-0.2,0.4-0.1c0,0,0.1,0,0.1,0.1c0,0,0,0.1-0.1,0.2c0,0.1-0.1,0.1-0.1,0.2
			c0,0.1,0,0.2,0.1,0.2c0,0,0.1,0.1,0.2,0.1c0.1,0,0.2,0,0.3-0.1c0.1-0.2,0.1-0.4,0-0.6c-0.1-0.2-0.3-0.4-0.6-0.4
			c-0.3,0-0.5,0.3-0.5,0.2c-0.1-0.1,0-0.1,0.2-0.6c0.2-0.5,0.3-0.6,0.4-0.6c0,0,0,0.3,0.2,0.5c0.1,0.2,0.4,0.3,0.6,0.3
			c0.2,0,0.3-0.1,0.4-0.3c0.1-0.1,0.1-0.2,0.1-0.3c0-0.1-0.1-0.1-0.1-0.2c-0.1,0-0.1-0.1-0.2,0c-0.1,0-0.2,0.1-0.3,0.2
			c0,0,0,0.1,0,0.1c0,0,0,0.1-0.1,0.1c-0.1,0-0.1-0.1-0.1-0.2c0-0.1,0-0.3,0.1-0.4C-313.6,31.4-313.5,31.4-313.4,31.4z"/>
		<path class="st7" d="M-315.5,35.5c0.1,0,0.3,0.1,0.3,0.2c0.1,0.1,0.2,0.3,0.1,0.5c0,0.1-0.1,0.2-0.1,0.3c-0.1,0.1-0.2,0.1-0.3,0.3
			c-0.1,0.1-0.1,0.2-0.1,0.3c0,0.1,0.1,0.1,0.1,0.1c0.3,0,0.6,0.6,0.5,0.7c-0.1,0.1-0.7,0-0.8-0.3c0,0-0.1-0.1-0.1-0.1
			c-0.1,0-0.2,0-0.2,0.1c-0.1,0.1-0.1,0.2-0.2,0.4c0,0.1-0.1,0.1-0.2,0.1c-0.2,0.1-0.4,0.1-0.5,0c-0.1,0-0.2-0.1-0.2-0.2
			c-0.2-0.3-0.1-0.6,0.1-0.8c0.1-0.1,0.3-0.1,0.4-0.1c0,0,0,0,0,0.1c0,0-0.1,0.1-0.1,0.2c-0.1,0-0.1,0.1-0.1,0.2c0,0.1,0,0.2,0,0.2
			c0,0.1,0.1,0.1,0.1,0.1c0.1,0,0.2,0,0.3-0.1c0.1-0.1,0.2-0.4,0.1-0.5c0-0.2-0.2-0.4-0.5-0.5c-0.3-0.1-0.5,0.1-0.6,0.1
			c0-0.1,0-0.1,0.4-0.6c0.4-0.4,0.5-0.5,0.5-0.5c0,0-0.1,0.3,0,0.5c0.1,0.2,0.3,0.4,0.6,0.4c0.1,0,0.3,0,0.4-0.1
			c0.1-0.1,0.1-0.1,0.1-0.2c0-0.1,0-0.1-0.1-0.2c0,0-0.1-0.1-0.2-0.1c-0.1,0-0.3,0.1-0.3,0.2c0,0,0,0.1-0.1,0.1c0,0,0,0.1-0.1,0
			c0-0.1-0.1-0.2-0.1-0.3c0-0.1,0.1-0.2,0.2-0.3C-315.9,35.5-315.7,35.5-315.5,35.5z"/>
		<path class="st7" d="M-318.6,38.7c0.1,0.1,0.2,0.2,0.3,0.3c0.1,0.2,0.1,0.3,0,0.5c0,0.1-0.1,0.2-0.2,0.2c-0.1,0.1-0.2,0.1-0.3,0.2
			c-0.1,0.1-0.1,0.1-0.1,0.2c0,0.1,0,0.1,0.1,0.1c0.3,0.2,0.4,0.5,0.3,0.8c-0.1,0.1-0.7-0.2-0.7-0.5c0-0.1,0-0.1-0.1-0.1
			c-0.1,0-0.2,0-0.3,0c-0.1,0.1-0.1,0.2-0.3,0.3c-0.1,0-0.1,0.1-0.2,0.1c-0.2,0-0.4,0-0.5-0.2c-0.3-0.2-0.3-0.6-0.1-0.9
			c0,0,0.1-0.1,0.1-0.1c0.1-0.1,0.3-0.1,0.4,0c0,0,0,0.1,0,0.1c0,0-0.1,0.1-0.2,0.1c-0.1,0-0.1,0.1-0.2,0.1c0,0.1,0,0.2,0,0.2
			c0,0.1,0.1,0.1,0.1,0.2c0.1,0,0.2,0,0.3,0c0.2-0.1,0.3-0.3,0.3-0.5c0-0.3-0.1-0.5-0.3-0.6c-0.3-0.1-0.5,0-0.5-0.1s0-0.1,0.5-0.5
			c0.4-0.3,0.6-0.4,0.6-0.4c0,0-0.1,0.3-0.1,0.5c0,0.2,0.2,0.5,0.4,0.5c0.1,0.1,0.3,0.1,0.4,0c0.1,0,0.1-0.1,0.2-0.2
			c0-0.1,0-0.1,0-0.2c0-0.1-0.1-0.1-0.1-0.1c-0.1,0-0.3,0-0.3,0.1c0,0,0,0.1-0.1,0.1c0,0-0.1,0-0.1,0c0,0,0-0.2,0-0.3
			c0-0.1,0.1-0.2,0.3-0.3C-318.9,38.6-318.7,38.6-318.6,38.7z"/>
		<path class="st7" d="M-322.6,40.7c0.1,0.1,0.2,0.2,0.2,0.4c0,0.2,0,0.3-0.1,0.5c-0.1,0.1-0.1,0.1-0.2,0.2c-0.2,0-0.2,0-0.3,0.1
			s-0.2,0.1-0.2,0.2c0,0.1,0,0.1,0,0.2c0.2,0.2,0.2,0.6,0.1,0.8c-0.1,0-0.6-0.4-0.5-0.7c0-0.1,0-0.1-0.1-0.1c-0.1-0.1-0.2,0-0.3,0
			c-0.2,0-0.2,0.2-0.3,0.2c-0.1,0-0.1,0-0.2,0c-0.2,0-0.4-0.1-0.4-0.3c-0.1-0.1-0.1-0.2-0.1-0.3c0-0.3,0.2-0.6,0.5-0.7
			c0.1,0,0.3,0,0.4,0.2c0,0,0,0.1,0,0.1c0,0-0.1,0-0.2,0.1c-0.1,0-0.1,0-0.2,0.1c-0.1,0.1-0.1,0.1-0.1,0.2c0,0.1,0,0.1,0.1,0.2
			c0.1,0.1,0.2,0.1,0.3,0.1c0.2,0,0.3-0.2,0.4-0.4c0.1-0.2,0-0.5-0.1-0.7c-0.2-0.2-0.5-0.2-0.5-0.3c0-0.1,0.1-0.1,0.6-0.3
			s0.7-0.2,0.7-0.2c0,0-0.2,0.2-0.2,0.5c0,0.3,0.1,0.5,0.3,0.7c0.1,0.1,0.3,0.1,0.4,0.1c0.1,0,0.2-0.1,0.2-0.1c0-0.1,0.1-0.1,0-0.2
			c0-0.1,0-0.1-0.1-0.2c-0.1-0.1-0.2-0.1-0.4,0c0,0-0.1,0.1-0.1,0.1c0,0-0.1,0-0.1,0c0,0,0-0.2,0.1-0.3c0.1-0.1,0.2-0.2,0.3-0.2
			C-322.9,40.6-322.8,40.6-322.6,40.7z"/>
		<path class="st7" d="M-327.2,41.7c0.1,0.1,0.1,0.3,0.1,0.4c0,0.2-0.1,0.3-0.3,0.4c-0.1,0-0.2,0.1-0.3,0.1c-0.2,0-0.2,0-0.4,0
			c-0.2,0-0.2,0-0.2,0.1c0,0.1,0,0.1,0,0.2c0.1,0.3,0.1,0.6-0.1,0.8c-0.3-0.2-0.4-0.5-0.3-0.8c0,0,0-0.1,0-0.1
			c-0.1-0.1-0.1-0.1-0.2-0.1c-0.2,0-0.2,0.1-0.4,0.1c-0.1,0-0.1,0-0.2,0c-0.2-0.1-0.3-0.2-0.4-0.4c0-0.1,0-0.2,0-0.3
			c0.1-0.3,0.3-0.5,0.6-0.5c0.1,0,0.3,0.1,0.3,0.3c0,0,0,0.1,0,0.1c0,0-0.1,0-0.2,0c-0.1,0-0.1,0-0.2,0c-0.1,0-0.1,0.1-0.2,0.2
			c0,0.1,0,0.1,0,0.2c0,0.1,0.1,0.2,0.2,0.2c0.2,0,0.4-0.1,0.5-0.3c0.1-0.2,0.2-0.5,0.1-0.7c-0.1-0.3-0.4-0.3-0.4-0.4
			c0-0.1,0.1-0.1,0.6-0.1c0.5,0,0.7,0,0.7,0s-0.2,0.1-0.4,0.4c-0.1,0.2-0.1,0.5,0.1,0.7c0.1,0.1,0.2,0.2,0.4,0.2
			c0.1,0,0.2,0,0.3-0.1c0.1-0.1,0.1-0.1,0.1-0.2c0-0.1,0-0.1,0-0.2c-0.1-0.1-0.2-0.2-0.3-0.1c0,0-0.1,0-0.1,0c0,0-0.1,0-0.1,0
			c0,0,0.1-0.2,0.1-0.2c0.1-0.1,0.2-0.1,0.4-0.1C-327.3,41.4-327.2,41.5-327.2,41.7z"/>
		<ellipse class="st7" cx="-313.1" cy="21.4" rx="0.2" ry="0.3"/>
		<ellipse class="st7" cx="-312.4" cy="26.1" rx="0.2" ry="0.3"/>
		<ellipse class="st7" cx="-312.8" cy="30.7" rx="0.2" ry="0.3"/>
		<ellipse class="st7" cx="-314.9" cy="34.8" rx="0.2" ry="0.3"/>
		<ellipse class="st7" cx="-318" cy="38.4" rx="0.2" ry="0.3"/>
		<ellipse class="st7" cx="-321.8" cy="40.9" rx="0.2" ry="0.3"/>
		<ellipse class="st7" cx="-326.1" cy="42" rx="0.2" ry="0.3"/>
		<path class="st7" d="M-338.5,15.2c-0.1-0.3-0.4-0.5-0.7-0.4c-0.1,0-0.2,0.1-0.2,0.2c-0.1,0.1-0.1,0.2-0.2,0.3
			c-0.1,0.1-0.1,0.1-0.2,0.1c-0.1,0-0.1-0.1-0.1-0.1c-0.1-0.3-0.4-0.5-0.7-0.4c-0.1,0.1,0.1,0.7,0.4,0.8c0,0,0.1,0.1,0.1,0.1
			c0,0.1,0,0.2-0.1,0.3c-0.1,0.1-0.2,0.1-0.3,0.2c0,0.1-0.1,0.1-0.1,0.2c0,0.2,0,0.4,0.1,0.6c0,0.1,0.1,0.2,0.2,0.2
			c0.3,0.1,0.6,0.1,0.7-0.2c0.1-0.1,0.1-0.3,0-0.4c0,0,0,0-0.1,0c0,0-0.1,0.1-0.1,0.2c0,0.1-0.1,0.1-0.1,0.2c-0.1,0-0.2,0-0.2,0
			c-0.1,0-0.1-0.1-0.1-0.1c0-0.1,0-0.2,0-0.3c0.1-0.2,0.3-0.3,0.5-0.2c0.2,0,0.5,0.2,0.5,0.4c0.1,0.3-0.1,0.5,0,0.6
			c0.1,0,0.1,0,0.5-0.4c0.3-0.4,0.4-0.5,0.4-0.6c0,0-0.2,0.1-0.5,0c-0.2-0.1-0.4-0.3-0.5-0.5c0-0.1,0-0.3,0.1-0.4
			c0-0.1,0.1-0.1,0.2-0.2c0.1,0,0.1,0,0.2,0c0,0,0.1,0.1,0.1,0.2c0,0.1,0,0.3-0.1,0.3c0,0-0.1,0-0.1,0.1c0,0,0,0.1,0,0.1
			c0,0,0.2,0.1,0.3,0c0.1,0,0.2-0.1,0.2-0.2C-338.5,15.5-338.5,15.3-338.5,15.2z"/>
		<path class="st7" d="M-335.1,12.6c0-0.2-0.1-0.3-0.2-0.4c-0.1-0.1-0.3-0.2-0.4-0.2c-0.1,0-0.2,0.1-0.2,0.1
			c-0.1,0.1-0.1,0.2-0.3,0.2c-0.1,0.1-0.2,0.1-0.3,0.1c0,0-0.1-0.1-0.1-0.1c0-0.3-0.5-0.6-0.6-0.6c-0.1,0-0.1,0.7,0.2,0.8
			c0,0,0.1,0.1,0.1,0.1c0,0.1,0,0.2-0.1,0.2c-0.1,0.1-0.2,0-0.3,0.2c-0.1,0-0.1,0.1-0.1,0.2c-0.1,0.2-0.1,0.4,0,0.6
			c0,0.1,0.1,0.2,0.2,0.2c0.2,0.2,0.5,0.2,0.8,0c0.1-0.1,0.1-0.3,0.1-0.4c0,0,0,0-0.1,0c-0.1,0-0.1,0-0.2,0.1c0,0.1-0.1,0.1-0.2,0.1
			c-0.1,0-0.2,0-0.2,0c-0.1,0-0.1-0.1-0.1-0.2c0-0.1,0-0.2,0.1-0.3c0.1-0.1,0.3-0.2,0.5-0.1c0.2,0.1,0.4,0.3,0.4,0.5
			c0,0.3-0.2,0.5-0.1,0.6c0.1,0.1,0.1,0,0.5-0.3s0.5-0.4,0.5-0.5c0,0-0.3,0-0.5-0.1c-0.2-0.1-0.3-0.4-0.3-0.6c0-0.1,0.1-0.3,0.2-0.4
			c0.1-0.1,0.1-0.1,0.2-0.1c0.1,0,0.1,0,0.2,0.1c0,0.1,0.1,0.1,0.1,0.2c0,0.1-0.1,0.3-0.2,0.3c0,0-0.1,0-0.1,0c0,0-0.1,0.1,0,0.1
			c0,0,0.1,0.1,0.2,0.1c0.1,0,0.2-0.1,0.3-0.2C-335.1,12.9-335.1,12.7-335.1,12.6z"/>
		<path class="st7" d="M-331.2,11.2c0-0.3-0.2-0.6-0.5-0.7c-0.1,0-0.2,0-0.3,0c-0.1,0-0.2,0.1-0.3,0.2c-0.1,0-0.2,0-0.3,0
			c0,0-0.1-0.1-0.1-0.1c0-0.3-0.1-0.6-0.4-0.7c-0.2,0.3-0.2,0.6,0,0.9c0,0,0,0.1,0,0.1c0,0.1-0.1,0.2-0.2,0.2c-0.1,0.1-0.2,0-0.4,0
			c-0.1,0-0.1,0.1-0.2,0.1c-0.1,0.1-0.2,0.3-0.2,0.5c0,0.1,0,0.2,0.1,0.3c0.1,0.3,0.5,0.4,0.7,0.2c0.1-0.1,0.2-0.2,0.2-0.4
			c0,0,0-0.1,0-0.1c0,0-0.1,0-0.2,0.1c-0.1,0-0.1,0.1-0.2,0.1c-0.1,0-0.2,0-0.2-0.1c0-0.1-0.1-0.1-0.1-0.2c0-0.1,0.1-0.2,0.1-0.3
			c0.2-0.1,0.4-0.1,0.5,0.1c0.2,0.1,0.3,0.4,0.3,0.6c0,0.3-0.3,0.4-0.2,0.5c0,0.1,0.1,0,0.6-0.1c0.5-0.1,0.6-0.3,0.6-0.3
			c0,0-0.3,0-0.5-0.2c-0.2-0.2-0.2-0.4-0.2-0.7c0-0.1,0.1-0.3,0.2-0.3c0.1,0,0.2,0,0.3,0c0.1,0,0.1,0.1,0.1,0.1
			c0.1,0.2,0,0.3-0.1,0.4c0,0-0.1,0-0.1,0c0,0-0.1,0-0.1,0c0,0-0.1,0-0.1,0.1s0.1,0.1,0.2,0.2c0.1,0,0.2,0,0.4-0.1
			C-331.3,11.6-331.2,11.4-331.2,11.2z"/>
		<ellipse class="st7" cx="-341.1" cy="17.7" rx="0.2" ry="0.3"/>
		<ellipse class="st7" cx="-338" cy="14.5" rx="0.2" ry="0.3"/>
		<ellipse class="st7" cx="-334.4" cy="12.2" rx="0.2" ry="0.3"/>
		<ellipse class="st7" cx="-330.4" cy="10.9" rx="0.2" ry="0.3"/>
		<path class="st7" d="M-341.3,18.6c-0.1-0.1-0.2-0.2-0.3-0.3c-0.2-0.1-0.3,0-0.5,0c-0.1,0.1-0.1,0.1-0.2,0.2
			c-0.1,0.1,0,0.2-0.1,0.3s-0.1,0.2-0.2,0.2c-0.1,0-0.1,0-0.1-0.1c-0.2-0.2-0.5-0.4-0.8-0.3c-0.1,0.1,0.2,0.7,0.5,0.7
			c0,0,0.1,0,0.1,0.1c0,0.1,0,0.2,0,0.3c-0.1,0.2-0.2,0.1-0.2,0.3c0,0.1,0,0.1,0,0.2c0,0.2,0.1,0.4,0.2,0.5c0.1,0.1,0.1,0.1,0.2,0.2
			c0.3,0.1,0.6-0.1,0.7-0.3c0-0.1,0-0.3-0.1-0.4c0,0,0,0-0.1,0s0,0.1-0.1,0.2c0,0.1-0.1,0.1-0.1,0.2c-0.1,0.1-0.1,0.1-0.2,0.1
			c-0.1,0-0.1-0.1-0.2-0.1c-0.1-0.1-0.1-0.2,0-0.3c0.1-0.2,0.2-0.3,0.4-0.3c0.2,0,0.5,0.1,0.6,0.3c0.2,0.3,0,0.5,0.1,0.6
			c0.1,0,0.1-0.1,0.4-0.5c0.3-0.5,0.3-0.6,0.3-0.7c0,0-0.2,0.2-0.5,0.1c-0.2,0-0.5-0.2-0.5-0.4c-0.1-0.1-0.1-0.3,0-0.4
			c0-0.1,0.1-0.2,0.2-0.2c0.1,0,0.1,0,0.2,0c0.1,0,0.1,0.1,0.1,0.1c0,0.1,0,0.3-0.1,0.4c0,0-0.1,0.1-0.1,0.1c0,0,0,0.1,0,0.1
			c0,0,0.2,0,0.3,0c0.1-0.1,0.2-0.2,0.2-0.3C-341.2,18.9-341.2,18.8-341.3,18.6z"/>
		<path class="st7" d="M-342.9,22.3c-0.1-0.1-0.3-0.1-0.4-0.1c-0.2,0-0.3,0.1-0.4,0.2c-0.1,0.1-0.1,0.2-0.1,0.3c0,0.2,0,0.2,0,0.4
			c0,0.2,0,0.2-0.1,0.2c0,0-0.1,0-0.1,0c-0.3-0.2-0.6-0.1-0.8,0.1c0,0.1,0.4,0.5,0.7,0.4c0,0,0.1,0,0.1,0c0.1,0.1,0.1,0.2,0.1,0.3
			c0,0.2-0.1,0.2-0.1,0.4c0,0.1,0,0.1,0,0.2c0.1,0.2,0.2,0.3,0.4,0.4c0.1,0,0.2,0.1,0.3,0c0.3,0,0.5-0.3,0.5-0.6
			c0-0.1-0.1-0.3-0.2-0.3c0,0-0.1,0-0.1,0c0,0,0,0.1,0,0.2c0,0.1,0,0.1,0,0.2c0,0.1-0.1,0.1-0.2,0.2c-0.1,0-0.1,0-0.2,0
			c-0.1-0.1-0.1-0.1-0.1-0.2c0-0.2,0.1-0.4,0.2-0.5c0.2-0.1,0.5-0.1,0.7,0c0.2,0.2,0.2,0.5,0.3,0.5c0.1,0,0.1-0.1,0.2-0.7
			s0.1-0.7,0-0.7c-0.1,0-0.1,0.2-0.4,0.3c-0.2,0.1-0.5,0-0.7-0.1c-0.1-0.1-0.2-0.2-0.2-0.4c0-0.1,0-0.2,0.1-0.3c0,0,0.1-0.1,0.2-0.1
			c0.1,0,0.1,0,0.2,0.1c0.1,0.1,0.1,0.2,0.1,0.4c0,0,0,0.1,0,0.1c0,0,0,0.1,0,0.1c0,0,0.2,0,0.2-0.1c0.1-0.1,0.1-0.2,0.1-0.4
			C-342.8,22.6-342.8,22.4-342.9,22.3z"/>
		<path class="st7" d="M-343.5,27.1c-0.1-0.1-0.3-0.1-0.4,0c-0.2,0.1-0.3,0.2-0.3,0.3c0,0.1,0,0.2,0,0.3c0,0.2,0.1,0.2,0.1,0.4
			c0,0.1,0,0.2-0.1,0.3c0,0-0.1,0-0.1,0c-0.3-0.1-0.7,0.2-0.7,0.3s0.6,0.4,0.8,0.2c0,0,0.1,0,0.1,0c0.1,0,0.1,0.2,0.2,0.2
			c0,0.2,0,0.2,0,0.4c0,0.1,0,0.1,0.1,0.2c0.1,0.2,0.3,0.3,0.5,0.3c0.1,0,0.2,0,0.3,0c0.3-0.1,0.4-0.4,0.3-0.7
			c0-0.1-0.2-0.3-0.3-0.3c0,0,0,0-0.1,0c0,0,0,0.1,0,0.2c0,0.1,0,0.1,0,0.2c0,0.1-0.1,0.2-0.1,0.2c-0.1,0-0.1,0-0.2,0
			c-0.1,0-0.2-0.1-0.2-0.2c0-0.2,0-0.3,0.2-0.5c0.1-0.2,0.4-0.3,0.6-0.2c0.3,0.1,0.4,0.4,0.4,0.3c0.1,0,0-0.1,0-0.7
			s-0.1-0.7-0.2-0.7c0,0-0.1,0.3-0.3,0.5c-0.2,0.1-0.5,0.2-0.7,0.1c-0.1-0.1-0.2-0.2-0.3-0.3c0-0.1,0-0.2,0-0.3
			c0-0.1,0.1-0.1,0.1-0.1c0.1,0,0.1,0,0.2,0c0.1,0.1,0.2,0.2,0.2,0.3c0,0,0,0.1,0,0.1c0,0,0,0.1,0.1,0.1c0.1,0,0.1-0.1,0.2-0.2
			c0-0.1,0-0.3,0-0.4C-343.2,27.3-343.4,27.2-343.5,27.1z"/>
		<path class="st7" d="M-342.6,31.4c-0.1,0-0.3,0.1-0.4,0.2c-0.1,0.1-0.2,0.3-0.2,0.4c0,0.1,0,0.2,0.1,0.3c0.1,0.1,0.1,0.1,0.2,0.3
			c0,0.1,0,0.2,0,0.3c0,0.1-0.1,0.1-0.1,0.1c-0.3,0-0.6,0.4-0.6,0.5c0,0.1,0.7,0.2,0.8-0.1c0,0,0.1-0.1,0.1-0.1
			c0.1,0,0.2,0.1,0.2,0.2c0,0,0,0.2,0.1,0.4c0,0.1,0.1,0.1,0.1,0.2c0.1,0.1,0.3,0.2,0.5,0.1c0.1,0,0.2-0.1,0.2-0.1
			c0.2-0.2,0.3-0.5,0.1-0.8c-0.1-0.1-0.2-0.2-0.4-0.1c0,0,0,0-0.1,0.1s0,0.1,0.1,0.2c0,0.1,0.1,0.1,0.1,0.2c0,0.1,0,0.2-0.1,0.2
			c0,0-0.1,0.1-0.2,0.1c-0.1,0-0.2,0-0.3-0.1c-0.1-0.2-0.1-0.4,0-0.6c0.1-0.2,0.3-0.4,0.5-0.4c0.3,0,0.4,0.3,0.5,0.2
			c0.1-0.1,0-0.1-0.2-0.6s-0.3-0.6-0.4-0.6c0,0,0,0.3-0.1,0.5c-0.1,0.2-0.4,0.3-0.6,0.3c-0.1,0-0.3-0.1-0.3-0.2
			c-0.1-0.1-0.1-0.2-0.1-0.3c0-0.1,0.1-0.1,0.1-0.2c0.1,0,0.1,0,0.2,0c0.1,0,0.2,0.1,0.3,0.3c0,0,0,0.1,0,0.1c0,0,0,0.1,0.1,0.1
			c0,0,0.1-0.1,0.1-0.2c0-0.1,0-0.3-0.1-0.4C-342.4,31.5-342.5,31.5-342.6,31.4z"/>
		<path class="st7" d="M-340.5,35.3c-0.1,0-0.3,0.1-0.3,0.2c-0.1,0.1-0.1,0.3-0.1,0.5c0,0.1,0.1,0.2,0.1,0.3
			c0.1,0.1,0.2,0.1,0.2,0.3c0.1,0.1,0.1,0.2,0.1,0.3c0,0.1-0.1,0.1-0.1,0.1c-0.3,0-0.5,0.6-0.5,0.7c0.1,0.1,0.7,0,0.8-0.3
			c0,0,0.1-0.1,0.1-0.1c0.1,0,0.2,0.1,0.2,0.1c0,0,0.1,0.2,0.2,0.4c0,0,0.1,0.1,0.2,0.1c0.2,0.1,0.4,0.1,0.5,0
			c0.1,0,0.2-0.1,0.2-0.2c0.2-0.3,0.1-0.6-0.1-0.8c-0.1-0.1-0.3-0.1-0.4-0.1c0,0,0,0,0,0.1c0,0,0.1,0.1,0.1,0.2
			c0.1,0,0.1,0.1,0.1,0.2c0,0.1,0,0.2,0,0.2c0,0.1-0.1,0.1-0.1,0.1c-0.1,0-0.2,0-0.3,0c-0.2-0.1-0.2-0.4-0.1-0.5
			c0-0.2,0.2-0.5,0.4-0.5c0.3-0.1,0.5,0.1,0.5,0.1c0-0.1,0-0.1-0.4-0.6s-0.4-0.5-0.5-0.5c0,0,0.1,0.3,0,0.6
			c-0.1,0.2-0.3,0.4-0.5,0.4c-0.1,0-0.3,0-0.4-0.1c-0.1-0.1-0.1-0.2-0.1-0.2c0-0.1,0-0.1,0.1-0.2c0,0,0.1-0.1,0.2-0.1
			c0.1,0,0.2,0.1,0.3,0.2c0,0,0,0.1,0.1,0.1c0,0,0,0,0.1,0c0,0,0.1-0.2,0.1-0.3c0-0.1-0.1-0.2-0.2-0.3
			C-340.2,35.4-340.4,35.3-340.5,35.3z"/>
		<path class="st7" d="M-337.4,38.6c-0.1,0.1-0.2,0.2-0.3,0.3c-0.1,0.2-0.1,0.5,0.2,0.7c0.1,0.1,0.2,0.1,0.3,0.2
			c0.1,0.1,0.1,0.1,0.1,0.2c0,0.1,0,0.1-0.1,0.1c-0.3,0.1-0.4,0.7-0.3,0.8s0.7-0.2,0.7-0.5c0-0.1,0-0.1,0.1-0.1c0.1-0.1,0.2,0,0.2,0
			c0,0,0.1,0.2,0.3,0.3c0.1,0,0.1,0.1,0.2,0.1c0.2,0,0.4,0,0.5-0.2c0.1-0.1,0.1-0.1,0.2-0.2c0.1-0.3,0-0.6-0.2-0.8
			c-0.1-0.1-0.3-0.1-0.4,0c0,0,0,0,0,0.1s0.1,0.1,0.2,0.1c0.1,0,0.1,0.1,0.2,0.1c0,0.1,0.1,0.2,0,0.2c0,0.1-0.2,0.2-0.3,0.2
			c0,0,0,0,0,0c-0.2-0.1-0.3-0.3-0.3-0.5c0-0.3,0.1-0.5,0.3-0.6c0.2-0.1,0.5,0,0.5-0.1c0-0.1-0.1-0.1-0.5-0.5
			c-0.4-0.3-0.6-0.4-0.6-0.4c0,0,0.1,0.2,0.1,0.5c0,0.2-0.2,0.5-0.4,0.5c-0.1,0.1-0.3,0.1-0.4,0c-0.1,0-0.1-0.1-0.2-0.2
			c0-0.1,0-0.1,0-0.2c0-0.1,0.1-0.1,0.1-0.1c0.1,0,0.3,0,0.3,0.1c0,0,0,0.1,0.1,0.1c0,0,0.1,0,0.1,0c0,0,0-0.2,0-0.3
			c0-0.1-0.1-0.2-0.3-0.3C-337.2,38.5-337.3,38.5-337.4,38.6z"/>
		<path class="st7" d="M-333.8,40.7c-0.1,0.1-0.2,0.3-0.2,0.4c0,0.2,0,0.3,0.1,0.5c0.1,0.1,0.1,0.1,0.2,0.2c0.1,0,0.2,0,0.3,0.1
			c0.1,0.1,0.2,0.1,0.2,0.2c0,0.1,0,0.1,0,0.2c-0.2,0.2-0.2,0.6-0.1,0.8c0.1,0,0.6-0.4,0.5-0.7c0-0.1,0-0.1,0-0.1
			c0.1-0.1,0.2,0,0.3,0c0.1,0,0.2,0.2,0.3,0.2c0.1,0,0.1,0,0.2,0c0.2,0,0.3-0.1,0.4-0.3c0-0.1,0.1-0.2,0.1-0.3
			c0-0.3-0.2-0.6-0.4-0.7c-0.1,0-0.3,0-0.4,0.2c0,0,0,0.1,0,0.1c0,0,0.1,0,0.2,0.1c0.1,0,0.1,0,0.2,0.1c0.1,0.1,0.1,0.1,0.1,0.2
			c0,0.1,0,0.1-0.1,0.2c-0.1,0.1-0.1,0.1-0.2,0.1c-0.2,0-0.3-0.2-0.4-0.4c-0.1-0.2-0.1-0.5,0.1-0.7c0.2-0.2,0.5-0.2,0.5-0.3
			c0-0.1-0.1-0.1-0.6-0.3s-0.6-0.2-0.7-0.2c0,0,0.2,0.2,0.2,0.5c0,0.3-0.1,0.5-0.3,0.7c-0.1,0.1-0.2,0.1-0.4,0.1
			c-0.1,0-0.2-0.1-0.2-0.1c0-0.1-0.1-0.1,0-0.2c0-0.1,0-0.1,0.1-0.2c0.1-0.1,0.2-0.1,0.4,0c0,0,0.1,0.1,0.1,0.1c0,0,0.1,0,0.1,0
			c0,0,0-0.2-0.1-0.3c-0.1-0.1-0.2-0.2-0.3-0.2C-333.6,40.6-333.7,40.6-333.8,40.7z"/>
		<ellipse class="st7" cx="-342.9" cy="21.6" rx="0.2" ry="0.3"/>
		<ellipse class="st7" cx="-343.6" cy="26.1" rx="0.2" ry="0.3"/>
		<ellipse class="st7" cx="-343.1" cy="30.8" rx="0.2" ry="0.3"/>
		<ellipse class="st7" cx="-341.2" cy="34.8" rx="0.2" ry="0.3"/>
		<ellipse class="st7" cx="-338.3" cy="38.2" rx="0.2" ry="0.3"/>
		<ellipse class="st7" cx="-334.7" cy="40.6" rx="0.2" ry="0.3"/>
		<ellipse class="st7" cx="-330.6" cy="41.7" rx="0.2" ry="0.3"/>
	</g>
</g>
<g class="st9">
	<path class="st1" d="M-170.5,46.8c-1-1.1-2.3-2.3-3.3-3.2c-0.3-0.2-0.5-0.4-0.6-0.5c-1-0.8-3.1-2.3-4.4-3.1
		c-2.7-1.6-4.8-2.4-6.8-2.8c-1.4-0.3-3.3-0.3-4.9-0.1c-2,0.3-4,0.9-6.1,1.9c-0.5,0.2-1.3,0.7-1.7,0.9c-0.1,0.1-0.2,0.1-0.2,0.1
		c0,0,0.1-0.2,0.2-0.4c1.3-2.4,1.5-5.9,0.5-8.9c-0.3-1.1-0.9-2.2-1.4-2.9l-0.2-0.3l-0.2,0.7c-0.9,3.5-3,6.9-5.8,9.3
		c-1.6,1.4-2.8,2.1-4.5,2.7c-3.1,1.1-6.7,0.8-9.7-0.7c-1.1-0.6-2-1.1-2.8-2c-1.4-1.4-2.2-2.9-2.8-5.4c-0.3-1.4-0.5-2.3-0.4-3.7
		c0-0.9,0-1.1,0.1-1.6c0.1-0.9,0.3-1.5,0.6-2.4c0.1-0.4,0.5-1.1,0.8-1.5c0.9-1.3,2-2.3,3.6-3.1c1.4-0.7,2.7-1,4.1-1
		c0.9,0,1.6,0.1,2.5,0.4c2.1,0.8,3.7,2.8,4.3,5.2c0.1,0.5,0.2,1.5,0.1,2c-0.2,1.5-1.1,3.1-2.3,4c-0.9,0.7-1.6,1-2.5,0.9
		c-1.1-0.1-1.9-0.7-2.4-1.7c-0.3-0.6-0.4-0.9-0.4-1.6c0-0.8,0.1-1.3,0.4-1.9c0.4-0.8,1.2-1.6,2.1-2.1c0.1-0.1,0.2-0.2,0.2-0.2
		s-0.2-0.1-0.5-0.2c-1.8-0.6-3.5-0.5-4.7,0.3c-1.4,0.9-2.4,3-2.4,5.1c0,3.2,2.5,6.4,5.8,7.3c0.7,0.2,1,0.2,2,0.2c0.8,0,1,0,1.4-0.1
		c1.1-0.2,2-0.5,3-1c1.1-0.6,1.8-1.1,2.6-2c0.9-0.9,1.5-1.7,2-2.8c1.1-2.2,1.5-4.8,1.1-7.4c-0.4-2.5-1.4-4.8-3.1-6.6
		c-1.4-1.5-3.1-2.6-5.1-3.3c-1.4-0.5-2.5-0.7-3.9-0.7c-2.1-0.1-4.1,0.4-6,1.4c-0.8,0.4-1.9,1.1-2.3,1.5c-0.1,0.1-0.1,0.1-0.2,0.1
		c0,0,0-0.1,0.1-0.2c0.1-0.3,0.4-1.4,0.5-1.8c0.2-1.3,0.2-2.6-0.1-3.6c-0.3-1.2-1.2-2.8-2.5-4.4c-0.5-0.5-1.5-1.6-1.6-1.6
		s-0.9,0.9-1.4,1.4c-1.3,1.4-2.2,2.9-2.6,4.1c-0.3,0.8-0.4,1.7-0.3,2.8c0,1.1,0.2,2,0.5,2.9c0.1,0.2,0.1,0.4,0.1,0.4
		c0,0-0.1-0.1-0.3-0.2c-0.4-0.3-0.9-0.7-1.1-0.8c-0.1,0-0.3-0.2-0.4-0.2c-0.9-0.5-2.1-1.1-3.3-1.4c-1.8-0.5-3.9-0.5-5.8-0.1
		c-4.2,0.9-7.4,3.5-9,7.3c-0.5,1.2-0.8,2.4-0.9,3.8c-0.1,0.7,0,2.2,0.1,2.8c0.5,3.5,2.2,6.3,4.9,8.1c0.9,0.6,2,1.1,3.1,1.3
		c0.9,0.2,1.2,0.3,2.2,0.3c1.1,0,1.5-0.1,2.4-0.4c2.5-0.8,4.6-3.1,5.2-5.6c0.3-1.2,0.2-2.5-0.1-3.6c-0.1-0.4-0.4-1.1-0.5-1.3
		c0-0.1-0.1-0.2-0.2-0.3c-0.3-0.5-0.7-1-1.2-1.3c-0.8-0.6-1.5-0.8-2.6-0.9c-0.8,0-1.8,0.1-2.5,0.4c-0.1,0.1-0.3,0.1-0.4,0.1l-0.1,0
		l0.3,0.2c1.2,0.7,2.1,1.8,2.4,2.9c0.1,0.5,0.1,1.3,0,1.9c-0.2,0.7-0.5,1.2-1,1.7c-0.5,0.5-1.1,0.8-1.8,0.8c-1,0.1-2-0.3-3-1.4
		c-0.8-0.9-1.4-2-1.6-3.1c-0.1-0.6-0.1-1.5,0-2c0.5-2.4,1.9-4.3,3.8-5.3c0.5-0.2,1.2-0.5,1.7-0.6c0.5-0.1,1.6-0.1,2.1-0.1
		c1.1,0.1,2.2,0.5,3.3,1c1.5,0.7,2.5,1.6,3.5,3c0.5,0.7,1,2,1.3,3.1c0.5,2.4,0.2,5.6-0.9,8.4c-0.9,2.2-2.7,4.1-5.1,5.2
		c-1.3,0.6-2.8,1-4.3,1.2c-0.6,0.1-1.9,0.1-2.5,0c-1.7-0.2-3.3-0.7-4.7-1.5c-0.8-0.4-1.4-0.9-2.3-1.6c-2.6-2.2-4.6-5.2-5.7-8.4
		c-0.2-0.6-0.4-1.5-0.4-1.6c0-0.3-0.8,1.1-1.3,2.1c-0.3,0.6-0.5,1.5-0.7,2.3c-0.2,1.1-0.3,2.8-0.2,4c0.2,1.5,0.5,2.8,1.1,3.7
		c0.1,0.1,0.1,0.3,0.1,0.3c0,0-0.1,0-0.1,0c-2.6-1.5-5.2-2.5-8-2.9c-2.4-0.3-4.9-0.1-7,0.7c-1.7,0.6-3.7,1.6-5.2,2.6
		c-0.2,0.1-0.4,0.3-0.5,0.3c-0.2,0.2-1,0.7-1.3,0.9c-2,1.5-3.3,2.6-5,4.2c-0.9,0.9-1.4,1.5-1.4,1.5c0,0,0.3-0.1,0.5-0.1
		c2.9-0.9,5.7-1.6,8.9-2.1c1.8-0.3,4.2-0.6,6-0.7c1.1-0.1,3,0,3.9,0c2.7,0.2,4.6,0.6,9.3,1.7c4.2,1,6.3,1.4,8.8,1.7
		c1,0.1,2.5,0.1,3.4-0.1c2.7-0.4,5.5-1.3,8.7-2.9c1.3-0.7,2.2-1.2,3.5-1.9c1.1-0.7,1.3-0.8,1.8-1.2l0.5-0.3v0.7
		c0,1.2,0.2,2.2,0.5,3.2c0.2,0.5,0.6,1.4,0.9,1.8c0.3,0.5,1,1.2,1.5,1.5l0.3,0.2l0.1-0.1c0.6-0.4,1.3-1.1,1.7-1.6
		c0.9-1.4,1.4-3,1.4-5.2l0-0.4l0.6,0.4c4,2.7,8,4.6,11.7,5.4c2.4,0.6,4.3,0.6,7.3,0.2c1.9-0.3,3.7-0.6,7.3-1.5
		c4.3-1.1,6-1.4,8.7-1.6c0.7-0.1,3.2-0.1,4.1,0c3.1,0.2,6,0.6,9.4,1.4c1.8,0.4,4.4,1.1,5.9,1.6c0.1,0,0.2,0.1,0.2,0.1
		C-170,47.4-170.2,47.1-170.5,46.8z"/>
	<path class="st1" d="M-291.7,45.3c0.1,0,0.9-0.9,1.4-1.4c1.3-1.4,2.2-2.9,2.6-4.1c0.3-0.8,0.4-1.7,0.3-2.8c0-1.1-0.2-2-0.5-2.9
		c-0.1-0.2-0.1-0.4-0.1-0.4s0.1,0.1,0.3,0.2c0.4,0.3,0.9,0.7,1.1,0.8c0.1,0,0.3,0.2,0.4,0.2c0.9,0.5,2.1,1.1,3.3,1.4
		c1.8,0.5,3.9,0.5,5.8,0.1c4.2-0.9,7.4-3.5,9-7.3c0.5-1.2,0.8-2.4,0.9-3.8c0.1-0.7,0-2.2-0.1-2.8c-0.5-3.5-2.2-6.3-4.9-8.1
		c-0.9-0.6-2-1.1-3.1-1.3c-0.9-0.2-1.2-0.3-2.2-0.3c-1.1,0-1.5,0.1-2.4,0.4c-2.5,0.8-4.6,3.1-5.2,5.6c-0.3,1.2-0.2,2.5,0.1,3.6
		c0.1,0.4,0.4,1.1,0.5,1.3c0,0.1,0.1,0.2,0.2,0.3c0.3,0.5,0.7,1,1.2,1.3c0.8,0.6,1.5,0.8,2.6,0.9c0.8,0,1.8-0.1,2.5-0.4
		c0.1-0.1,0.3-0.1,0.4-0.1l0.1,0l-0.3-0.2c-1.2-0.7-2.1-1.8-2.4-2.9c-0.1-0.5-0.1-1.3,0-1.9c0.2-0.7,0.5-1.2,1-1.7
		c0.5-0.5,1.1-0.8,1.8-0.8c1-0.1,2,0.3,3,1.4c0.8,0.9,1.4,2,1.6,3.1c0.1,0.6,0.1,1.5,0,2c-0.5,2.4-1.9,4.3-3.8,5.3
		c-0.5,0.2-1.2,0.5-1.7,0.6c-0.5,0.1-1.6,0.1-2.1,0.1c-1.1-0.1-2.2-0.5-3.3-1c-1.5-0.7-2.5-1.6-3.5-3c-0.5-0.7-1-2-1.3-3.1
		c-0.5-2.4-0.2-5.6,0.9-8.4c0.9-2.2,2.7-4.1,5.1-5.2c1.3-0.6,2.8-1,4.3-1.2c0.6-0.1,1.9-0.1,2.5,0c1.7,0.2,3.3,0.7,4.7,1.5
		c0.8,0.4,1.4,0.9,2.3,1.6c2.6,2.2,4.6,5.2,5.7,8.4c0.2,0.6,0.4,1.5,0.4,1.6c0,0.3,0.8-1.1,1.3-2.1c0.3-0.6,0.5-1.5,0.7-2.3
		c0.2-1.1,0.3-2.8,0.2-4c-0.2-1.5-0.5-2.8-1.1-3.7c-0.1-0.1-0.1-0.3-0.1-0.3c0,0,0.1,0,0.1,0c2.6,1.5,5.2,2.5,8,2.9
		c2.4,0.3,4.9,0.1,7-0.7c1.7-0.6,3.7-1.6,5.2-2.6c0.2-0.1,0.4-0.3,0.5-0.3c0.2-0.2,1-0.7,1.3-0.9c2-1.5,3.3-2.6,5-4.2
		c0.9-0.9,1.4-1.5,1.4-1.5c0,0-0.3,0.1-0.5,0.1c-2.9,0.9-5.7,1.6-8.9,2.1c-1.8,0.3-4.2,0.6-6,0.7c-1.1,0.1-3,0-3.9,0
		c-2.7-0.2-4.6-0.6-9.3-1.7c-4.2-1-6.3-1.4-8.8-1.7c-1-0.1-2.5-0.1-3.4,0.1c-2.7,0.4-5.5,1.3-8.7,2.9c-1.3,0.7-2.2,1.2-3.5,1.9
		c-1.1,0.7-1.3,0.8-1.8,1.2l-0.5,0.3V7.3c0-1.2-0.2-2.2-0.5-3.2c-0.2-0.5-0.6-1.4-0.9-1.8c-0.3-0.5-1-1.2-1.5-1.5l-0.3-0.2"/>
	<path class="st1" d="M-165.8,0.6l-0.1,0.1c-0.6,0.4-1.3,1.1-1.7,1.6c-0.9,1.4-1.4,3-1.4,5.2l0,0.4l-0.6-0.4c-4-2.7-8-4.6-11.7-5.4
		c-2.4-0.6-4.3-0.6-7.3-0.2c-1.9,0.3-3.7,0.6-7.3,1.5c-4.3,1.1-6,1.4-8.7,1.6c-0.7,0.1-3.2,0.1-4.1,0c-3.1-0.2-6-0.6-9.4-1.4
		c-1.8-0.4-4.4-1.1-5.9-1.6c-0.1,0-0.2-0.1-0.2-0.1c0,0,0.3,0.3,0.6,0.6c1,1.1,2.3,2.3,3.3,3.2c0.3,0.2,0.5,0.4,0.6,0.5
		c1,0.8,3.1,2.3,4.4,3.1c2.7,1.6,4.8,2.4,6.8,2.8c1.4,0.3,3.3,0.3,4.9,0.1c2-0.3,4-0.9,6.1-1.9c0.5-0.2,1.3-0.7,1.7-0.9
		c0.1-0.1,0.2-0.1,0.2-0.1c0,0-0.1,0.2-0.2,0.4c-1.3,2.4-1.5,5.9-0.5,8.9c0.3,1.1,0.9,2.2,1.4,2.9l0.2,0.3l0.2-0.7
		c0.9-3.5,3-6.9,5.8-9.3c1.6-1.4,2.8-2.1,4.5-2.7c3.1-1.1,6.7-0.8,9.7,0.7c1.1,0.6,2,1.1,2.8,2c1.4,1.4,2.2,2.9,2.8,5.4
		c0.3,1.4,0.5,2.3,0.4,3.7c0,0.9,0,1.1-0.1,1.6c-0.1,0.9-0.3,1.5-0.6,2.4c-0.1,0.4-0.5,1.1-0.8,1.5c-0.9,1.3-2,2.3-3.6,3.1
		c-1.4,0.7-2.7,1-4.1,1c-0.9,0-1.6-0.1-2.5-0.4c-2.1-0.8-3.7-2.8-4.3-5.2c-0.1-0.5-0.2-1.5-0.1-2c0.2-1.5,1.1-3.1,2.3-4
		c0.9-0.7,1.6-1,2.5-0.9c1.1,0.1,1.9,0.7,2.4,1.7c0.3,0.6,0.4,0.9,0.4,1.6c0,0.8-0.1,1.3-0.4,1.9c-0.4,0.8-1.2,1.6-2.1,2.1
		c-0.1,0.1-0.2,0.2-0.2,0.2c0,0,0.2,0.1,0.5,0.2c1.8,0.6,3.5,0.5,4.7-0.3c1.4-0.9,2.4-3,2.4-5.1c0-3.2-2.5-6.4-5.8-7.3
		c-0.7-0.2-1-0.2-2-0.2c-0.8,0-1,0-1.4,0.1c-1.1,0.2-2,0.5-3,1c-1.1,0.6-1.8,1.1-2.6,2c-0.9,0.9-1.5,1.7-2,2.8
		c-1.1,2.2-1.5,4.8-1.1,7.4c0.4,2.5,1.4,4.8,3.1,6.6c1.4,1.5,3.1,2.6,5.1,3.3c1.4,0.5,2.5,0.7,3.9,0.7c2.1,0.1,4.1-0.4,6-1.4
		c0.8-0.4,1.9-1.1,2.3-1.5c0.1-0.1,0.1-0.1,0.2-0.1c0,0,0,0.1-0.1,0.2c-0.1,0.3-0.4,1.4-0.5,1.8c-0.2,1.3-0.2,2.6,0.1,3.6
		c0.3,1.2,1.2,2.8,2.5,4.4c0.5,0.5,1.5,1.6,1.6,1.6"/>
</g>
<g class="st10">
	<path class="st1" d="M-24.7,46.8c-1-1.1-2.3-2.3-3.3-3.2c-0.3-0.2-0.5-0.4-0.6-0.5c-1-0.8-3.1-2.3-4.4-3.1
		c-2.7-1.6-4.8-2.4-6.8-2.8c-1.4-0.3-3.3-0.3-4.9-0.1c-2,0.3-4,0.9-6.1,1.9c-0.5,0.2-1.3,0.7-1.7,0.9c-0.1,0.1-0.2,0.1-0.2,0.1
		c0,0,0.1-0.2,0.2-0.4c1.3-2.4,1.5-5.9,0.5-8.9c-0.3-1.1-0.9-2.2-1.4-2.9l-0.2-0.3l-0.2,0.7c-0.9,3.5-3,6.9-5.8,9.3
		c-1.6,1.4-2.8,2.1-4.5,2.7c-3.1,1.1-6.7,0.8-9.7-0.7c-1.1-0.6-2-1.1-2.8-2c-1.4-1.4-2.2-2.9-2.8-5.4c-0.3-1.4-0.5-2.3-0.4-3.7
		c0-0.9,0-1.1,0.1-1.6c0.1-0.9,0.3-1.5,0.6-2.4c0.1-0.4,0.5-1.1,0.8-1.5c0.9-1.3,2-2.3,3.6-3.1c1.4-0.7,2.7-1,4.1-1
		c0.9,0,1.6,0.1,2.5,0.4c2.1,0.8,3.7,2.8,4.3,5.2c0.1,0.5,0.2,1.5,0.1,2c-0.2,1.5-1.1,3.1-2.3,4c-0.9,0.7-1.6,1-2.5,0.9
		c-1.1-0.1-1.9-0.7-2.4-1.7c-0.3-0.6-0.4-0.9-0.4-1.6c0-0.8,0.1-1.3,0.4-1.9c0.4-0.8,1.2-1.6,2.1-2.1c0.1-0.1,0.2-0.2,0.2-0.2
		c0,0-0.2-0.1-0.5-0.2c-1.8-0.6-3.5-0.5-4.7,0.3c-1.4,0.9-2.4,3-2.4,5.1c0,3.2,2.5,6.4,5.8,7.3c0.7,0.2,1,0.2,2,0.2
		c0.8,0,1,0,1.4-0.1c1.1-0.2,2-0.5,3-1c1.1-0.6,1.8-1.1,2.6-2c0.9-0.9,1.5-1.7,2-2.8c1.1-2.2,1.5-4.8,1.1-7.4
		c-0.4-2.5-1.4-4.8-3.1-6.6c-1.4-1.5-3.1-2.6-5.1-3.3c-1.4-0.5-2.5-0.7-3.9-0.7c-2.1-0.1-4.1,0.4-6,1.4c-0.8,0.4-1.9,1.1-2.3,1.5
		c-0.1,0.1-0.1,0.1-0.2,0.1c0,0,0-0.1,0.1-0.2c0.1-0.3,0.4-1.4,0.5-1.8c0.2-1.3,0.2-2.6-0.1-3.6C-78.8,9-79.7,7.4-81,5.9
		c-0.5-0.5-1.5-1.6-1.6-1.6c-0.1,0-0.9,0.9-1.4,1.4c-1.3,1.4-2.2,2.9-2.6,4.1c-0.3,0.8-0.4,1.7-0.3,2.8c0,1.1,0.2,2,0.5,2.9
		c0.1,0.2,0.1,0.4,0.1,0.4c0,0-0.1-0.1-0.3-0.2c-0.4-0.3-0.9-0.7-1.1-0.8c-0.1,0-0.3-0.2-0.4-0.2c-0.9-0.5-2.1-1.1-3.3-1.4
		c-1.8-0.5-3.9-0.5-5.8-0.1c-4.2,0.9-7.4,3.5-9,7.3c-0.5,1.2-0.8,2.4-0.9,3.8c-0.1,0.7,0,2.2,0.1,2.8c0.5,3.5,2.2,6.3,4.9,8.1
		c0.9,0.6,2,1.1,3.1,1.3c0.9,0.2,1.2,0.3,2.2,0.3c1.1,0,1.5-0.1,2.4-0.4c2.5-0.8,4.6-3.1,5.2-5.6c0.3-1.2,0.2-2.5-0.1-3.6
		c-0.1-0.4-0.4-1.1-0.5-1.3c0-0.1-0.1-0.2-0.2-0.3c-0.3-0.5-0.7-1-1.2-1.3c-0.8-0.6-1.5-0.8-2.6-0.9c-0.8,0-1.8,0.1-2.5,0.4
		c-0.1,0.1-0.3,0.1-0.4,0.1l-0.1,0l0.3,0.2c1.2,0.7,2.1,1.8,2.4,2.9c0.1,0.5,0.1,1.3,0,1.9c-0.2,0.7-0.5,1.2-1,1.7
		c-0.5,0.5-1.1,0.8-1.8,0.8c-1,0.1-2-0.3-3-1.4c-0.8-0.9-1.4-2-1.6-3.1c-0.1-0.6-0.1-1.5,0-2c0.5-2.4,1.9-4.3,3.8-5.3
		c0.5-0.2,1.2-0.5,1.7-0.6c0.5-0.1,1.6-0.1,2.1-0.1c1.1,0.1,2.2,0.5,3.3,1c1.5,0.7,2.5,1.6,3.5,3c0.5,0.7,1,2,1.3,3.1
		c0.5,2.4,0.2,5.6-0.9,8.4c-0.9,2.2-2.7,4.1-5.1,5.2c-1.3,0.6-2.8,1-4.3,1.2c-0.6,0.1-1.9,0.1-2.5,0c-1.7-0.2-3.3-0.7-4.7-1.5
		c-0.8-0.4-1.4-0.9-2.3-1.6c-2.6-2.2-4.6-5.2-5.7-8.4c-0.2-0.6-0.4-1.5-0.4-1.6c0-0.3-0.8,1.1-1.3,2.1c-0.3,0.6-0.5,1.5-0.7,2.3
		c-0.2,1.1-0.3,2.8-0.2,4c0.2,1.5,0.5,2.8,1.1,3.7c0.1,0.1,0.1,0.3,0.1,0.3c0,0-0.1,0-0.1,0c-2.6-1.5-5.2-2.5-8-2.9
		c-2.4-0.3-4.9-0.1-7,0.7c-1.7,0.6-3.7,1.6-5.2,2.6c-0.2,0.1-0.4,0.3-0.5,0.3c-0.2,0.2-1,0.7-1.3,0.9c-2,1.5-3.3,2.6-5,4.2
		c-0.9,0.9-1.4,1.5-1.4,1.5c0,0,0.3-0.1,0.5-0.1c2.9-0.9,5.7-1.6,8.9-2.1c1.8-0.3,4.2-0.6,6-0.7c1.1-0.1,3,0,3.9,0
		c2.7,0.2,4.6,0.6,9.3,1.7c4.2,1,6.3,1.4,8.8,1.7c1,0.1,2.5,0.1,3.4-0.1c2.7-0.4,5.5-1.3,8.7-2.9c1.3-0.7,2.2-1.2,3.5-1.9
		c1.1-0.7,1.3-0.8,1.8-1.2l0.5-0.3v0.7c0,1.2,0.2,2.2,0.5,3.2c0.2,0.5,0.6,1.4,0.9,1.8c0.3,0.5,1,1.2,1.5,1.5l0.3,0.2l0.1-0.1
		c0.6-0.4,1.3-1.1,1.7-1.6c0.9-1.4,1.4-3,1.4-5.2l0-0.4l0.6,0.4c4,2.7,8,4.6,11.7,5.4c2.4,0.6,4.3,0.6,7.3,0.2
		c1.9-0.3,3.7-0.6,7.3-1.5c4.3-1.1,6-1.4,8.7-1.6c0.7-0.1,3.2-0.1,4.1,0c3.1,0.2,6,0.6,9.4,1.4c1.8,0.4,4.4,1.1,5.9,1.6
		c0.1,0,0.2,0.1,0.2,0.1C-24.1,47.4-24.4,47.1-24.7,46.8z"/>
	<path class="st1" d="M-145.8,45.3c0.1,0,0.9-0.9,1.4-1.4c1.3-1.4,2.2-2.9,2.6-4.1c0.3-0.8,0.4-1.7,0.3-2.8c0-1.1-0.2-2-0.5-2.9
		c-0.1-0.2-0.1-0.4-0.1-0.4c0,0,0.1,0.1,0.3,0.2c0.4,0.3,0.9,0.7,1.1,0.8c0.1,0,0.3,0.2,0.4,0.2c0.9,0.5,2.1,1.1,3.3,1.4
		c1.8,0.5,3.9,0.5,5.8,0.1c4.2-0.9,7.4-3.5,9-7.3c0.5-1.2,0.8-2.4,0.9-3.8c0.1-0.7,0-2.2-0.1-2.8c-0.5-3.5-2.2-6.3-4.9-8.1
		c-0.9-0.6-2-1.1-3.1-1.3c-0.9-0.2-1.2-0.3-2.2-0.3c-1.1,0-1.5,0.1-2.4,0.4c-2.5,0.8-4.6,3.1-5.2,5.6c-0.3,1.2-0.2,2.5,0.1,3.6
		c0.1,0.4,0.4,1.1,0.5,1.3c0,0.1,0.1,0.2,0.2,0.3c0.3,0.5,0.7,1,1.2,1.3c0.8,0.6,1.5,0.8,2.6,0.9c0.8,0,1.8-0.1,2.5-0.4
		c0.1-0.1,0.3-0.1,0.4-0.1l0.1,0l-0.3-0.2c-1.2-0.7-2.1-1.8-2.4-2.9c-0.1-0.5-0.1-1.3,0-1.9c0.2-0.7,0.5-1.2,1-1.7
		c0.5-0.5,1.1-0.8,1.8-0.8c1-0.1,2,0.3,3,1.4c0.8,0.9,1.4,2,1.6,3.1c0.1,0.6,0.1,1.5,0,2C-127.6,27-129,29-131,30
		c-0.5,0.2-1.2,0.5-1.7,0.6c-0.5,0.1-1.6,0.1-2.1,0.1c-1.1-0.1-2.2-0.5-3.3-1c-1.5-0.7-2.5-1.6-3.5-3c-0.5-0.7-1-2-1.3-3.1
		c-0.5-2.4-0.2-5.6,0.9-8.4c0.9-2.2,2.7-4.1,5.1-5.2c1.3-0.6,2.8-1,4.3-1.2c0.6-0.1,1.9-0.1,2.5,0c1.7,0.2,3.3,0.7,4.7,1.5
		c0.8,0.4,1.4,0.9,2.3,1.6c2.6,2.2,4.6,5.2,5.7,8.4c0.2,0.6,0.4,1.5,0.4,1.6c0,0.3,0.8-1.1,1.3-2.1c0.3-0.6,0.5-1.5,0.7-2.3
		c0.2-1.1,0.3-2.8,0.2-4c-0.2-1.5-0.5-2.8-1.1-3.7c-0.1-0.1-0.1-0.3-0.1-0.3c0,0,0.1,0,0.1,0c2.6,1.5,5.2,2.5,8,2.9
		c2.4,0.3,4.9,0.1,7-0.7c1.7-0.6,3.7-1.6,5.2-2.6c0.2-0.1,0.4-0.3,0.5-0.3c0.2-0.2,1-0.7,1.3-0.9c2-1.5,3.3-2.6,5-4.2
		c0.9-0.9,1.4-1.5,1.4-1.5c0,0-0.3,0.1-0.5,0.1c-2.9,0.9-5.7,1.6-8.9,2.1c-1.8,0.3-4.2,0.6-6,0.7c-1.1,0.1-3,0-3.9,0
		c-2.7-0.2-4.6-0.6-9.3-1.7c-4.2-1-6.3-1.4-8.8-1.7c-1-0.1-2.5-0.1-3.4,0.1c-2.7,0.4-5.5,1.3-8.7,2.9c-1.3,0.7-2.2,1.2-3.5,1.9
		c-1.1,0.7-1.3,0.8-1.8,1.2l-0.5,0.3V7.3c0-1.2-0.2-2.2-0.5-3.2c-0.2-0.5-0.6-1.4-0.9-1.8c-0.3-0.5-1-1.2-1.5-1.5l-0.3-0.2"/>
	<path class="st1" d="M-20,0.6l-0.1,0.1c-0.6,0.4-1.3,1.1-1.7,1.6c-0.9,1.4-1.4,3-1.4,5.2l0,0.4l-0.6-0.4c-4-2.7-8-4.6-11.7-5.4
		c-2.4-0.6-4.3-0.6-7.3-0.2c-1.9,0.3-3.7,0.6-7.3,1.5c-4.3,1.1-6,1.4-8.7,1.6c-0.7,0.1-3.2,0.1-4.1,0c-3.1-0.2-6-0.6-9.4-1.4
		c-1.8-0.4-4.4-1.1-5.9-1.6c-0.1,0-0.2-0.1-0.2-0.1c0,0,0.3,0.3,0.6,0.6c1,1.1,2.3,2.3,3.3,3.2c0.3,0.2,0.5,0.4,0.6,0.5
		c1,0.8,3.1,2.3,4.4,3.1c2.7,1.6,4.8,2.4,6.8,2.8c1.4,0.3,3.3,0.3,4.9,0.1c2-0.3,4-0.9,6.1-1.9c0.5-0.2,1.3-0.7,1.7-0.9
		c0.1-0.1,0.2-0.1,0.2-0.1c0,0-0.1,0.2-0.2,0.4c-1.3,2.4-1.5,5.9-0.5,8.9c0.3,1.1,0.9,2.2,1.4,2.9l0.2,0.3l0.2-0.7
		c0.9-3.5,3-6.9,5.8-9.3c1.6-1.4,2.8-2.1,4.5-2.7c3.1-1.1,6.7-0.8,9.7,0.7c1.1,0.6,2,1.1,2.8,2c1.4,1.4,2.2,2.9,2.8,5.4
		c0.3,1.4,0.5,2.3,0.4,3.7c0,0.9,0,1.1-0.1,1.6c-0.1,0.9-0.3,1.5-0.6,2.4c-0.1,0.4-0.5,1.1-0.8,1.5c-0.9,1.3-2,2.3-3.6,3.1
		c-1.4,0.7-2.7,1-4.1,1c-0.9,0-1.6-0.1-2.5-0.4c-2.1-0.8-3.7-2.8-4.3-5.2c-0.1-0.5-0.2-1.5-0.1-2c0.2-1.5,1.1-3.1,2.3-4
		c0.9-0.7,1.6-1,2.5-0.9c1.1,0.1,1.9,0.7,2.4,1.7c0.3,0.6,0.4,0.9,0.4,1.6c0,0.8-0.1,1.3-0.4,1.9c-0.4,0.8-1.2,1.6-2.1,2.1
		c-0.1,0.1-0.2,0.2-0.2,0.2c0,0,0.2,0.1,0.5,0.2c1.8,0.6,3.5,0.5,4.7-0.3c1.4-0.9,2.4-3,2.4-5.1c0-3.2-2.5-6.4-5.8-7.3
		c-0.7-0.2-1-0.2-2-0.2c-0.8,0-1,0-1.4,0.1c-1.1,0.2-2,0.5-3,1c-1.1,0.6-1.8,1.1-2.6,2c-0.9,0.9-1.5,1.7-2,2.8
		c-1.1,2.2-1.5,4.8-1.1,7.4c0.4,2.5,1.4,4.8,3.1,6.6c1.4,1.5,3.1,2.6,5.1,3.3c1.4,0.5,2.5,0.7,3.9,0.7c2.1,0.1,4.1-0.4,6-1.4
		c0.8-0.4,1.9-1.1,2.3-1.5c0.1-0.1,0.1-0.1,0.2-0.1c0,0,0,0.1-0.1,0.2c-0.1,0.3-0.4,1.4-0.5,1.8c-0.2,1.3-0.2,2.6,0.1,3.6
		c0.3,1.2,1.2,2.8,2.5,4.4c0.5,0.5,1.5,1.6,1.6,1.6"/>
</g>
<g class="st11">
	<path class="st1" d="M121.1,46.8c-1-1.1-2.3-2.3-3.3-3.2c-0.3-0.2-0.5-0.4-0.6-0.5c-1-0.8-3.1-2.3-4.4-3.1
		c-2.7-1.6-4.8-2.4-6.8-2.8c-1.4-0.3-3.3-0.3-4.9-0.1c-2,0.3-4,0.9-6.1,1.9c-0.5,0.2-1.3,0.7-1.7,0.9c-0.1,0.1-0.2,0.1-0.2,0.1
		c0,0,0.1-0.2,0.2-0.4c1.3-2.4,1.5-5.9,0.5-8.9c-0.3-1.1-0.9-2.2-1.4-2.9l-0.2-0.3L92,28.3c-0.9,3.5-3,6.9-5.8,9.3
		c-1.6,1.4-2.8,2.1-4.5,2.7c-3.1,1.1-6.7,0.8-9.7-0.7c-1.1-0.6-2-1.1-2.8-2c-1.4-1.4-2.2-2.9-2.8-5.4c-0.3-1.4-0.5-2.3-0.4-3.7
		c0-0.9,0-1.1,0.1-1.6c0.1-0.9,0.3-1.5,0.6-2.4c0.1-0.4,0.5-1.1,0.8-1.5c0.9-1.3,2-2.3,3.6-3.1c1.4-0.7,2.7-1,4.1-1
		c0.9,0,1.6,0.1,2.5,0.4c2.1,0.8,3.7,2.8,4.3,5.2c0.1,0.5,0.2,1.5,0.1,2c-0.2,1.5-1.1,3.1-2.3,4c-0.9,0.7-1.6,1-2.5,0.9
		c-1.1-0.1-1.9-0.7-2.4-1.7c-0.3-0.6-0.4-0.9-0.4-1.6c0-0.8,0.1-1.3,0.4-1.9c0.4-0.8,1.2-1.6,2.1-2.1c0.1-0.1,0.2-0.2,0.2-0.2
		c0,0-0.2-0.1-0.5-0.2c-1.8-0.6-3.5-0.5-4.7,0.3c-1.4,0.9-2.4,3-2.4,5.1c0,3.2,2.5,6.4,5.8,7.3c0.7,0.2,1,0.2,2,0.2
		c0.8,0,1,0,1.4-0.1c1.1-0.2,2-0.5,3-1c1.1-0.6,1.8-1.1,2.6-2c0.9-0.9,1.5-1.7,2-2.8c1.1-2.2,1.5-4.8,1.1-7.4
		c-0.4-2.5-1.4-4.8-3.1-6.6c-1.4-1.5-3.1-2.6-5.1-3.3c-1.4-0.5-2.5-0.7-3.9-0.7c-2.1-0.1-4.1,0.4-6,1.4c-0.8,0.4-1.9,1.1-2.3,1.5
		c-0.1,0.1-0.1,0.1-0.2,0.1c0,0,0-0.1,0.1-0.2c0.1-0.3,0.4-1.4,0.5-1.8c0.2-1.3,0.2-2.6-0.1-3.6c-0.3-1.2-1.2-2.8-2.5-4.4
		c-0.5-0.5-1.5-1.6-1.6-1.6s-0.9,0.9-1.4,1.4c-1.3,1.4-2.2,2.9-2.6,4.1c-0.3,0.8-0.4,1.7-0.3,2.8c0,1.1,0.2,2,0.5,2.9
		c0.1,0.2,0.1,0.4,0.1,0.4s-0.1-0.1-0.3-0.2c-0.4-0.3-0.9-0.7-1.1-0.8c-0.1,0-0.3-0.2-0.4-0.2c-0.9-0.5-2.1-1.1-3.3-1.4
		c-1.8-0.5-3.9-0.5-5.8-0.1c-4.2,0.9-7.4,3.5-9,7.3c-0.5,1.2-0.8,2.4-0.9,3.8c-0.1,0.7,0,2.2,0.1,2.8c0.5,3.5,2.2,6.3,4.9,8.1
		c0.9,0.6,2,1.1,3.1,1.3c0.9,0.2,1.2,0.3,2.2,0.3c1.1,0,1.5-0.1,2.4-0.4c2.5-0.8,4.6-3.1,5.2-5.6c0.3-1.2,0.2-2.5-0.1-3.6
		c-0.1-0.4-0.4-1.1-0.5-1.3c0-0.1-0.1-0.2-0.2-0.3c-0.3-0.5-0.7-1-1.2-1.3c-0.8-0.6-1.5-0.8-2.6-0.9c-0.8,0-1.8,0.1-2.5,0.4
		c-0.1,0.1-0.3,0.1-0.4,0.1l-0.1,0l0.3,0.2c1.2,0.7,2.1,1.8,2.4,2.9c0.1,0.5,0.1,1.3,0,1.9c-0.2,0.7-0.5,1.2-1,1.7
		c-0.5,0.5-1.1,0.8-1.8,0.8c-1,0.1-2-0.3-3-1.4c-0.8-0.9-1.4-2-1.6-3.1c-0.1-0.6-0.1-1.5,0-2c0.5-2.4,1.9-4.3,3.8-5.3
		c0.5-0.2,1.2-0.5,1.7-0.6c0.5-0.1,1.6-0.1,2.1-0.1c1.1,0.1,2.2,0.5,3.3,1c1.5,0.7,2.5,1.6,3.5,3c0.5,0.7,1,2,1.3,3.1
		c0.5,2.4,0.2,5.6-0.9,8.4c-0.9,2.2-2.7,4.1-5.1,5.2c-1.3,0.6-2.8,1-4.3,1.2c-0.6,0.1-1.9,0.1-2.5,0c-1.7-0.2-3.3-0.7-4.7-1.5
		c-0.8-0.4-1.4-0.9-2.3-1.6c-2.6-2.2-4.6-5.2-5.7-8.4c-0.2-0.6-0.4-1.5-0.4-1.6c0-0.3-0.8,1.1-1.3,2.1c-0.3,0.6-0.5,1.5-0.7,2.3
		c-0.2,1.1-0.3,2.8-0.2,4c0.2,1.5,0.5,2.8,1.1,3.7c0.1,0.1,0.1,0.3,0.1,0.3c0,0-0.1,0-0.1,0c-2.6-1.5-5.2-2.5-8-2.9
		c-2.4-0.3-4.9-0.1-7,0.7c-1.7,0.6-3.7,1.6-5.2,2.6c-0.2,0.1-0.4,0.3-0.5,0.3c-0.2,0.2-1,0.7-1.3,0.9c-2,1.5-3.3,2.6-5,4.2
		c-0.9,0.9-1.4,1.5-1.4,1.5c0,0,0.3-0.1,0.5-0.1c2.9-0.9,5.7-1.6,8.9-2.1c1.8-0.3,4.2-0.6,6-0.7c1.1-0.1,3,0,3.9,0
		c2.7,0.2,4.6,0.6,9.3,1.7c4.2,1,6.3,1.4,8.8,1.7c1,0.1,2.5,0.1,3.4-0.1c2.7-0.4,5.5-1.3,8.7-2.9c1.3-0.7,2.2-1.2,3.5-1.9
		c1.1-0.7,1.3-0.8,1.8-1.2l0.5-0.3v0.7c0,1.2,0.2,2.2,0.5,3.2c0.2,0.5,0.6,1.4,0.9,1.8c0.3,0.5,1,1.2,1.5,1.5l0.3,0.2l0.1-0.1
		c0.6-0.4,1.3-1.1,1.7-1.6c0.9-1.4,1.4-3,1.4-5.2l0-0.4l0.6,0.4c4,2.7,8,4.6,11.7,5.4c2.4,0.6,4.3,0.6,7.3,0.2
		c1.9-0.3,3.7-0.6,7.3-1.5c4.3-1.1,6-1.4,8.7-1.6c0.7-0.1,3.2-0.1,4.1,0c3.1,0.2,6,0.6,9.4,1.4c1.8,0.4,4.4,1.1,5.9,1.6
		c0.1,0,0.2,0.1,0.2,0.1C121.7,47.4,121.4,47.1,121.1,46.8z"/>
	<path class="st1" d="M0,45.3c0.1,0,0.9-0.9,1.4-1.4c1.3-1.4,2.2-2.9,2.6-4.1C4.2,39,4.3,38.1,4.3,37c0-1.1-0.2-2-0.5-2.9
		c-0.1-0.2-0.1-0.4-0.1-0.4c0,0,0.1,0.1,0.3,0.2c0.4,0.3,0.9,0.7,1.1,0.8c0.1,0,0.3,0.2,0.4,0.2c0.9,0.5,2.1,1.1,3.3,1.4
		c1.8,0.5,3.9,0.5,5.8,0.1c4.2-0.9,7.4-3.5,9-7.3c0.5-1.2,0.8-2.4,0.9-3.8c0.1-0.7,0-2.2-0.1-2.8c-0.5-3.5-2.2-6.3-4.9-8.1
		c-0.9-0.6-2-1.1-3.1-1.3c-0.9-0.2-1.2-0.3-2.2-0.3c-1.1,0-1.5,0.1-2.4,0.4c-2.5,0.8-4.6,3.1-5.2,5.6c-0.3,1.2-0.2,2.5,0.1,3.6
		c0.1,0.4,0.4,1.1,0.5,1.3c0,0.1,0.1,0.2,0.2,0.3c0.3,0.5,0.7,1,1.2,1.3c0.8,0.6,1.5,0.8,2.6,0.9c0.8,0,1.8-0.1,2.5-0.4
		c0.1-0.1,0.3-0.1,0.4-0.1l0.1,0l-0.3-0.2c-1.2-0.7-2.1-1.8-2.4-2.9c-0.1-0.5-0.1-1.3,0-1.9c0.2-0.7,0.5-1.2,1-1.7
		c0.5-0.5,1.1-0.8,1.8-0.8c1-0.1,2,0.3,3,1.4c0.8,0.9,1.4,2,1.6,3.1c0.1,0.6,0.1,1.5,0,2C18.2,27,16.8,29,14.9,30
		c-0.5,0.2-1.2,0.5-1.7,0.6c-0.5,0.1-1.6,0.1-2.1,0.1c-1.1-0.1-2.2-0.5-3.3-1c-1.5-0.7-2.5-1.6-3.5-3c-0.5-0.7-1-2-1.3-3.1
		c-0.5-2.4-0.2-5.6,0.9-8.4c0.9-2.2,2.7-4.1,5.1-5.2c1.3-0.6,2.8-1,4.3-1.2c0.6-0.1,1.9-0.1,2.5,0c1.7,0.2,3.3,0.7,4.7,1.5
		c0.8,0.4,1.4,0.9,2.3,1.6c2.6,2.2,4.6,5.2,5.7,8.4c0.2,0.6,0.4,1.5,0.4,1.6c0,0.3,0.8-1.1,1.3-2.1c0.3-0.6,0.5-1.5,0.7-2.3
		c0.2-1.1,0.3-2.8,0.2-4c-0.2-1.5-0.5-2.8-1.1-3.7c-0.1-0.1-0.1-0.3-0.1-0.3c0,0,0.1,0,0.1,0c2.6,1.5,5.2,2.5,8,2.9
		c2.4,0.3,4.9,0.1,7-0.7c1.7-0.6,3.7-1.6,5.2-2.6c0.2-0.1,0.4-0.3,0.5-0.3c0.2-0.2,1-0.7,1.3-0.9c2-1.5,3.3-2.6,5-4.2
		c0.9-0.9,1.4-1.5,1.4-1.5c0,0-0.3,0.1-0.5,0.1c-2.9,0.9-5.7,1.6-8.9,2.1c-1.8,0.3-4.2,0.6-6,0.7c-1.1,0.1-3,0-3.9,0
		c-2.7-0.2-4.6-0.6-9.3-1.7c-4.2-1-6.3-1.4-8.8-1.7c-1-0.1-2.5-0.1-3.4,0.1C14.9,2.1,12.1,3,8.9,4.6C7.5,5.3,6.7,5.8,5.4,6.5
		C4.3,7.2,4.2,7.3,3.6,7.7L3.2,8V7.3c0-1.2-0.2-2.2-0.5-3.2C2.5,3.6,2,2.7,1.8,2.3c-0.3-0.5-1-1.2-1.5-1.5L0,0.6"/>
	<path class="st1" d="M125.8,0.6l-0.1,0.1c-0.6,0.4-1.3,1.1-1.7,1.6c-0.9,1.4-1.4,3-1.4,5.2l0,0.4L122,7.5c-4-2.7-8-4.6-11.7-5.4
		c-2.4-0.6-4.3-0.6-7.3-0.2c-1.9,0.3-3.7,0.6-7.3,1.5c-4.3,1.1-6,1.4-8.7,1.6c-0.7,0.1-3.2,0.1-4.1,0c-3.1-0.2-6-0.6-9.4-1.4
		c-1.8-0.4-4.4-1.1-5.9-1.6c-0.1,0-0.2-0.1-0.2-0.1c0,0,0.3,0.3,0.6,0.6c1,1.1,2.3,2.3,3.3,3.2c0.3,0.2,0.5,0.4,0.6,0.5
		c1,0.8,3.1,2.3,4.4,3.1c2.7,1.6,4.8,2.4,6.8,2.8c1.4,0.3,3.3,0.3,4.9,0.1c2-0.3,4-0.9,6.1-1.9c0.5-0.2,1.3-0.7,1.7-0.9
		C95.9,9.5,96,9.4,96,9.4c0,0-0.1,0.2-0.2,0.4c-1.3,2.4-1.5,5.9-0.5,8.9c0.3,1.1,0.9,2.2,1.4,2.9l0.2,0.3l0.2-0.7
		c0.9-3.5,3-6.9,5.8-9.3c1.6-1.4,2.8-2.1,4.5-2.7c3.1-1.1,6.7-0.8,9.7,0.7c1.1,0.6,2,1.1,2.8,2c1.4,1.4,2.2,2.9,2.8,5.4
		c0.3,1.4,0.5,2.3,0.4,3.7c0,0.9,0,1.1-0.1,1.6c-0.1,0.9-0.3,1.5-0.6,2.4c-0.1,0.4-0.5,1.1-0.8,1.5c-0.9,1.3-2,2.3-3.6,3.1
		c-1.4,0.7-2.7,1-4.1,1c-0.9,0-1.6-0.1-2.5-0.4c-2.1-0.8-3.7-2.8-4.3-5.2c-0.1-0.5-0.2-1.5-0.1-2c0.2-1.5,1.1-3.1,2.3-4
		c0.9-0.7,1.6-1,2.5-0.9c1.1,0.1,1.9,0.7,2.4,1.7c0.3,0.6,0.4,0.9,0.4,1.6c0,0.8-0.1,1.3-0.4,1.9c-0.4,0.8-1.2,1.6-2.1,2.1
		c-0.1,0.1-0.2,0.2-0.2,0.2c0,0,0.2,0.1,0.5,0.2c1.8,0.6,3.5,0.5,4.7-0.3c1.4-0.9,2.4-3,2.4-5.1c0-3.2-2.5-6.4-5.8-7.3
		c-0.7-0.2-1-0.2-2-0.2c-0.8,0-1,0-1.4,0.1c-1.1,0.2-2,0.5-3,1c-1.1,0.6-1.8,1.1-2.6,2c-0.9,0.9-1.5,1.7-2,2.8
		c-1.1,2.2-1.5,4.8-1.1,7.4c0.4,2.5,1.4,4.8,3.1,6.6c1.4,1.5,3.1,2.6,5.1,3.3c1.4,0.5,2.5,0.7,3.9,0.7c2.1,0.1,4.1-0.4,6-1.4
		c0.8-0.4,1.9-1.1,2.3-1.5c0.1-0.1,0.1-0.1,0.2-0.1c0,0,0,0.1-0.1,0.2c-0.1,0.3-0.4,1.4-0.5,1.8c-0.2,1.3-0.2,2.6,0.1,3.6
		c0.3,1.2,1.2,2.8,2.5,4.4c0.5,0.5,1.5,1.6,1.6,1.6"/>
</g>
</svg>
