<?xml version="1.0" encoding="utf-8"?>
<!-- Generator: Adobe Illustrator 21.0.0, SVG Export Plug-In . SVG Version: 6.00 Build 0)  -->
<svg version="1.1" id="Layer_1" xmlns="http://www.w3.org/2000/svg" xmlns:xlink="http://www.w3.org/1999/xlink" x="0px" y="0px"
	 viewBox="0 0 500 372.6" style="enable-background:new 0 0 500 372.6;" xml:space="preserve">
<style type="text/css">
	.st0{fill:#EBEBEB;}
	.st1{fill:#E0E0E0;}
	.st2{fill:#F0F0F0;}
	.st3{fill:#F5F5F5;}
	.st4{fill:#263238;}
	.st5{fill:#3E54FF;}
	.st6{opacity:0.3;fill:#407BFF;enable-background:new    ;}
	.st7{fill:#FFFFFF;}
	.st8{fill:#407BFF;}
	.st9{opacity:0.3;fill:#FFFFFF;enable-background:new    ;}
	.st10{opacity:0.2;enable-background:new    ;}
	.st11{opacity:0.2;fill:#3E54FF;enable-background:new    ;}
</style>
<title>error</title>
<rect x="428.2" y="343.5" class="st0" width="21.7" height="0.3"/>
<rect x="310.6" y="338.4" class="st0" width="34.1" height="0.3"/>
<rect x="396.6" y="334.3" class="st0" width="44.5" height="0.3"/>
<rect x="161.9" y="339.3" class="st0" width="11.1" height="0.3"/>
<rect x="114.6" y="339.3" class="st0" width="38.4" height="0.3"/>
<rect x="66.3" y="335.1" class="st0" width="27.7" height="0.3"/>
<path class="st0" d="M216.1,145.9l0.4-13.1l-8.1-2.6c-0.3-4.5-1.1-8.9-2.1-13.2l6.8-5l-4.6-12.3l-8.5,0.7c-2-4-4.3-7.8-7-11.4
	l4.4-7.3l-9-9.6l-7.6,3.9c-3.4-2.9-7-5.5-10.9-7.8l1.2-8.4l-12-5.4l-5.5,6.4c-4.2-1.4-8.6-2.4-13-3l-2-8.2L125.5,49l-2.6,8.1
	c-4.5,0.4-8.9,1.1-13.2,2.2l-5.1-6.8L92.3,57l0.7,8.5c-4,2-7.8,4.4-11.3,7.1l-7.4-4.5l-9.7,9l3.9,7.6c-2.9,3.4-5.5,7-7.8,10.8
	l-8.4-1.3l-5.5,12l6.5,5.5c-1.4,4.2-2.4,8.6-3,13l-8.3,2.1l-0.5,13.1l8.1,2.6c0.3,4.5,1.1,8.9,2.2,13.2l-6.8,5l4.7,12.3l8.5-0.7
	c2,4,4.3,7.8,7,11.4l-4.4,7.3l9,9.6l7.6-3.9c3.4,2.9,7,5.5,10.8,7.8l-1.3,8.4l12,5.5l5.5-6.4c4.2,1.4,8.6,2.4,13,3l2,8.2l13.2,0.5
	l2.6-8.1c4.4-0.4,8.9-1.1,13.2-2.1l5,6.8l12.3-4.6l-0.6-8.5c4-2,7.8-4.4,11.4-7.1l7.3,4.4l9.6-9l-3.9-7.6c2.9-3.4,5.5-7,7.8-10.8
	l8.4,1.3l5.5-12l-6.5-5.5c1.4-4.2,2.4-8.6,3-13L216.1,145.9z M127.3,188.5c-28.8-1-51.3-25.1-50.4-53.9s25.1-51.3,53.9-50.4
	s51.3,25.1,50.4,53.9c0,0,0,0,0,0C180.2,166.9,156.1,189.5,127.3,188.5L127.3,188.5z"/>
<path class="st0" d="M441,102.5l3.3-3.1l-1.3-2.6c1-1.2,1.9-2.4,2.7-3.7l2.9,0.4l1.9-4.1l-2.2-1.9c0.5-1.5,0.8-3,1-4.5l2.9-0.7
	l0.1-4.5l-2.8-0.9c-0.1-1.5-0.4-3.1-0.7-4.6l2.4-1.8l-1.6-4.3l-2.9,0.2c-0.7-1.4-1.5-2.7-2.4-3.9l1.5-2.5l-3.1-3.3l-2.6,1.3
	c-1.2-1-2.4-1.9-3.7-2.7l0.4-2.9l-4.1-1.9l-1.9,2.2c-1.5-0.5-3-0.8-4.5-1l-0.7-2.8l-4.5-0.2l-0.9,2.8c-1.5,0.1-3.1,0.4-4.5,0.7
	l-1.7-2.3l-4.3,1.6l0.2,2.9c-1.4,0.7-2.7,1.5-3.9,2.4l-2.5-1.5l-3.3,3.1l1.3,2.5c-1,1.2-1.9,2.4-2.7,3.7l-2.9-0.4l-1.9,4.1l2.2,1.9
	c-0.5,1.5-0.8,3-1,4.5l-2.9,0.7l-0.1,4.5l2.8,0.9c0.1,1.5,0.4,3.1,0.7,4.6l-2.4,1.7l1.6,4.3l2.9-0.2c0.7,1.4,1.5,2.7,2.4,3.9
	l-1.5,2.5l3.1,3.3l2.6-1.3c1.2,1,2.4,1.9,3.7,2.7l-0.4,2.9l4.1,1.9l1.9-2.2c1.5,0.5,3,0.8,4.5,1l0.7,2.8l4.5,0.2l0.9-2.8
	c1.5-0.1,3.1-0.4,4.5-0.7l1.7,2.4l4.3-1.6l-0.2-2.9c1.4-0.7,2.7-1.5,3.9-2.4L441,102.5z M417.4,83.3c-2.4-2.6-2.3-6.7,0.3-9.1
	c2.6-2.4,6.7-2.3,9.1,0.3c2.4,2.6,2.3,6.7-0.3,9.1c0,0,0,0,0,0C423.9,86.1,419.8,86,417.4,83.3C417.4,83.4,417.4,83.4,417.4,83.3
	L417.4,83.3z"/>
<path class="st0" d="M320,237.4l-10.3-7.1l0,0c-1-3.7-2.4-7.3-4.2-10.8l2.6-10.4l-15-16.1l-10.6,1.9c-3.3-2-6.8-3.6-10.5-4.9l0,0
	l-6.4-10.8l-22-0.8l-7.1,10.3l0,0c-3.7,1-7.3,2.4-10.8,4.1l-10.4-2.6l-16.1,15l1.9,10.5l0,0c-2,3.3-3.6,6.8-4.9,10.5l-10.8,6.4
	l-0.8,22l10.4,7.1c1,3.7,2.4,7.4,4.1,10.8l0,0l-2.7,10.3l15,16.1l10.5-1.9c3.3,2,6.9,3.6,10.6,4.9l0,0l6.4,10.8l22,0.8l7.1-10.3
	c3.7-1,7.4-2.4,10.9-4.2l0,0l10.4,2.6l16.1-15l-1.9-10.5c2-3.3,3.6-6.8,4.9-10.5l0,0l10.8-6.4L320,237.4z M251.6,270.8
	c-13.6-0.5-24.3-11.9-23.8-25.5c0.5-13.6,11.9-24.3,25.5-23.8c13.6,0.5,24.3,11.9,23.8,25.5C276.6,260.6,265.2,271.3,251.6,270.8
	L251.6,270.8z"/>
<path class="st0" d="M343.5,175.1L343.5,175.1l-17.4-0.6c-0.7,0-1.4-0.4-1.7-1l-4.7-7.9c-2.5-0.9-5-2-7.3-3.4l-7.5,1.3
	c-0.7,0.1-1.4-0.1-1.9-0.6l-11.8-12.7c-0.5-0.5-0.7-1.3-0.5-2l1.9-7.4c-1.2-2.4-2.1-4.9-2.9-7.5l-7.5-5.2c-0.6-0.4-0.9-1.1-0.9-1.8
	l0.6-17.3c0-0.7,0.4-1.4,1-1.7l7.9-4.7c0.9-2.5,2-4.9,3.4-7.3l-1.4-7.5c-0.1-0.7,0.1-1.4,0.6-1.9l12.7-11.8c0.5-0.5,1.3-0.7,2-0.5
	l7.4,1.9c2.4-1.2,4.9-2.1,7.5-2.9l5.2-7.5c0.4-0.6,1.1-1,1.8-0.9l17.3,0.6c0.7,0,1.4,0.4,1.7,1l4.7,7.9c2.5,0.9,4.9,2,7.2,3.4
	l7.5-1.4c0.7-0.1,1.4,0.1,1.9,0.6l11.8,12.7c0.5,0.5,0.7,1.3,0.5,2l-1.9,7.4c1.2,2.4,2.1,4.9,2.9,7.4l7.5,5.2
	c0.6,0.4,0.9,1.1,0.9,1.8l-0.6,17.3c0,0.7-0.4,1.4-1,1.7l-7.9,4.7c-0.9,2.5-2,4.9-3.4,7.2l1.4,7.5c0.1,0.7-0.1,1.4-0.6,1.9
	l-12.7,11.8c-0.5,0.5-1.3,0.7-2,0.5l-7.4-1.9c-2.4,1.2-4.9,2.1-7.5,2.9l-5.1,7.5C344.9,174.7,344.3,175,343.5,175.1z M327.5,170.3
	l15,0.5l5-7.2c0.3-0.4,0.7-0.7,1.2-0.8c2.8-0.8,5.5-1.8,8.1-3.1l0,0c0.5-0.2,1-0.3,1.5-0.1l7,1.8l11-10.3l-1.3-7.2
	c-0.1-0.5,0-1,0.3-1.5c1.5-2.5,2.7-5.1,3.6-7.8c0.2-0.5,0.5-0.9,0.9-1.2l7.5-4.5l0.5-15l-7.2-5c-0.4-0.3-0.7-0.6-0.8-1.1v-0.2
	c-0.8-2.8-1.8-5.5-3.1-8.1c-0.2-0.5-0.3-1-0.2-1.5l1.8-7.1l-10.3-11l-7.2,1.3c-0.5,0.1-1,0-1.5-0.3c-2.5-1.5-5.1-2.7-7.9-3.7
	c-0.2-0.1-0.3-0.1-0.4-0.2c-0.3-0.2-0.5-0.4-0.7-0.7L346,69l-15-0.5l-5,7.2c-0.3,0.4-0.7,0.7-1.2,0.9c-2.8,0.8-5.5,1.8-8,3.1
	c-0.5,0.2-1,0.3-1.5,0.2l-7.1-1.8l-11,10.3l1.3,7.2c0.1,0.4,0,0.9-0.2,1.3l-0.1,0.2c-1.5,2.5-2.7,5.1-3.6,7.9
	c-0.2,0.5-0.5,0.9-0.9,1.1l-7.5,4.5l-0.5,15l7.2,5c0.4,0.3,0.7,0.7,0.8,1.2c0.8,2.8,1.8,5.5,3.1,8.1c0.1,0.1,0.1,0.3,0.2,0.4
	c0.1,0.3,0.1,0.7,0,1l-1.8,7.1l10.3,11l7.1-1.3c0.5-0.1,1,0,1.5,0.3c2.5,1.5,5.1,2.7,7.9,3.7c0.5,0.2,0.9,0.5,1.2,0.9L327.5,170.3z
	 M352.2,75.5L352.2,75.5z M336.7,151.3h-1.1c-17.4-0.3-31.3-14.7-31-32.1s14.7-31.3,32.1-31c17.4,0.3,31.3,14.7,31,32.1
	C367.4,137.3,353.7,151,336.7,151.3z M336.7,92.2c-15.2,0.3-27.2,12.8-26.9,27.9c0.3,15.2,12.8,27.2,27.9,26.9
	c15.2-0.3,27.2-12.8,26.9-27.9c-0.3-14.8-12.2-26.7-26.9-26.9H336.7z"/>
<polygon class="st1" points="383.4,50.4 376.3,48.4 374.3,41.3 377.1,38.5 380.1,44.6 386.3,47.6 "/>
<path class="st1" d="M383.9,45.6c1.4-1.2,1.5-3.3,0.3-4.7c-1.2-1.4-3.3-1.5-4.7-0.3c-0.1,0.1-0.2,0.2-0.3,0.3l3.6-5.3l4.8,2.4l1,5
	L383.9,45.6z"/>
<path class="st2" d="M376.6,39l5.3-5.3l7.2,1.9l1.9,7.2l-5.3,5.3l-7.2-1.9L376.6,39z M386.1,43.4c1.3-1.3,1.3-3.4,0-4.7
	c-1.3-1.3-3.4-1.3-4.7,0c-1.3,1.3-1.3,3.4,0,4.7c0,0,0,0,0,0C382.7,44.6,384.8,44.6,386.1,43.4L386.1,43.4z"/>
<polygon class="st1" points="90.2,241.8 94.1,240.7 95.1,236.9 93.6,235.4 92,238.7 88.7,240.3 "/>
<path class="st1" d="M90,239.2c-0.7-0.7-0.8-1.8-0.2-2.5c0.7-0.7,1.8-0.8,2.5-0.2c0.1,0.1,0.1,0.1,0.2,0.2l-1.9-2.9l-2.6,1.3
	l-0.6,2.7L90,239.2z"/>
<path class="st2" d="M93.9,235.7l-2.8-2.8l-3.8,1l-1,3.9l2.8,2.9l3.8-1L93.9,235.7z M88.8,238c-0.7-0.7-0.7-1.8,0-2.5
	c0.7-0.7,1.8-0.7,2.5,0c0.7,0.7,0.7,1.8,0,2.5c0,0,0,0,0,0C90.6,238.7,89.5,238.7,88.8,238z"/>
<path class="st2" d="M76.4,30.7l3.2,3.2c0.8,0.8,2.2,0.8,3,0l0,0c0.8-0.8,0.8-2.2,0-3l-3.2-3.2c-0.8-0.8-2.2-0.8-3,0l0,0
	C75.5,28.5,75.5,29.9,76.4,30.7z"/>
<ellipse transform="matrix(0.9411 -0.3381 0.3381 0.9411 -4.6541 27.1495)" class="st1" cx="75.6" cy="26.9" rx="4.7" ry="4.4"/>
<rect x="70.6" y="26.2" transform="matrix(0.9411 -0.3381 0.3381 0.9411 -4.6528 27.1495)" class="st2" width="10.1" height="1.4"/>
<ellipse id="_Path_" class="st3" cx="250" cy="361.3" rx="193.9" ry="11.3"/>
<path class="st4" d="M86.7,65.7c-1-4.4-0.6-8.1,1.3-11.1s5-5,9.4-6c4.5-1,8.2-0.6,11.2,1.3s5,5,5.9,9.3c0.7,2.7,0.8,5.4,0.2,8.1
	c-0.6,2.2-1.8,4.2-3.5,5.8c-2,1.7-4.5,2.9-7.1,3.4c-2.6,0.7-5.3,0.8-7.9,0.3c-2.3-0.5-4.3-1.8-5.9-3.5
	C88.5,71.1,87.2,68.5,86.7,65.7z M95.1,63.8c0.6,2.7,1.6,4.6,2.8,5.5c2.7,1.8,6.4,1.1,8.2-1.6c0-0.1,0.1-0.1,0.1-0.2
	c0.7-1.4,0.7-3.6,0-6.6c-0.6-2.5-1.5-4.3-2.8-5.2c-1.3-0.9-3-1.2-4.6-0.8c-1.6,0.3-2.9,1.3-3.6,2.7C94.5,59,94.4,61.1,95.1,63.8z"/>
<path class="st4" d="M118.6,62.4c-0.7-2.8-0.2-5.7,1.3-8.1c1.8-2.5,4.5-4.2,7.5-4.8c3.9-0.9,7.1-0.4,9.6,1.4
	c4.4,3.4,5.5,9.5,2.6,14.3c-1.6,2.4-4.1,4-7.6,4.8c-2.7,0.8-5.6,0.5-8.2-0.7C121.2,68,119.2,65.4,118.6,62.4z M126.1,60.7
	c0.2,1.4,0.9,2.7,1.9,3.6c1.6,1.2,3.8,0.9,5-0.7c0.1-0.2,0.2-0.3,0.3-0.5c0.5-1.3,0.6-2.8,0.1-4.2c-0.2-1.4-0.9-2.6-1.9-3.5
	c-0.8-0.7-1.9-0.9-2.9-0.7c-1.1,0.2-1.9,0.9-2.4,1.9C125.7,57.9,125.7,59.3,126.1,60.7L126.1,60.7z"/>
<path class="st4" d="M148.6,73.6l-6.1-27l7-1.6l0.7,2.9c0.5-1.2,1.2-2.2,2.1-3.1c1-0.8,2.2-1.4,3.4-1.7c2.4-0.7,4.9,0,6.7,1.6
	c2,1.8,3.3,4.3,3.8,6.9c0.7,3.3,0.5,5.9-0.6,8c-1.1,2-3.1,3.5-5.3,3.9c-1.1,0.3-2.2,0.3-3.3,0.1c-1.1-0.2-2.1-0.6-2.9-1.2l2.1,9.3
	L148.6,73.6z M152.2,54.8c0.2,1.2,0.8,2.4,1.8,3.2c0.8,0.6,1.8,0.8,2.7,0.6c0.9-0.2,1.6-0.8,1.9-1.6c0.4-1.2,0.5-2.6,0.1-3.8
	c-0.2-1.3-0.8-2.4-1.7-3.3c-0.7-0.6-1.6-0.8-2.5-0.6c-0.9,0.2-1.7,0.8-2.1,1.7C151.8,52.1,151.8,53.5,152.2,54.8z"/>
<path class="st4" d="M169.4,55.4l7.3-2.4c0.4,0.7,1,1.3,1.7,1.6c0.8,0.3,1.6,0.3,2.3,0.1c0.8-0.1,1.6-0.5,2.2-1.2
	c0.3-0.4,0.5-0.9,0.4-1.3c-0.1-0.5-0.6-1-1.1-1.1c-1.1-0.1-2.3-0.1-3.4,0c-1.9,0.2-3.8,0.2-5.7,0c-1.1-0.2-2.2-0.6-3-1.4
	c-0.9-0.7-1.5-1.8-1.8-2.9c-0.3-1.2-0.2-2.5,0.4-3.6c0.6-1.2,1.5-2.1,2.6-2.8c1.6-0.9,3.3-1.5,5.1-1.9c1.7-0.5,3.5-0.7,5.3-0.6
	c1.1,0.1,2.2,0.4,3.1,1c1,0.7,1.9,1.6,2.5,2.6l-6.9,2.3c-0.3-0.5-0.7-0.9-1.2-1.2c-0.7-0.3-1.5-0.3-2.3-0.1
	c-0.7,0.1-1.3,0.4-1.8,0.9c-0.3,0.3-0.4,0.8-0.3,1.2c0.1,0.5,0.5,0.9,1,0.9c1.1,0.1,2.2,0.1,3.4-0.1c1.9-0.3,3.9-0.3,5.8-0.1
	c1.2,0.2,2.4,0.7,3.3,1.5c0.8,0.8,1.4,1.8,1.7,2.8c0.3,1.2,0.2,2.4-0.3,3.5c-0.5,1.3-1.4,2.5-2.6,3.3c-1.8,1.1-3.7,1.9-5.8,2.3
	c-3.6,0.8-6.2,0.9-8,0.2C171.6,58.4,170.2,57.1,169.4,55.4z"/>
<path class="st4" d="M193.9,30.6h8.2v6.3l-1.5,12.7h-5.1l-1.6-12.7L193.9,30.6z M194.3,51.5h7.7v6.8h-7.7V51.5z"/>
<path class="st5" d="M128.7,116.6c-0.1,0-0.1,0-0.2,0c-4.5-1.7-7.2-3.4-8.6-5.5c-1.1,0.2-2.2,0.1-3.2-0.4c-1.2-0.6-2.1-1.5-2.8-2.6
	c-0.7,0.5-1.6,0.7-2.4,0.4c-1.2-0.5-2.3-1.3-3-2.4c-0.4,0.3-1,0.5-1.6,0.4c-3-0.2-7-6.2-7.3-12.5c0-0.3,0.2-0.5,0.5-0.5
	s0.5,0.2,0.5,0.5c0.3,6,4.1,11.3,6.4,11.5c0.3,0,0.7-0.1,0.9-0.3c-1.6-2.9-1.9-6.3-1-9.4c0.9-3,1.6-4.2,2.5-4
	c1.7,0.4,1.5,7,0.6,11.3c-0.1,0.8-0.4,1.5-0.8,2.2c0.6,1,1.5,1.8,2.5,2.2c0.6,0.2,1.2,0.1,1.7-0.4c-0.8-1.9-0.9-4.6,0.1-7.9
	c1.4-4.4,2-4.6,2.3-4.6c0.2,0,0.5,0,0.6,0.2c0.9,1-0.2,7.9-1.3,11.3c-0.1,0.4-0.3,0.8-0.6,1.2c0.5,1.1,1.4,2,2.5,2.5
	c0.7,0.3,1.5,0.5,2.3,0.4c-0.1-0.2-0.2-0.4-0.2-0.6c-0.8-2.1-0.4-4.6,1.2-7.6c1.1-2,1.9-2.9,2.7-2.9l0,0c0.4,0,0.8,0.3,1,0.7
	c0.9,1.6,0.2,6.9-1.5,9.6c-0.4,0.6-1,1.1-1.6,1.4c1.3,1.8,3.9,3.3,8,4.9c0.3,0,0.5,0.3,0.4,0.6S128.9,116.7,128.7,116.6L128.7,116.6
	z M123,100.2c0,0-0.6,0-1.8,2.4c-1.4,2.7-1.8,4.9-1.1,6.8c0.1,0.2,0.2,0.5,0.3,0.7c0.5-0.2,1-0.6,1.3-1.1c1.4-2.1,2.1-6.5,1.6-8.3
	C123.1,100.2,123,100.2,123,100.2z M115.8,95.9c-0.5,1.1-1,2.3-1.3,3.5c-0.8,2.1-0.9,4.4-0.4,6.6l0.1-0.3
	C115.2,102.6,115.8,99.3,115.8,95.9L115.8,95.9z M109.2,92.8c-0.2,0.2-0.7,0.8-1.3,3.2c-0.8,2.7-0.6,5.7,0.7,8.3
	c0.2-0.4,0.4-0.9,0.4-1.4C110.1,97.9,109.8,93.5,109.2,92.8L109.2,92.8z"/>
<path class="st5" d="M166.7,169.1c-1.6,0-3.2-0.4-4.6-1.2c-0.2-0.1-0.3-0.5-0.2-0.7c0.1-0.2,0.4-0.3,0.7-0.2
	c3.6,2.1,8.2,0.6,9.1-0.9c0.1-0.2,0.2-0.4,0.1-0.7c-1.8,0.1-3.6-0.4-5.1-1.5c-2.5-1.6-2.7-2.1-2.7-2.4c0-0.2,0.1-0.4,0.3-0.5
	c1-0.5,5.5,1.6,7.4,2.8c0.2,0.1,0.4,0.3,0.6,0.5c0.7-0.2,1.4-0.6,1.9-1.1c0.3-0.3,0.5-0.7,0.6-1.1h-0.2c-1.6,0.2-3.2-0.5-4.9-2.1
	c-1.2-1.1-1.6-1.8-1.5-2.4c0.1-0.3,0.4-0.6,0.7-0.6c1.4-0.3,4.8,1.1,6.2,2.6c0.3,0.3,0.5,0.7,0.6,1.2c1.3-0.6,2.7-2,4.3-4.3
	c0.2-0.2,0.5-0.2,0.7-0.1c0.2,0.2,0.2,0.4,0.1,0.6c-1.9,2.6-3.5,4.1-5,4.8c-0.1,0.7-0.4,1.4-0.9,2c-0.6,0.7-1.3,1.2-2.2,1.4
	c0.1,0.5,0,1-0.3,1.4C171.8,168,169.4,169.1,166.7,169.1z M165.8,162.1c0.3,0.3,0.8,0.6,1.5,1c1.1,0.7,2.3,1.2,3.6,1.3
	C169.3,163.5,167.6,162.7,165.8,162.1z M169.3,157.9c0.3,0.5,0.7,1,1.2,1.4c1.5,1.4,2.8,2,4.1,1.8h0.3c-0.1-0.3-0.2-0.6-0.4-0.8
	C173.1,158.7,170,157.7,169.3,157.9z"/>
<path class="st5" d="M179.9,167.7l-15.6,2.8l-14.1-77.2l-30.1,5.5l-49,87l5.3,28.7l62.8-11.4l4.3,23.5l30.1-5.5l-4.3-23.5l15.6-2.8
	L179.9,167.7z M101.1,182l26-45.6l7.2,39.5L101.1,182z"/>
<path class="st5" d="M305.4,88.1c-0.5-4.9-1.5-9.6-3.2-14.2c-1.7-4.4-4.1-8.5-7-12.2c-3.5-4.3-7.8-7.8-12.7-10.4
	c-5.3-2.9-12.4-5-21.2-6.1c-18.3-2.4-32.6,0.9-42.8,9.7s-17,25.9-20.2,51c-1.3,9.4-1.6,18.9-1,28.3c0.7,8.7,2.3,15.6,4.8,20.9
	c3.2,7.1,8.3,13.3,14.6,17.8c6.3,4.4,15,7.4,25.9,8.8c19.6,2.6,34.1-1.2,43.6-11.3c9.4-10.1,15.7-27.1,18.8-51.1
	C306.5,109,306.6,98.5,305.4,88.1z"/>
<path class="st4" d="M251.8,171.5c-2.4-0.1-5-0.3-7.6-0.6c-9.1-1.2-16.2-3.5-21.1-6.9c-4.8-3.4-8.6-8-11-13.4v-0.1
	c-1.9-4-3.2-9.8-3.7-17c-0.6-8.7-0.3-17.5,0.9-26.1c3.6-27.7,10.9-39.3,16.5-44.1c6.5-5.6,15.2-8.2,26.7-7.8
	c2.4,0.1,4.9,0.3,7.4,0.6c7.4,1,13.2,2.6,17.4,4.9c3.6,1.8,6.7,4.4,9.3,7.5c2.2,2.8,4,5.9,5.4,9.3c1.3,3.7,2.2,7.6,2.6,11.6
	c1.1,9.5,1,19.2-0.3,28.7c-2.8,21.5-8.1,36.7-15.9,45C272.6,169.2,263.9,172,251.8,171.5L251.8,171.5z"/>
<path class="st5" d="M271.3,88.3l0.1-3.8l-2.3-0.8c-0.1-1.3-0.3-2.6-0.6-3.8l2-1.4l-1.3-3.6l-2.4,0.2c-0.6-1.1-1.2-2.2-2-3.3
	l1.3-2.1l-2.6-2.8l-2.2,1.1c-1-0.8-2-1.6-3.1-2.3l0.4-2.4l-3.5-1.6l-1.6,1.9c-1.2-0.4-2.5-0.7-3.8-0.9l-0.6-2.4l-3.8-0.1l-0.8,2.3
	c-1.3,0.1-2.6,0.3-3.8,0.6l-1.5-2l-3.6,1.3l0.2,2.4c-1.1,0.6-2.2,1.2-3.3,2l-2.1-1.3l-2.8,2.6l1.1,2.2c-0.8,1-1.6,2-2.3,3.1
	l-2.4-0.4l-1.6,3.5l1.9,1.6c-0.4,1.2-0.7,2.5-0.9,3.8l-2.4,0.6l-0.1,3.8l2.3,0.8c0.1,1.3,0.3,2.6,0.6,3.8l-2,1.4l1.3,3.6l2.4-0.2
	c0.6,1.1,1.2,2.2,2,3.3l-1.3,2.1l2.6,2.8l2.2-1.1c1,0.8,2,1.6,3.1,2.3l-0.4,2.4l3.5,1.6l1.6-1.9c1.2,0.4,2.5,0.7,3.8,0.9l0.6,2.4
	l3.8,0.1l0.8-2.3c1.3-0.1,2.6-0.3,3.8-0.6l1.4,2l3.6-1.3l-0.2-2.4c1.1-0.6,2.2-1.2,3.3-2l2.1,1.3l2.8-2.6l-1.1-2.2
	c0.8-1,1.6-2,2.3-3.1l2.4,0.4l1.6-3.5l-1.9-1.6c0.4-1.2,0.7-2.5,0.9-3.8L271.3,88.3z M245.7,100.6c-8.3-0.3-14.7-7.3-14.4-15.5
	s7.3-14.7,15.5-14.4c8.3,0.3,14.7,7.2,14.4,15.5C261,94.4,254.1,100.9,245.7,100.6C245.8,100.6,245.8,100.6,245.7,100.6L245.7,100.6
	z"/>
<path class="st6" d="M287.1,157.9l0.3-2.6l-1.5-0.6c0-0.9-0.1-1.7-0.2-2.6l1.4-0.9l-0.7-2.5h-1.7c-0.3-0.8-0.7-1.6-1.2-2.3l1-1.4
	l-1.6-2l-1.5,0.6c-0.6-0.6-1.3-1.2-2-1.7l0.4-1.6l-2.3-1.2l-1.2,1.2c-0.8-0.3-1.6-0.6-2.5-0.8l-0.3-1.6l-2.5-0.3l-0.6,1.5
	c-0.9,0-1.7,0.1-2.6,0.2l-0.9-1.4l-2.5,0.7v1.7c-0.8,0.3-1.6,0.7-2.3,1.2l-1.4-1l-2,1.6l0.6,1.5c-0.6,0.6-1.2,1.3-1.7,2l-1.6-0.4
	l-1.2,2.3l1.2,1.2c-0.3,0.8-0.6,1.6-0.8,2.5l-1.6,0.3l-0.3,2.6l1.5,0.6c0,0.9,0.1,1.7,0.2,2.6l-1.4,0.9l0.7,2.5h1.7
	c0.3,0.8,0.7,1.6,1.2,2.3l-1,1.4l1.6,2l1.5-0.6c0.6,0.6,1.3,1.2,2,1.7l-0.3,1.7l2.3,1.2l1.2-1.2c0.8,0.3,1.6,0.6,2.5,0.8l0.3,1.6
	l2.5,0.3l0.6-1.5c0.9,0,1.8-0.1,2.6-0.2l0.9,1.4l2.5-0.7v-1.7c0.8-0.3,1.6-0.7,2.3-1.2l1.4,1l2-1.6l-0.6-1.5c0.6-0.6,1.2-1.3,1.7-2
	l1.6,0.4l1.2-2.3l-1.2-1.2c0.3-0.8,0.6-1.6,0.8-2.5L287.1,157.9z M274.3,156.9c-1.2,2.2-3.9,3-6.1,1.8s-3-3.9-1.8-6.1
	c1.2-2.2,3.9-3,6.1-1.8c0,0,0,0,0,0C274.6,152.1,275.4,154.8,274.3,156.9z"/>
<path class="st7" d="M301.3,114.7l-3-2.1l0,0c-0.3-1.1-0.7-2.1-1.2-3.1l0.8-3l-4.3-4.6l-3,0.6c-0.9-0.6-2-1-3-1.4l0,0l-1.9-3.1
	l-6.3-0.2l-2.1,3l0,0c-1.1,0.3-2.1,0.7-3.1,1.2l-3-0.8l-4.6,4.3l0.6,3l0,0c-0.6,0.9-1,2-1.4,3l-3.1,1.9l-0.2,6.3l3,2.1
	c0.3,1.1,0.7,2.1,1.2,3.1l0,0l-0.8,3l4.3,4.6l3-0.6c1,0.6,2,1,3,1.4l0,0l1.9,3.1l6.3,0.2l2.1-3c1.1-0.3,2.1-0.7,3.1-1.2l0,0l3,0.8
	l4.6-4.3l-0.6-3c0.6-0.9,1-2,1.4-3l0,0l3.1-1.9L301.3,114.7z M281.6,124.3c-3.9-0.1-7-3.4-6.9-7.4c0.1-3.9,3.4-7,7.4-6.9
	c3.9,0.1,7,3.4,6.9,7.4C288.8,121.4,285.5,124.4,281.6,124.3L281.6,124.3z"/>
<path class="st8" d="M323,64.2l0.5-1.3l0,0c0.4-0.2,0.7-0.4,1-0.7h1.2l1.4-2l-0.4-1.1c0.2-0.4,0.3-0.7,0.4-1.1l0,0l1-0.9l-0.4-2.3
	l-1.3-0.5l0,0c-0.2-0.4-0.4-0.7-0.7-1v-1.2l-2-1.4l-1.1,0.4l0,0c-0.4-0.1-0.8-0.2-1.2-0.3l-0.9-1l-2.3,0.4l-0.5,1.3
	c-0.4,0.2-0.7,0.4-1,0.7l0,0h-1.2l-1.4,2l0.4,1.1c-0.1,0.4-0.2,0.8-0.3,1.2l0,0l-1,0.9l0.4,2.3l1.3,0.5c0.2,0.4,0.4,0.7,0.7,1.1l0,0
	v1.2l2,1.4l1.1-0.4c0.4,0.1,0.8,0.2,1.2,0.3l0,0l0.9,1L323,64.2z M318,57.7c-0.3-1.5,0.7-2.9,2.2-3.1c1.5-0.3,2.9,0.7,3.1,2.2
	c0.3,1.5-0.7,2.9-2.2,3.1c0,0,0,0,0,0C319.6,60.1,318.3,59.1,318,57.7z"/>
<path class="st8" d="M295.6,57.5l-0.8-0.6c1.7-2,3.7-3.7,6-5l0.5,0.9C299.1,54,297.2,55.6,295.6,57.5z"/>
<path class="st8" d="M303.6,51.9l-0.4-0.9c3.7-1.6,7.7-2.3,11.7-1.9l-0.1,1C311,49.7,307.1,50.3,303.6,51.9z"/>
<path class="st8" d="M301.7,58.8l-0.8-0.6c2.4-3.2,5.9-5.5,9.9-6.4l0.2,1C307.2,53.6,304,55.7,301.7,58.8z"/>
<path class="st7" d="M235.3,155.1c-0.1,0-0.3-0.1-0.4-0.1l-2.1-2.2c-1.1-0.1-2.1-0.3-3.1-0.6l-3.3,1.4c-0.1,0.1-0.3,0.1-0.5,0
	l-5.5-3.6c-0.1-0.1-0.2-0.3-0.2-0.4l0.1-3.6c-0.7-0.8-1.3-1.7-1.8-2.7l-2.8-1.1c-0.2-0.1-0.3-0.2-0.3-0.4l-1.3-6.4
	c0-0.2,0-0.3,0.1-0.5l2.2-2.1c0.1-1.1,0.3-2.1,0.6-3.1l-1.4-3.3c-0.1-0.1-0.1-0.3,0-0.5l3.6-5.5c0.1-0.1,0.3-0.2,0.4-0.2l3.6,0.1
	c0.8-0.7,1.7-1.3,2.7-1.8l1.1-2.8c0.1-0.2,0.2-0.3,0.4-0.3l6.4-1.3c0.2,0,0.3,0,0.5,0.1l2.1,2.2c1.1,0.1,2.1,0.3,3.1,0.6l3.3-1.4
	c0.1-0.1,0.3-0.1,0.5,0l5.5,3.6c0.1,0.1,0.2,0.3,0.2,0.4l-0.1,3.6c0.7,0.8,1.3,1.7,1.8,2.7l2.8,1.1c0.2,0.1,0.3,0.2,0.3,0.4l1.3,6.4
	c0,0.2,0,0.3-0.1,0.5l-2.2,2.1c-0.1,1.1-0.3,2.1-0.6,3.1l1.4,3.3c0.1,0.1,0.1,0.3,0,0.5l-3.6,5.4c-0.1,0.1-0.3,0.2-0.4,0.2l-3.6-0.1
	c-0.8,0.7-1.7,1.3-2.7,1.8l-1.1,2.8c-0.1,0.2-0.2,0.3-0.4,0.3l-6.4,1.3L235.3,155.1z M229.7,151.1h0.1c1.1,0.3,2.2,0.5,3.3,0.6
	c0.1,0,0.2,0.1,0.3,0.1l2,2.1l5.9-1.2l1.1-2.7c0-0.1,0.1-0.2,0.2-0.3c1-0.5,1.9-1.1,2.8-1.9c0.1-0.1,0.2-0.1,0.3-0.1l3.5,0.1l3.3-5
	l-1.4-3.2c0-0.1,0-0.2,0-0.3c0.3-1.1,0.5-2.2,0.6-3.3c0-0.1,0.1-0.2,0.1-0.3l2.1-2l-1.2-5.9l-2.7-1.1c-0.1,0-0.2-0.1-0.3-0.2
	c-0.5-1-1.1-1.9-1.9-2.8c-0.1-0.1-0.1-0.2-0.1-0.3l0.1-3.5l-5-3.3l-3.2,1.4c-0.1,0-0.2,0-0.3,0c-1.1-0.3-2.2-0.5-3.3-0.6
	c-0.1,0-0.2-0.1-0.3-0.1l-2-2.1l-5.9,1.2l-1.1,2.8c0,0.1-0.1,0.2-0.2,0.3c-1,0.5-1.9,1.1-2.8,1.9c-0.1,0.1-0.2,0.1-0.3,0.1l-3.5-0.1
	l-3.3,5l1.4,3.2c0.1,0.1,0.1,0.3,0,0.4c-0.3,1.1-0.5,2.1-0.6,3.2c0,0.1-0.1,0.2-0.1,0.3l-2.1,2l1.2,5.9l2.7,1.1
	c0.1,0,0.2,0.1,0.3,0.3c0.5,1,1.1,1.9,1.8,2.8c0.1,0.1,0.1,0.2,0.1,0.3l-0.1,3.5l5,3.3l3.2-1.4C229.5,151.1,229.6,151.1,229.7,151.1
	z M234.6,147.8c-7.4,0-13.3-6-13.3-13.3c0-2.6,0.8-5.2,2.2-7.3l0,0c4.1-6.1,12.3-7.8,18.5-3.8s7.8,12.3,3.8,18.5
	C243.3,145.6,239.1,147.8,234.6,147.8L234.6,147.8z M224.4,127.7c-3.8,5.7-2.2,13.3,3.5,17.1s13.3,2.2,17.1-3.5
	c3.8-5.7,2.2-13.3-3.5-17.1c-5.6-3.8-13.2-2.3-17,3.3C224.4,127.6,224.4,127.6,224.4,127.7z"/>
<path class="st5" d="M425.8,176.7l-15.7-2.1l10.4-77.8l-30.3-4.1l-73.5,67.6l-3.9,28.9l63.3,8.5l-3.2,23.7l30.3,4.1l3.2-23.7
	l15.7,2.1L425.8,176.7z M346.4,166l38.8-35.3l-5.3,39.8L346.4,166z"/>
<path class="st5" d="M394.1,224.8H394c-0.3-0.1-0.4-0.3-0.4-0.6L417,96.3c0.1-0.3,0.3-0.4,0.6-0.4c0.3,0.1,0.4,0.3,0.4,0.6
	l-23.3,127.9C394.6,224.6,394.4,224.8,394.1,224.8z"/>
<ellipse transform="matrix(3.420177e-02 -0.9994 0.9994 3.420177e-02 301.5114 508.7797)" class="st5" cx="414" cy="98.4" rx="0.8" ry="0.8"/>
<ellipse transform="matrix(3.420177e-02 -0.9994 0.9994 3.420177e-02 281.0019 522.1556)" class="st5" cx="410.7" cy="115.7" rx="0.8" ry="0.8"/>
<ellipse transform="matrix(3.420177e-02 -0.9994 0.9994 3.420177e-02 260.4923 535.5317)" class="st5" cx="407.3" cy="133" rx="0.8" ry="0.8"/>
<ellipse transform="matrix(3.420177e-02 -0.9994 0.9994 3.420177e-02 236.1599 546.3767)" class="st5" cx="400.8" cy="151" rx="0.8" ry="0.8"/>
<ellipse transform="matrix(3.437623e-02 -0.9994 0.9994 3.437623e-02 219.4195 562.3303)" class="st5" cx="400.7" cy="167.6" rx="0.8" ry="0.8"/>
<ellipse transform="matrix(3.437623e-02 -0.9994 0.9994 3.437623e-02 198.9163 575.7159)" class="st5" cx="397.4" cy="184.9" rx="0.8" ry="0.8"/>
<ellipse transform="matrix(3.437623e-02 -0.9994 0.9994 3.437623e-02 178.4137 589.0814)" class="st5" cx="394.1" cy="202.2" rx="0.8" ry="0.8"/>
<ellipse transform="matrix(3.437623e-02 -0.9994 0.9994 3.437623e-02 157.8908 602.4659)" class="st5" cx="390.7" cy="219.5" rx="0.8" ry="0.8"/>
<path class="st5" d="M400.8,151.5c-0.3,0-0.5-0.2-0.6-0.4c0-0.3,0.2-0.5,0.5-0.6l2.5-0.5c0.3-0.1,0.5,0.1,0.6,0.4
	c0.1,0.3-0.1,0.5-0.4,0.6l-2.5,0.5H400.8z"/>
<path class="st5" d="M409.1,142.3c-1.2,3.1-2.2,6.2-3,9.4c-0.8,3.5-0.8,11.4-0.8,11.4"/>
<path class="st5" d="M405.3,163.6L405.3,163.6c-0.3,0-0.5-0.2-0.5-0.5c0-0.3,0-8,0.8-11.5c0.8-3.2,1.8-6.4,3-9.4
	c0.1-0.2,0.4-0.4,0.7-0.2c0.2,0.1,0.3,0.4,0.3,0.6c-1.2,3-2.2,6.1-3,9.3c-0.7,3.4-0.8,11.3-0.8,11.3
	C405.7,163.3,405.5,163.6,405.3,163.6z"/>
<path class="st4" d="M222.4,249.9c1.4-22.4-1.2-63.1,40.9-57.7c45.1,5.8,32.2,58.6,32.2,58.6L222.4,249.9z"/>
<circle class="st7" cx="251.5" cy="218.1" r="18.4"/>
<path class="st4" d="M253.9,199.7c-8.7-1.5-18,4.9-18.9,11.4l34.5,3.2C268.3,206.9,260.8,200.9,253.9,199.7z"/>
<ellipse transform="matrix(5.129021e-02 -0.9987 0.9987 5.129021e-02 29.7997 466.0238)" class="st4" cx="260.2" cy="217.3" rx="8.7" ry="5.4"/>
<path class="st8" d="M251.5,237.4c-10.7,0-19.4-8.7-19.4-19.4c0-10.7,8.7-19.4,19.4-19.4c10.7,0,19.4,8.7,19.4,19.4
	C270.9,228.7,262.2,237.4,251.5,237.4z M251.5,200.7c-9.6,0-17.4,7.8-17.4,17.4c0,9.6,7.8,17.4,17.4,17.4c9.6,0,17.4-7.8,17.4-17.4
	c0,0,0,0,0,0C268.9,208.5,261.1,200.7,251.5,200.7z"/>
<path class="st9" d="M290.5,249.3h-0.1c-0.3-0.1-0.4-0.3-0.4-0.6c0-0.1,3.2-13.7-0.1-27.4c-0.1-0.3,0.1-0.6,0.4-0.6
	c0.3-0.1,0.6,0.1,0.6,0.4c3.4,14,0.1,27.7,0.1,27.9C290.9,249.2,290.7,249.3,290.5,249.3z"/>
<path class="st9" d="M287.7,213.8c-0.2,0-0.4-0.1-0.5-0.3c-1.2-2.7-2.8-5.3-4.7-7.7c-0.2-0.2-0.1-0.5,0.1-0.7
	c0.2-0.1,0.5-0.1,0.6,0.1c2,2.4,3.6,5,4.9,7.9c0.1,0.3,0,0.5-0.2,0.7C287.9,213.8,287.8,213.8,287.7,213.8L287.7,213.8z"/>
<path class="st4" d="M128.7,355h-0.4c-2.8-0.1-4.9-2.4-4.9-5.1c0.1-2.8,2.4-4.9,5.1-4.9h0.1c2.9,0,9.8-3.5,24.4-26.4
	c1.5-2.3,4.6-3,6.9-1.5c0.2,0.1,0.4,0.3,0.6,0.5c11.4,9.8,23.9,18.4,37.1,25.5c2.5,1.3,3.4,4.3,2.2,6.7c-1.3,2.4-4.2,3.4-6.7,2.2
	c-12.3-6.6-24-14.3-34.8-23.1C146.3,347,137.2,355,128.7,355z"/>
<path class="st4" d="M159.7,316.5c-0.1,0-0.3,0-0.4,0c-1.6-0.2-2.8-1.7-2.6-3.4c0.7-5-0.2-23.6-6.5-38.1c-0.6-1.3-0.1-2.9,1.1-3.7
	c13.7-9.3,42.9-10.5,44.1-10.5c1.7-0.1,3,1.2,3.1,2.9c0.1,1.7-1.2,3-2.9,3.1c-0.3,0-25.8,1-38.9,8.2c5.6,14.4,6.9,32.4,5.9,39
	C162.4,315.5,161.1,316.5,159.7,316.5z"/>
<path class="st5" d="M164.7,312.7c-2-4.7-11-4.2-16.3-0.1c-2.8,2.2-6.6,8.6-7,11c-0.4,1.9,0.8,3.8,2.7,4.2c0.4,0.1,0.9,0.1,1.3,0
	c3.4-0.3,8.2-5.3,8.2-5.3c-3.1,3.1,0.9,5.3,7,0.8C163.9,320.8,166.9,317.9,164.7,312.7z"/>
<path class="st4" d="M336.7,251.2h-0.1c-0.3-0.1-0.4-0.4-0.3-0.6c1.3-4.6,2.8-7.5,4.7-9c-0.3-1.1-0.2-2.2,0.1-3.3
	c0.5-1.2,1.3-2.3,2.4-3c-0.6-0.6-0.8-1.5-0.6-2.4c0.4-1.3,1.1-2.4,2.1-3.2c-0.4-0.4-0.6-1-0.6-1.5c0-3,5.5-7.5,11.8-8.4
	c0.3,0,0.5,0.1,0.6,0.4c0,0,0,0,0,0c0,0.3-0.2,0.5-0.4,0.6c-5.9,0.8-10.9,5.1-10.9,7.4c0,0.3,0.1,0.7,0.4,0.9
	c2.7-1.8,6.1-2.5,9.3-1.9c3.1,0.6,4.3,1.2,4.2,2.2c-0.3,1.8-6.8,2.1-11.2,1.6c-0.8-0.1-1.5-0.3-2.3-0.6c-0.9,0.7-1.6,1.6-2,2.7
	c-0.2,0.6,0,1.2,0.5,1.6c1.9-1,4.5-1.4,7.9-0.6c4.5,1,4.7,1.5,4.8,1.9c0.1,0.2,0,0.5-0.2,0.7c-1,1-7.9,0.5-11.4-0.3
	c-0.4-0.1-0.8-0.2-1.2-0.5c-1,0.6-1.8,1.6-2.3,2.7c-0.3,0.7-0.4,1.5-0.2,2.3c0.2-0.1,0.4-0.2,0.5-0.3c2.1-1,4.6-0.8,7.6,0.5
	c2,0.9,3,1.6,3.1,2.4c0,0.4-0.2,0.8-0.6,1c-1.5,1-6.9,0.9-9.6-0.6c-0.6-0.3-1.2-0.9-1.5-1.5c-1.6,1.5-3,4.2-4.2,8.4
	C337.1,251,336.9,251.2,336.7,251.2z M342.1,241.9c0.3,0.5,0.7,0.9,1.2,1.2c2.3,1.2,6.7,1.5,8.4,0.8c0.3-0.1,0.4-0.3,0.4-0.3
	s-0.1-0.6-2.5-1.6c-2.8-1.2-5-1.4-6.8-0.5C342.5,241.6,342.3,241.7,342.1,241.9L342.1,241.9z M345.5,235.3l0.3,0.1
	c3.3,0.7,6.6,1,9.9,0.7c-1.2-0.4-2.4-0.8-3.6-1C349.9,234.5,347.6,234.6,345.5,235.3L345.5,235.3z M346.7,229.7
	c0.5,0.2,0.9,0.3,1.4,0.3c5,0.6,9.4-0.1,10-0.7c-0.2-0.1-0.8-0.6-3.3-1.1C352,227.7,349.2,228.2,346.7,229.7L346.7,229.7z"/>
<path class="st4" d="M206.5,353.3c0.7-0.2,0.4-0.9-0.3-0.9h-13.5c-25.8-2.7-43.8,0.9-32.4,1.8s-0.8,0.7-9.1,3.8s61.6,3.9,68,0
	C225,354.4,197.4,356.2,206.5,353.3z"/>
<polygon class="st5" points="303.5,357.3 185.7,353.4 180.8,239.2 319.9,242.3 "/>
<path class="st4" d="M222.4,355.1c-0.3,0-0.5-0.2-0.5-0.5l-9.4-114.7c0-0.3,0.2-0.5,0.5-0.5c0.3,0,0.5,0.2,0.5,0.5l9.5,114.7
	C223,354.8,222.8,355.1,222.4,355.1C222.5,355.1,222.5,355.1,222.4,355.1L222.4,355.1z"/>
<polygon class="st8" points="303.5,357.3 335.1,352.5 345.1,246.3 319.9,242.3 "/>
<polygon class="st10" points="303.5,357.3 335.1,352.5 345.1,246.3 319.9,242.3 "/>
<path class="st4" d="M195.7,331.4l-2.9-67.9c-0.3-6.8,5-12.5,11.7-12.8c0.3,0,0.5,0,0.8,0l88.1,2c6.8,0.2,12.1,5.8,12,12.5
	c0,0.5-0.1,1-0.1,1.5l-9.8,68.3c-0.9,6.2-6.3,10.7-12.5,10.5l-75.4-2.5C201.2,342.9,196,337.8,195.7,331.4z"/>
<path class="st7" d="M205.3,271.5l13.6,0.4l-0.1,3.5l-8.5-0.3l-0.1,2.6l7.9,0.3l-0.1,3.4l-7.9-0.3l-0.1,3.2l8.8,0.3l-0.1,3.7
	l-13.9-0.4L205.3,271.5z"/>
<path class="st7" d="M221.4,288.5l0.5-16.5l8.5,0.3c1.2,0,2.4,0.2,3.6,0.5c0.8,0.3,1.5,0.8,2,1.6c1.4,2.2,0.8,5-1.4,6.4
	c-0.1,0.1-0.2,0.1-0.3,0.2c-0.6,0.3-1.2,0.5-1.8,0.6c0.5,0.2,0.9,0.4,1.3,0.6c0.3,0.3,0.6,0.6,0.8,0.9c0.3,0.3,0.5,0.6,0.7,1
	l2.3,4.9l-5.7-0.2l-2.6-5.1c-0.2-0.5-0.5-0.9-0.9-1.3c-0.4-0.3-0.8-0.4-1.2-0.4h-0.4l-0.2,6.7L221.4,288.5z M226.8,278.9l2.1,0.1
	c0.5,0,0.9-0.1,1.4-0.2c0.3-0.1,0.6-0.2,0.8-0.5c0.5-0.7,0.5-1.6-0.1-2.2c-0.6-0.4-1.2-0.5-1.9-0.5l-2.2-0.1L226.8,278.9z"/>
<path class="st7" d="M239.3,289l0.5-16.5l8.5,0.3c1.2,0,2.4,0.2,3.6,0.5c0.8,0.3,1.5,0.8,2,1.6c1.4,2.2,0.8,5-1.4,6.4
	c-0.1,0.1-0.2,0.1-0.3,0.2c-0.6,0.3-1.2,0.5-1.8,0.6c0.5,0.2,0.9,0.4,1.3,0.6c0.3,0.3,0.6,0.6,0.8,0.9c0.3,0.3,0.5,0.6,0.7,1
	l2.3,4.9l-5.7-0.2l-2.6-5.1c-0.2-0.5-0.5-0.9-0.9-1.3c-0.4-0.3-0.8-0.4-1.2-0.4h-0.4l-0.2,6.7L239.3,289z M244.7,279.4l2.1,0.1
	c0.5,0,0.9-0.1,1.4-0.2c0.3-0.1,0.6-0.2,0.8-0.5c0.5-0.7,0.5-1.6-0.1-2.2c-0.6-0.4-1.2-0.5-1.9-0.5l-2.2-0.1L244.7,279.4z"/>
<path class="st7" d="M256.3,281.4c-0.3-4.3,3-8,7.2-8.3c0.5,0,1,0,1.5,0c2.3-0.1,4.6,0.8,6.3,2.4c1.5,1.7,2.2,4,2,6.3
	c0,1.6-0.4,3.2-1.1,4.7c-0.7,1.2-1.7,2.2-2.9,2.8c-1.4,0.7-3,1-4.6,0.9c-1.6,0-3.1-0.3-4.6-1c-1.2-0.7-2.2-1.7-2.9-2.9
	C256.5,284.8,256.2,283.1,256.3,281.4z M261.4,281.6c-0.2,1.3,0.1,2.5,0.8,3.6c1.3,1.4,3.5,1.6,5,0.3c0,0,0.1-0.1,0.1-0.1
	c0.7-1.1,1.1-2.5,1-3.8c0.1-1.2-0.2-2.4-0.8-3.4c-0.6-0.7-1.5-1.2-2.5-1.1c-0.9-0.1-1.9,0.3-2.5,1
	C261.7,279,261.3,280.3,261.4,281.6L261.4,281.6z"/>
<path class="st7" d="M275.9,290.3l0.5-16.5l8.5,0.3c1.2,0,2.4,0.2,3.6,0.5c0.8,0.3,1.5,0.8,2,1.6c1.4,2.2,0.8,5-1.4,6.4
	c-0.1,0.1-0.2,0.1-0.3,0.2c-0.6,0.3-1.2,0.5-1.8,0.6c0.5,0.2,0.9,0.4,1.3,0.6c0.3,0.3,0.6,0.6,0.8,0.9c0.3,0.3,0.5,0.6,0.7,1
	l2.3,4.9l-5.7-0.2l-2.6-5.1c-0.2-0.5-0.5-0.9-0.9-1.3c-0.4-0.3-0.8-0.4-1.2-0.4h-0.5l-0.2,6.7L275.9,290.3z M281.3,280.6l2.1,0.1
	c0.5,0,0.9-0.1,1.4-0.2c0.3-0.1,0.6-0.2,0.8-0.5c0.5-0.7,0.5-1.6-0.1-2.2c-0.6-0.4-1.2-0.5-1.9-0.5l-2.2-0.1L281.3,280.6z"/>
<path class="st7" d="M284,318.2c-0.4,0-0.7-0.1-1-0.4l-8.6-9.4l-9.2,8.4c-0.5,0.5-1.4,0.5-1.9-0.1l-8.6-9.4l-9.2,8.4
	c-0.5,0.5-1.4,0.5-1.9-0.1l-8.6-9.4l-9.2,8.4c-0.5,0.5-1.4,0.5-1.9-0.1l-8.6-9.4l-9.2,8.4c-0.5,0.5-1.4,0.5-1.9-0.1
	c-0.5-0.5-0.5-1.4,0.1-1.9l0,0l10.2-9.3c0.5-0.5,1.4-0.5,1.9,0.1l8.6,9.4l9.2-8.4c0.5-0.5,1.4-0.5,1.9,0.1l8.6,9.4l9.2-8.4
	c0.5-0.5,1.4-0.5,1.9,0.1l8.6,9.4l9.2-8.4c0.5-0.5,1.4-0.5,1.9,0.1L285,316c0.5,0.5,0.5,1.4-0.1,1.9
	C284.7,318.1,284.3,318.3,284,318.2L284,318.2z"/>
<polygon class="st5" points="125.8,359.7 119.5,356.7 113.9,329.6 116.9,326.2 "/>
<polygon class="st5" points="125.8,359.7 134.1,354.9 126.9,332.5 116.9,326.2 "/>
<polygon class="st11" points="125.8,359.7 134.1,354.9 126.9,332.5 116.9,326.2 "/>
<path class="st4" d="M262,364.7h-0.7c-2.8-0.1-4.9-2.4-4.9-5.1c0.1-2.8,2.4-4.9,5.1-4.9c7.7,0.3,24-4.5,33.3-13.5
	c0.6-0.6,1.2-1,2-1.2c15.8-4.7,21.7,4.8,21.9,5.2l-8.6,5.1c0,0.1,0.1,0.1,0.1,0.2c-0.1-0.1-2.3-3-9.5-1.2
	C289.2,359.9,271.2,364.7,262,364.7z"/>
<polygon class="st8" points="261.4,371.3 243.2,370.1 241.8,336.6 266.2,337.5 "/>
<polygon class="st8" points="261.4,371.3 265.6,367.1 268.3,346.1 266.2,337.5 "/>
<polygon class="st10" points="261.4,371.3 265.6,367.1 268.3,346.1 266.2,337.5 "/>
<path class="st4" d="M366.9,358.6c-0.7,0-1.3-0.2-1.8-0.6c-10.4-7.9-24.5-21.9-29.8-35.5c-0.1-0.2-0.1-0.4-0.2-0.6
	c-2.6-15.6-5.1-48.5-5.3-49.9c-0.1-1.7,1.1-3.1,2.8-3.2s3.1,1.1,3.2,2.8c0,0.3,2.6,33.6,5.1,49.1c5.4,13.2,20,26.7,27.8,32.6
	c1.3,1,1.6,2.9,0.6,4.2C368.8,358.2,367.9,358.6,366.9,358.6L366.9,358.6z"/>
<path class="st4" d="M380.8,360.1c-2.3,0-5-1-7.8-3.1c-1.3-1-1.6-2.8-0.7-4.2c1-1.3,2.8-1.6,4.2-0.7c2.5,1.8,3.8,2,4.3,2
	c1.7,0,3,1.3,3,3S382.4,360.1,380.8,360.1L380.8,360.1z"/>
<path class="st5" d="M373.8,356.9c3.2-9.5,16.4-7.6,20.9-6.2c3.9,1.1,7.6,2.7,11.1,4.8c2.5,1.6,2.5,4.3-0.8,5.8
	c-4,1.9-14.2,0.2-14.2,0.2c5.2,2.3,0,6-9.2,2.4C378.6,362.7,372.7,360.4,373.8,356.9z"/>
<path class="st4" d="M341.9,276c-1.2,8.1-7.9,14.1-13.4,13.3s-5.7-8-4.5-16.1s3.4-14,8.8-13.2S343,268,341.9,276z"/>
<circle class="st4" cx="209.9" cy="242.9" r="0.8"/>
<circle class="st4" cx="217.4" cy="248.8" r="0.8"/>
<circle class="st4" cx="218.3" cy="345.7" r="0.8"/>
<circle class="st4" cx="225.8" cy="351.6" r="0.8"/>
<path class="st5" d="M82.5,361.5c-2.9-0.1-5.6-1.6-7.3-4c-0.2-0.2-0.1-0.5,0.1-0.7c0.2-0.2,0.5-0.1,0.7,0.1c0,0,0,0,0,0
	c1.9,2.7,6,4.1,7.8,3.3c0.2-0.1,0.3-0.2,0.5-0.3c-1.8-0.8-3.2-2.5-3.5-4.5c-0.2-1.3-0.4-3,0.6-3.2c1.4-0.3,3.3,3.1,4,5.8
	c0.1,0.4,0.2,0.9,0.1,1.3c0.6,0.2,1.2,0.2,1.8,0.1c0.5,0,1-0.3,1.4-0.8c-1.3-1-2.2-2.5-2.3-4.2c-0.4-2.7-0.1-3.2,0.2-3.4
	c0.2-0.2,0.5-0.2,0.7-0.1c1.1,0.5,2.4,4.3,2.6,6.5c0,0.2,0,0.5,0,0.7c0.4,0.2,0.9,0.3,1.3,0.3c0.8,0,1.7-0.2,2.4-0.6
	c-0.1-0.1-0.3-0.2-0.4-0.3c-1-0.9-1.5-2.3-1.3-4.3c0.1-1.6,0.5-2.4,1.1-2.7c0.4-0.2,0.9-0.1,1.2,0.2c1.4,1.5,2,3.6,1.7,5.6
	c-0.1,0.4-0.3,0.8-0.5,1.1c1.8,0.3,4.4-0.2,6.6-0.8c0.3-0.1,0.6,0.1,0.6,0.4c0.1,0.3-0.1,0.6-0.4,0.6c-2.7,0.7-5.6,1.2-7.7,0.6
	c-1,0.8-2.2,1.2-3.5,1.2c-0.6,0-1.1-0.1-1.6-0.3c-0.5,0.7-1.3,1.2-2.1,1.3c-0.8,0.1-1.5,0-2.2-0.2c-0.2,0.4-0.6,0.7-1,0.9
	C83.7,361.4,83.1,361.5,82.5,361.5z M81.7,353.2c-0.1,0.7-0.1,1.3,0.1,2c0.3,1.6,1.3,3,2.8,3.7c0-0.2-0.1-0.5-0.1-0.7
	C83.7,355.4,82.2,353.4,81.7,353.2z M87.2,352.3c0,0.7,0.1,1.4,0.2,2.1c0.1,1.2,0.6,2.4,1.5,3.2C88.7,355.8,88.1,354,87.2,352.3
	L87.2,352.3z M93.5,351.5L93.5,351.5c0,0-0.4,0.2-0.5,1.9s0.2,2.8,0.9,3.5c0.2,0.2,0.4,0.3,0.6,0.4c0.3-0.3,0.5-0.6,0.5-1
	c0.2-1.6-0.3-3.2-1.2-4.4C93.7,351.5,93.5,351.4,93.5,351.5L93.5,351.5z"/>
<polygon class="st5" points="228.9,369 231.6,364.3 228.9,359.6 226,359.6 227.6,364.3 226,369 "/>
<path class="st5" d="M226.2,366.8c-1.4,0.1-2.5-0.9-2.6-2.3c-0.1-1.4,0.9-2.5,2.3-2.6c0.1,0,0.2,0,0.3,0l-4.6-0.9l-1.2,3.7l2.1,3.1
	L226.2,366.8z"/>
<path class="st5" d="M226.6,359.6h-5.4l-2.7,4.7l2.7,4.7h5.4l2.7-4.7L226.6,359.6z M223.8,366.8c-1.4,0-2.5-1.1-2.5-2.4
	s1.1-2.5,2.4-2.5c1.4,0,2.5,1.1,2.5,2.4c0,0,0,0,0,0C226.3,365.7,225.2,366.8,223.8,366.8L223.8,366.8z"/>
<polygon class="st5" points="417.9,359.3 415.9,355.8 417.9,352.3 420,352.3 418.8,355.8 420,359.3 "/>
<path class="st5" d="M419.9,357.6c1,0.1,1.9-0.7,1.9-1.7c0.1-1-0.7-1.9-1.7-1.9c-0.1,0-0.2,0-0.3,0l3.4-0.7l0.9,2.8l-1.5,2.3
	L419.9,357.6z"/>
<path class="st5" d="M419.6,352.3h4l2,3.5l-2,3.5h-4l-2-3.5L419.6,352.3z M421.6,357.6c1,0,1.8-0.8,1.8-1.8c0-1-0.8-1.8-1.8-1.8
	c-1,0-1.8,0.8-1.8,1.8c0,0,0,0,0,0C419.8,356.8,420.6,357.6,421.6,357.6L421.6,357.6L421.6,357.6z"/>
<path class="st5" d="M343,363.9h4.5c1.2,0,2.1-1,2.1-2.1l0,0c0-1.2-1-2.1-2.1-2.1H343c-1.2,0-2.1,1-2.1,2.1l0,0
	C340.8,363,341.8,363.9,343,363.9z"/>
<ellipse transform="matrix(0.4264 -0.9045 0.9045 0.4264 -132.3641 514.8207)" class="st5" cx="339.7" cy="361.8" rx="4.7" ry="4.5"/>
<rect x="334.7" y="361.1" transform="matrix(0.4264 -0.9045 0.9045 0.4264 -132.4094 514.8211)" class="st5" width="10.1" height="1.4"/>
</svg>
