<svg id="Capa_1" data-name="Capa 1" xmlns="http://www.w3.org/2000/svg" viewBox="0 0 512 512"><defs><style>.cls-1{fill:#fff;}</style></defs><path class="cls-1" d="M169.63,256A33.72,33.72,0,0,0,158,190.62H109.51a14.77,14.77,0,1,0,0,29.53H158a4.18,4.18,0,0,1,1,8.24l-32.23,8.05a20.16,20.16,0,0,0,0,39.11l32.23,8.06a4.18,4.18,0,0,1-1,8.23H109.5a14.77,14.77,0,0,0,0,29.54H158A33.72,33.72,0,0,0,169.63,256Z"/><path class="cls-1" d="M264.44,241.23H237V230.69a10.54,10.54,0,0,1,10.53-10.53h42.18a14.77,14.77,0,0,0,0-29.54H247.56a40.12,40.12,0,0,0-40.07,40.07v50.62a40.11,40.11,0,0,0,40.07,40.07h16.88a40.08,40.08,0,0,0,0-80.15Zm0,50.61H247.56A10.54,10.54,0,0,1,237,281.31V270.77h27.41a10.54,10.54,0,0,1,0,21.07Z"/><path class="cls-1" d="M377.19,190.62H360.32a40.12,40.12,0,0,0-40.08,40.07v50.62a40.12,40.12,0,0,0,40.08,40.07h16.87a40.11,40.11,0,0,0,40.07-40.07V230.69A40.1,40.1,0,0,0,377.19,190.62Zm10.54,90.69a10.55,10.55,0,0,1-10.54,10.53H360.32a10.55,10.55,0,0,1-10.54-10.53V230.69a10.55,10.55,0,0,1,10.54-10.53h16.87a10.55,10.55,0,0,1,10.54,10.53Z"/></svg>