<svg id="Capa_1" data-name="Capa 1" xmlns="http://www.w3.org/2000/svg" viewBox="0 0 512 512"><defs><style>.cls-1{fill:#fff;}</style></defs><path class="cls-1" d="M422.13,17.91a14.38,14.38,0,0,0-14.38,14.38V58.13A249.34,249.34,0,0,0,79.7,432.3,14.38,14.38,0,1,0,100,412a219.1,219.1,0,0,1-64.6-156C35.44,134.38,134.38,35.44,256,35.44A218.9,218.9,0,0,1,382.83,75.49H364.59a14.38,14.38,0,1,0,0,28.76h57.54c.46,0,.91,0,1.36-.06h0a11.56,11.56,0,0,0,1.18-.17l.2,0c.38-.07.75-.17,1.12-.27l.24-.06c.36-.11.71-.24,1.06-.37l.27-.1c.34-.14.67-.3,1-.46l.28-.14c.34-.18.67-.38,1-.59l.22-.13a14.37,14.37,0,0,0,4.05-4.06l.14-.21c.2-.33.4-.66.58-1l.14-.28c.16-.33.32-.65.46-1,0-.09.07-.19.1-.28.14-.34.26-.69.37-1.05l.06-.23c.1-.37.2-.75.28-1.13,0-.06,0-.13,0-.19a13.57,13.57,0,0,0,.25-2.57V32.29A14.39,14.39,0,0,0,422.13,17.91Z"/><path class="cls-1" d="M261.66,476.49c-3.7.09-7.49.09-11.2,0a14.38,14.38,0,0,0-.71,28.76c2.07.05,4.17.08,6.25.08s4.28,0,6.39-.08a14.38,14.38,0,1,0-.73-28.76Z"/><path class="cls-1" d="M498.4,197.42c-1-4.08-2.08-8.18-3.27-12.21a14.39,14.39,0,0,0-27.59,8.16c1.06,3.55,2,7.18,2.9,10.79a14.38,14.38,0,0,0,14,11,14.07,14.07,0,0,0,3.38-.41A14.37,14.37,0,0,0,498.4,197.42Z"/><path class="cls-1" d="M150.59,449.79c-3.26-1.78-6.51-3.66-9.67-5.59a14.38,14.38,0,0,0-15,24.52c3.58,2.19,7.26,4.32,11,6.33a14.38,14.38,0,1,0,13.76-25.26Z"/><path class="cls-1" d="M204.34,470.48c-3.61-.87-7.25-1.84-10.8-2.89a14.39,14.39,0,0,0-8.13,27.6c4,1.18,8.13,2.28,12.22,3.26a14.38,14.38,0,0,0,6.71-28Z"/><path class="cls-1" d="M475,136.65c-2-3.67-4.14-7.35-6.34-10.93a14.39,14.39,0,0,0-24.52,15.05c1.95,3.17,3.83,6.42,5.61,9.67A14.39,14.39,0,0,0,475,136.65Z"/><path class="cls-1" d="M336.42,477.29a14.37,14.37,0,0,0-17.86-9.72c-3.57,1.05-7.2,2-10.79,2.88a14.39,14.39,0,1,0,6.71,28c4.07-1,8.18-2.08,12.22-3.27A14.38,14.38,0,0,0,336.42,477.29Z"/><path class="cls-1" d="M487.84,296.94a14.37,14.37,0,0,0-17.34,10.63c-.86,3.61-1.83,7.24-2.88,10.8a14.38,14.38,0,1,0,27.6,8.12c1.18-4,2.28-8.13,3.26-12.22A14.38,14.38,0,0,0,487.84,296.94Z"/><path class="cls-1" d="M469.35,355.57a14.38,14.38,0,0,0-19.51,5.75c-1.78,3.26-3.66,6.52-5.6,9.69a14.39,14.39,0,1,0,24.54,15c2.19-3.58,4.32-7.27,6.32-10.95A14.38,14.38,0,0,0,469.35,355.57Z"/><path class="cls-1" d="M436.25,407.38a14.39,14.39,0,0,0-20.34.52c-2.55,2.69-5.21,5.35-7.9,7.91a14.38,14.38,0,1,0,19.83,20.84c3-2.89,6-5.89,8.93-8.93A14.39,14.39,0,0,0,436.25,407.38Z"/><path class="cls-1" d="M505.25,249.54a14.39,14.39,0,0,0-14.38-14h-.37a14.37,14.37,0,0,0-14,14.75c0,1.89.07,3.81.07,5.72s0,3.66-.07,5.47a14.39,14.39,0,0,0,14,14.73h.36a14.38,14.38,0,0,0,14.37-14c.05-2.05.08-4.12.08-6.17S505.3,251.68,505.25,249.54Z"/><path class="cls-1" d="M390.92,448.9a14.38,14.38,0,0,0-19.78-4.74c-3.16,1.94-6.41,3.82-9.66,5.59A14.38,14.38,0,1,0,375.26,475c3.68-2,7.35-4.13,10.92-6.32A14.37,14.37,0,0,0,390.92,448.9Z"/></svg>