<?xml version="1.0" encoding="utf-8"?>
<!-- Generator: Adobe Illustrator 24.3.0, SVG Export Plug-In . SVG Version: 6.00 Build 0)  -->
<svg version="1.1" id="Слой_1" xmlns="http://www.w3.org/2000/svg" xmlns:xlink="http://www.w3.org/1999/xlink" x="0px" y="0px"
	 viewBox="0 0 2137 1702" style="enable-background:new 0 0 2137 1702;" xml:space="preserve">
<style type="text/css">
	.st0{fill:#e6e6fa;}
</style>
<g transform="translate(0.000000,1702.000000) scale(0.100000,-0.100000)">
	<path class='st0' d="M10578,16497.4c-383.2-241.2-527-544.9-525.1-1109.7c0-131.5,4.7-218.5,14.2-269.6c8.5-41.6,13.2-76.6,12.3-78.5
		c-0.9-0.9-47.3,48.2-103.1,110.7c-134.3,150.4-362.3,370.9-512.8,496.7c-452.2,378.4-886.5,609.3-1325.4,702.9
		c-113.5,24.6-135.3,26.5-357.6,26.5c-261.1,0-347.2-11.4-556.3-71c-730.4-210-1302.7-799.4-1500.5-1544
		c-84.2-315-101.2-732.2-42.6-1019.9c101.2-492.9,458.8-944.2,1068.1-1350c402.1-266.8,819.3-473,1620.6-801.3
		c170.3-70,360.4-149.5,422.9-176c548.7-234.6,1000.9-623.5,1206.2-1035.9c202.5-406.8,143.8-780.5-172.2-1100.3
		c-204.3-207.2-434.2-308.4-698.2-307.5c-248.8,1.9-471.1,93.7-643.3,266.8c-133.4,135.3-193,264-193,417.2
		c0,89.9,15.1,147.6,67.2,246.9c104.1,200.6,289.5,321.7,518.4,336.8c76.6,4.7,216.6-7.6,256.4-22.7c44.5-17-26.5,113.5-105,192
		c-73.8,74.7-180.7,134.3-350,197.7c-170.3,63.4-281,84.2-454.1,84.2c-130.6,0.9-161.8-1.9-226.1-20.8
		c-282.9-81.4-465.5-299.9-560.1-669.8c-56.8-227.1-50.1-425.7,23.7-626.3c62.4-171.2,204.3-355.7,351-457.9l23.7-16.1h-25.5
		c-48.2-0.9-241.2,44.5-370.9,88c-253.5,84.2-442.8,195.8-597.9,350c-215.7,215.7-300.8,435.2-299.9,772
		c0.9,209.1,39.7,372.7,133.4,550.6c85.1,162.7,236.5,334,387.9,438c37.8,25.5,65.3,49.2,60.5,53.9c-3.8,3.8-41.6,16.1-82.3,27.4
		c-94.6,25.5-354.8,35-482.5,18.9c-312.2-40.7-531.7-167.5-649.9-376.5c-16.1-27.4-29.3-50.1-30.3-50.1c-0.9,0-1.9,63.4-2.8,141
		c0,77.6-5.7,172.2-12.3,211c-19.9,119.2-135.3,432.3-318.8,861.9c-143.8,337.7-262.1,570.5-443.7,872.3
		c-392.6,649.9-553.4,1074.7-590.3,1563.8c-36.9,482.5,158,1097.4,488.2,1541.1c30.3,40.7,105,123.9,165.6,185.4l110.7,110.7h-87
		c-263,0-615.9-60.5-882.7-152.3c-130.6-44.5-333-140-430.5-203.4c-131.5-84.2-270.6-246-352.9-409.6
		c-96.5-192.1-158-444.6-172.2-710.5l-5.7-112.6l-53.9,106.9c-193,381.3-579.9,798.5-993.4,1070.9
		c-387.9,255.4-956.5,465.5-1544,569.5l-102.2,18v-21.8c0-72.8,66.2-302.7,136.2-470.2c104.1-252.6,306.5-589.4,469.2-784.3
		c184.5-221.4,481.5-463.6,816.4-665.1c155.2-93.7,386-215.7,511.8-271.5l93.7-40.7l-79.5-7.6c-187.3-17-309.4-36.9-391.7-65.3
		c-254.5-87-485.3-191.1-650.9-295.2c-480.6-301.8-813.6-766.3-914.8-1278.1c-26.5-131.5-36-404.9-19.9-541.1
		c64.3-522.2,334-995.3,747.4-1312.2c416.3-318.8,1001.9-523.2,1638.6-573.3c70-4.7,153.3-16.1,184.5-23.7
		c296.1-76.6,544.9-304.6,604.5-554.4c18-76.6,18-129.6,0-205.3c-47.3-199.6-205.3-369.9-413.4-444.6
		c-59.6-20.8-84.2-24.6-182.6-25.5c-125.8,0-169.3,10.4-279.1,67.2c-179.8,93.7-389.8,317.9-510.9,545.9
		c-21.8,39.7-42.6,72.8-46.4,72.8c-3.8,0-27.4-13.2-53-30.3c-57.7-37.8-120.1-123-146.6-198.7c-43.5-123.9-34.1-358.6,19.9-479.7
		c10.4-22.7,17-42.6,15.1-44.5c-0.9-0.9-37.8,9.5-81.4,25.5c-183.5,65.3-421.9,109.7-630.1,118.3c-110.7,4.7-147.6,2.8-222.3-13.2
		c-211-43.5-424.8-163.7-619.7-346.3l-66.2-62.4l73.8-71c148.5-141.9,361.4-271.5,532.6-322.6c207.2-61.5,579-29.3,910.1,80.4
		c81.4,26.5,105,31.2,100.3,20.8c-74.7-176.9-80.4-415.3-14.2-556.3c15.1-31.2,40.7-71.9,57.7-91.8c32.2-36,105-90.8,121.1-90.8
		c4.7,0,29.3,35,53,77.6c160.8,286.7,399.2,513.7,606.4,581.8c94.6,30.3,230.8,34.1,325.4,8.5c221.4-60.5,394.5-236.5,451.3-459.8
		c59.6-234.6-111.6-521.3-405.9-676.4c-122-64.3-211-88-392.6-104.1c-489.1-42.6-886.5-150.4-1268.7-345.3
		c-236.5-120.1-411.5-248.8-583.7-427.6c-262.1-274.4-436.1-613-506.1-986.7c-28.4-149.5-35-426.7-14.2-572.4
		c39.7-273.4,130.6-510.9,286.7-747.4c174.1-263,404.9-480.6,696.3-654.7c144.7-86.1,281-148.5,490.1-225.2
		c181.6-67.2,253.5-83.3,440.9-98.4l140-11.4l-52-22.7c-108.8-47.3-331.1-160.8-454.1-231.8C1766.4,2348.1,1440,2086,1230,1825.9
		c-205.3-254.5-436.1-686.8-524.1-979.2c-34.1-110.7-61.5-250.7-52-260.2c2.8-2.8,62.4,5.7,133.4,18.9
		c472.1,87,972.5,256.4,1315,445.6c494.8,272.5,968.8,747.4,1192,1193.9l51.1,102.2l6.6-120.1c15.1-312.2,104.1-612.1,246-830.6
		c58.7-91.8,183.5-218.5,269.6-277.2c227.1-151.4,585.6-276.2,956.5-331.1c120.1-17,416.3-36.9,441.8-28.4
		c6.6,1.9-14.2,26.5-45.4,53c-165.6,144.7-352.9,406.8-472.1,662.2c-98.4,210-188.3,505.2-222.3,729.4
		c-19.9,125.8-21.8,378.4-5.7,506.1c57.7,443.7,222.3,852.4,582.8,1452.2c247.9,410.6,416.3,768.2,632,1334.9
		c109.7,287.6,128.7,355.7,139.1,502.4c4.7,71.9,6.6,157,3.8,189.2c-3.8,33.1-3.8,59.6-0.9,59.6c2.8,0,19.9-26.5,36.9-58.7
		c42.6-81.4,155.2-192.1,248.8-247.9c223.3-130.6,616.8-174.1,896.9-99.3c39.7,11.4,72.8,22.7,72.8,26.5s-12.3,13.2-27.4,22.7
		c-97.4,57.7-247.9,197.7-332.1,310.3c-105,141-191.1,343.4-218.5,514.7c-27.4,170.3-9.5,416.3,40.7,572.4
		c122,377.5,491,662.2,1029.3,793.7c59.6,15.1,132.4,29.3,160.8,33.1l52,6.6l-33.1-26.5c-389.8-308.4-501.4-755.9-311.3-1246.9
		c55.8-143.8,112.6-233.7,206.2-326.4c64.3-64.3,98.4-89.9,161.8-121.1c130.6-64.3,177.9-72.8,373.7-71.9
		c158.9,0.9,177.9,2.8,281.9,30.3c131.5,34.1,292.3,98.4,389.8,154.2c110.7,62.4,215.7,180.7,236.5,264.9l5.7,24.6l-59.6-12.3
		c-90.8-19.9-246-17-333,5.7c-177.9,45.4-316,158-400.2,328.3c-60.5,119.2-76.6,202.5-61.5,302.7c53,340.6,428.6,617.8,838.2,617.8
		c245,0,465.5-90.8,659.4-272.5c239.4-224.2,348.2-482.5,319.8-761.6c-44.5-446.5-431.4-924.3-1025.5-1264.9
		c-123-71-250.7-129.6-562.9-257.3c-603.6-246.9-824-343.4-1116.4-490.1C6386,4490,5824.1,3932.7,5686.9,3296
		c-41.6-190.2-52-485.3-25.5-712.4c75.7-646.2,417.2-1217.6,941.3-1578c273.4-188.3,585.6-309.4,927.1-358.6
		c119.2-18,409.6-15.1,525.1,4.7c480.6,81.4,961.2,332.1,1461.7,762.5c117.3,101.2,388.8,369,485.3,480.6
		c41.6,48.2,76.6,86.1,77.6,85.1c1.9-1.9-3.8-36.9-12.3-78.5c-20.8-110.7-19.9-430.5,0.9-575.2c36-241.2,88.9-384.1,195.8-526
		c94.6-124.9,240.3-247.9,374.6-316l47.3-23.7l47.3,25.5c256.4,140,449.4,366.1,518.4,608.3c55.8,195.8,80.4,579.9,49.2,782.4
		c-8.5,53.9-14.2,99.3-12.3,101.2c0.9,0.9,46.4-49.2,101.2-111.6c347.2-395.5,833.5-782.4,1242.2-988.6
		c487.2-245,949.8-305.6,1432.3-186.4c435.2,106.9,843.9,361.4,1130.5,703.9c158.9,189.2,310.3,451.3,390.7,675.5
		c159.9,444.6,179.8,991.5,51.1,1380.3c-128.7,387.9-439,763.5-907.3,1096.5c-398.3,282.9-874.2,527-1655.6,846.7
		c-582.8,239.4-684.9,284.8-852.4,386.9c-212.9,128.7-376.5,258.3-547.8,436.1c-182.6,188.3-299,368-368,564.8
		c-123,350-42.6,681.2,233.7,957.4c137.2,138.1,298,235.6,462.6,279.1c111.6,30.3,294.2,35,410.6,10.4
		c188.3-38.8,355.7-130.6,482.5-264c122-129.6,169.3-232.7,176.9-381.3c3.8-79.5,0.9-99.3-21.8-165.6
		c-65.3-197.7-217.6-353.8-402.1-412.5c-81.4-26.5-269.6-34.1-366.1-15.1l-68.1,13.2l18-46.4c22.7-61.5,83.3-140,142.9-187.3
		c69.1-54.9,235.6-134.3,369.9-177.9c166.5-53.9,281.9-71.9,440.9-66.2c112.6,3.8,141,8.5,215.7,34.1
		c244.1,82.3,392.6,248.8,494.8,555.3c53.9,159.9,70,272.5,64.3,430.5c-5.7,153.3-26.5,241.2-88,368
		c-69.1,145.7-158,258.3-276.2,352.9c-79.5,62.4-76.6,63.4,65.3,35c351.9-71.9,662.2-222.3,859-416.3
		c208.1-207.2,303.7-449.4,303.7-772.9c0-251.7-68.1-474-209.1-680.2c-64.3-93.7-219.5-249.8-308.4-310.3
		c-37.8-24.6-69.1-49.2-69.1-53c0-8.5,76.6-31.2,160.8-47.3c90.8-18,353.8-15.1,463.6,4.7c285.7,50.1,480.6,172.2,598.9,374.6
		l25.5,42.6v-113.5c0-227.1,20.8-316,160.8-676.4c222.3-573.3,368-878.9,601.7-1267.7c438-726.6,610.2-1211.9,609.3-1723.7
		c-0.9-566.7-296.1-1261.1-694.4-1632c-52-48.2-68.1-69.1-56.8-70c411.5-14.2,948.9,108.8,1281,292.3
		c158,87,286.7,200.6,371.8,330.2c155.2,234.6,228,483.4,258.3,886.5l5.7,74.7l35-74.7c175-371.8,578-812.7,1005.7-1098.4
		c299-199.6,749.3-385,1211.9-499.5c168.4-40.7,432.3-93.7,439-87c5.7,6.6-25.5,163.7-50.1,247.9
		c-82.3,281.9-269.6,643.3-489.1,941.3c-81.4,110.7-307.5,337.7-446.5,448.4c-132.4,105-388.8,276.2-553.4,369
		c-106,59.6-300.8,158.9-463.6,234.6l-33.1,16.1h48.2c74.7,0.9,237.5,18.9,312.2,34.1c100.3,19.9,367.1,120.1,529.8,197.7
		c296.1,142.9,528.8,316.9,720.9,540.2c265.8,309.4,417.2,649,455.1,1026.5c62.4,600.7-202.5,1238.4-678.3,1637.6
		c-413.4,346.3-1011.3,568.6-1687.8,628.2c-87,7.6-185.4,20.8-217.6,29.3c-279.1,71.9-527,298-590.3,538.3
		c-69.1,257.3,126.8,569.5,416.3,663.2c97.4,32.2,243.1,36,332.1,9.5c71-20.8,178.8-78.5,248.8-132.4
		c131.5-100.3,298-301.8,386-464.5c18.9-36,36.9-68.1,37.8-70c1.9-1.9,16.1,1.9,31.2,8.5c41.6,17,120.2,98.4,146.6,149.5
		c71.9,141.9,79.5,339.6,20.8,515.6c-12.3,37.8-21.8,69.1-19.9,71c1.9,1.9,57.7-14.2,124.9-36c308.4-98.4,682.1-132.4,863.8-77.6
		c193.9,57.7,369,161.8,553.4,327.3l72.8,65.3l-55.8,55.8c-141.9,144.7-404.9,304.6-575.2,348.2c-221.4,57.7-616.8,13.2-938.5-105
		c-27.4-9.5-50.1-15.1-50.1-12.3c0,3.8,10.4,35,22.7,70c59.6,164.6,53,380.3-15.1,513.7c-23.7,47.3-87,116.4-134.3,146.6
		c-42.6,26.5-44.5,25.5-83.3-50.1c-65.3-125.8-217.6-322.6-321.7-412.5c-207.2-182.6-399.2-241.2-607.4-188.3
		c-267.7,68.1-469.2,310.3-469.2,562c0.9,228,188.3,473,459.8,597.9c98.4,46.4,193,68.1,337.7,79.5
		c581.8,46.4,1113.5,216.6,1520.3,487.2c404.9,269.6,691.6,666,812.7,1122c172.2,647.1,1.9,1276.2-475.9,1767.2
		c-211.9,216.6-456.9,383.2-744.5,505.2c-151.4,64.3-354.8,135.3-434.2,152.3c-54.9,10.4-273.4,33.1-334.9,34.1
		c-5.7,0,88,49.2,207.2,107.9c536.4,265.8,969.7,583.7,1224.2,899.7c125.8,156.1,287.6,419.1,392.6,640.5
		c96.5,201.5,167.5,413.4,189.2,566.7c6.6,41.6,5.7,43.5-15.1,40.7c-237.5-36.9-548.7-113.5-799.4-196.8
		c-562.9-188.3-944.2-417.2-1323.5-795.6c-219.5-219.5-389.8-444.6-498.6-660.3l-52-102.2l-5.7,73.8
		c-11.4,149.5-24.6,261.1-39.7,332.1c-74.7,369.9-243.1,654.7-482.5,814.6c-92.7,62.4-267.7,147.6-405.9,197.7
		c-255.4,92.7-642.4,162.7-906.3,162.7h-92.7l102.2-101.2c316-314.1,543-775.8,643.3-1308.4c23.7-127.7,23.7-464.5,0-610.2
		c-71-432.3-228.9-812.7-577.1-1390.7c-88-145.7-192-328.3-230.8-406.8c-142.9-283.8-374.6-837.3-471.1-1125.8
		c-57.7-170.3-71-250.7-71-430.5l-0.9-118.3l-29.3,54.9c-67.2,124.9-219.5,251.7-369.9,309.4c-128.7,50.1-236.5,68.1-437.1,72.8
		c-157,3.8-192.1,1.9-276.2-15.1c-53.9-11.4-107.9-24.6-121.1-31.2c-23.7-10.4-23.7-10.4,31.2-46.4
		c276.2-180.7,472.1-481.5,527-812.7c19.9-117.3,15.1-350-9.5-463.6c-82.3-377.5-366.1-662.2-827.8-832.5
		c-101.2-37.8-308.4-90.8-383.2-99.3l-56.8-5.7l33.1,25.5c71.9,55.8,197.7,192,244.1,263c97.4,149.5,142.9,297.1,150.4,485.3
		c6.6,152.3-11.4,270.6-63.4,431.4c-85.1,258.3-221.4,432.3-409.6,521.3c-96.5,45.4-175,63.4-304.6,69.1
		c-176.9,7.6-349.1-27.4-562.9-114.5c-202.5-81.4-311.3-166.5-373.7-291.4c-18-36.9-32.2-69.1-30.3-70c1.9-1.9,36,2.8,76.6,10.4
		c154.2,29.3,304.6,11.4,440.9-53c145.7-69.1,277.2-230.8,326.4-400.2c23.7-81.4,16.1-216.6-16.1-297.1
		c-37.8-91.8-82.3-158.9-154.2-232.7c-274.4-281.9-705.8-354.8-1059.6-180.7c-324.5,160.8-559.1,488.2-579,809.8
		c-26.5,435.2,304.6,927.1,878.9,1304.6c196.8,129.6,329.2,192.1,887.4,421c788.1,322.6,1198.7,527,1598.8,792.8
		c223.3,149.5,355.7,255.4,523.2,421c246,243.1,411.5,493.8,499.5,757.8c123.9,374.6,107.9,903.5-41.6,1341.5
		c-272.5,796.6-970.7,1365.2-1793.7,1459.8c-145.7,17-442.8,7.6-563.9-18.9c-467.4-100.3-914.8-342.5-1394.5-755.9
		c-148.5-127.7-370.9-347.2-477.8-472.1c-41.6-47.3-76.6-85.1-78.5-84.2c-1.9,1.9,3.8,48.2,12.3,102.2
		c20.8,139.1,14.2,460.7-14.2,618.7c-26.5,146.6-71.9,279.1-129.6,374.6c-53,87-164.6,211-255.4,283.8
		c-69.1,54.9-198.7,131.5-222.3,131.5C10670.7,16551.3,10625.3,16526.7,10578,16497.4z M8116.4,15558.9
		c150.4-35,311.3-103.1,430.5-183.5c338.7-228,1021.7-948,1906.3-2007.5c121.1-145.7,224.2-265.8,227.1-267.7
		c3.8-1.9,91.8,98.4,194.9,222.3c587.5,705.8,1034,1206.2,1426.7,1596.9c334.9,333,520.3,479.7,717.1,564.8
		c277.2,120.1,628.2,135.3,920.5,40.7c109.7-35,271.5-117.3,366.1-184.5c101.2-71.9,242.2-216.6,309.4-316
		c65.3-95.6,145.7-264,173.1-360.4c28.4-101.2,31.2-285.7,3.8-364.2c-45.4-135.3-146.6-260.2-264-330.2
		c-103.1-60.5-257.3-104.1-373.7-105c-73.8,0-187.3,25.5-250.7,58.7c-121.1,60.5-187.3,150.4-248.8,338.7
		c-24.6,73.8-26.5,92.7-26.5,227.1c-0.9,165.6,10.4,211,80.4,313.1c19.9,30.3,33.1,56.8,30.3,59.6c-3.8,2.8-51.1,5.7-106.9,5.7
		c-418.2,0-689.7-211.9-781.4-610.2c-14.2-58.7-18-111.6-17-236.5c0-172.2,17-278.1,63.4-416.3l22.7-66.2l-90.8,30.3
		c-248.8,82.3-511.8,55.8-776.7-77.6c-211.9-107.9-374.6-264.9-560.1-544c-74.7-111.6-239.4-424.8-258.3-492l-7.6-22.7l27.4,18
		c209.1,138.1,468.3,248.8,699.1,298c83.3,18.9,139.1,21.8,473,28.4c464.5,9.5,673.6,32.2,1083.2,119.2
		c318.8,68.1,480.6,115.4,609.3,180.7c35,18,66.2,31.2,68.1,28.4c8.5-8.5-103.1-130.6-172.2-187.3
		c-203.4-168.4-402.1-273.4-794.7-420.1c-275.3-102.2-448.4-176.9-676.4-289.5c-495.7-245-934.7-535.5-1279.1-847.7
		c-199.6-180.7-391.7-427.6-540.2-695.4c-19.9-36-38.8-64.3-41.6-64.3c-3.8,0-22.7,31.2-43.5,69.1
		c-58.7,109.7-205.3,326.4-296.1,438c-220.4,268.7-585.6,562.9-1038.8,838.2c-361.4,218.5-701,381.3-1140.9,544.9
		c-110.7,41.6-238.4,91.8-282.9,110.7c-204.3,87-436.1,229.9-557.2,341.5c-71,65.3-146.6,154.2-139.1,161.8
		c1.9,1.9,36.9-12.3,77.6-33.1c139.1-69.1,291.4-113.5,642.4-185.4c404.9-82.3,577.1-100.3,1031.2-109.7
		c401.1-7.6,435.2-10.4,623.5-65.3c156.1-45.4,351.9-134.3,492-222.3c46.4-29.3,85.1-52,87-50.1c1.9,1.9-19.9,52-47.3,112.6
		c-149.5,325.4-300.8,550.6-495.7,737c-224.2,215.7-481.5,323.6-772.9,323.6c-130.6,0-244.1-19.9-333-59.6c-38.8-17-41.6-17-36-1.9
		c2.8,8.5,17,52,29.3,96.5c88,301.8,73.8,588.4-38.8,818.3c-93.7,191.1-233.7,306.5-446.5,369.9c-68.1,19.9-108.8,25.5-227.1,29.3
		c-123.9,4.7-144.7,3.8-144.7-8.5c0-7.6,8.5-21.8,18-30.3c29.3-26.5,76.6-132.4,91.8-206.2c30.3-138.1,1.9-323.6-71.9-487.2
		c-54.9-121.1-146.6-200.6-279.1-242.2c-92.7-28.4-252.6-28.4-358.6,1.9c-210,58.7-378.4,205.3-440.9,383.2
		c-62.4,175-33.1,380.3,86.1,613c187.3,364.2,537.4,614.9,954.6,684C7739.8,15591,8008.5,15584.4,8116.4,15558.9z M2990.6,13231.6
		c349.1-71,672.6-259.2,992.4-578c211.9-211.9,347.2-401.1,487.2-681.2c102.2-202.5,158.9-352.9,330.2-862.8
		c276.2-822.1,386.9-1064.3,708.6-1549.6c230.8-348.2,435.2-606.4,712.4-903.5l141.9-152.3l-119.2-122
		c-416.3-427.6-828.7-1007.6-1070.9-1504.2c-124.9-256.4-192.1-429.5-359.5-933.8c-212.9-637.6-319.8-894-478.7-1145.7
		c-343.4-542.1-873.2-932.8-1385-1019.9c-99.3-17-141-18.9-273.4-15.1c-219.5,7.6-350,40.7-544,135.3
		C1786.3,4068,1480.7,4426.6,1388,4771c-29.3,109.7-27.4,288.5,4.7,408.7c42.6,162.7,115.4,294.2,228.9,415.3
		c240.3,253.5,552.5,334,798.5,204.3c152.3-80.4,303.7-267.7,354.8-439c18.9-64.3,19.9-198.7,0.9-259.2
		c-36.9-121.1-149.5-264-281.9-356.7l-64.3-45.4l25.5-19.9c70-54.9,235.6-85.1,380.3-69.1c334.9,38.8,622.5,219.5,744.5,470.2
		c60.5,125.8,74.7,203.4,68.1,377.5c-12.3,302.7-100.3,553.4-250.7,716.2c-33.1,36-81.4,78.5-106.9,94.6
		c-25.5,17-46.4,32.2-46.4,34.1s28.4,0,64.3-2.8c81.4-7.6,279.1,9.5,403,35c433.3,87,735.1,336.8,860.9,712.4
		c53.9,162.7,66.2,248.8,66.2,469.2c0.9,190.2-0.9,210-25.5,305.6c-59.6,238.4-161.8,417.2-338.7,595.1l-91.8,90.8l101.2,103.1
		c193.9,197.7,302.7,409.6,346.3,673.6c21.8,130.6,15.1,388.8-13.2,523.2c-42.6,194.9-113.5,352.9-218.5,483.4
		c-217.6,271.5-584.7,422.9-1022.7,422.9h-135.3l42.6,26.5c128.7,83.3,254.5,269.6,309.4,460.7c40.7,140,53,229.9,53,402.1
		c0.9,155.2-0.9,170.3-24.6,241.2c-86.1,253.5-321.7,453.2-632,534.5c-98.4,25.5-299.9,36-379.4,19.9
		c-53.9-11.4-162.7-57.7-173.1-74.7c-2.8-4.7,18.9-25.5,49.2-44.5c129.6-86.1,248.8-233.7,285.7-351.9
		c60.5-195.8-18.9-422.9-213.8-608.3c-130.6-123.9-239.4-165.6-415.3-158.9c-79.5,3.8-120.1,10.4-173.1,29.3
		c-312.2,109.7-555.3,419.1-597.9,760.6c-37.8,297.1,112.6,632.9,413.4,921.5c213.8,205.3,483.4,337.7,765.4,376.5
		C2647.2,13262.8,2883.7,13253.3,2990.6,13231.6z M18892,13235.4c423.8-83.3,802.3-378.4,1007.6-788.1
		c80.4-160.8,105-272.5,96.5-446.5c-10.4-228.9-104.1-430.5-280-605.5c-94.6-93.7-193-158.9-304.6-200.6
		c-64.3-23.7-98.4-30.3-178.8-34.1c-123.9-5.7-186.4,6.6-285.7,56.8c-196.8,98.4-375.6,368-376.5,567.6c0,182.6,122,369.9,333,510.9
		l35,22.7l-39.7,25.5c-61.5,40.7-123.9,55.8-246,60.5c-180.7,8.5-336.8-27.4-506.1-115.4c-246-126.8-395.5-326.4-427.6-574.3
		c-19.9-148.5,14.2-408.7,76.6-579c63.4-174.1,186.4-340.6,297.1-402.1c27.4-14.2,22.7-15.1-141.9-20.8
		c-299.9-11.4-514.7-68.1-727.5-194.9c-100.3-59.6-260.2-216.6-321.7-316.9c-121.1-195.8-179.8-428.6-179.8-707.7
		c0-356.7,120.2-645.2,372.7-896.9l89.9-89.9l-79.5-76.6c-189.2-183.5-308.4-398.3-361.4-651.8c-17-76.6-20.8-129.6-20.8-257.3
		c-0.9-299,62.4-532.6,200.6-737c203.4-300.8,584.7-475.9,1048.2-481.5c79.5-0.9,144.7-2.8,144.7-2.8c0-0.9-17-12.3-37.8-26.5
		c-58.7-38.8-139.1-123.9-187.3-197.7c-111.6-172.2-173.1-409.6-175-668.9c-0.9-146.6,17-231.8,74.7-341.5
		c111.6-211.9,352.9-379.4,632.9-439c93.7-19.9,264.9-22.7,341.5-5.7c63.4,13.2,159.9,58.7,159.9,73.8c0,5.7-34.1,35-76.6,66.2
		c-123.9,92.7-221.4,219.5-257.3,334c-21.8,71.9-20.8,206.2,1.9,274.4c71,209.1,247.9,402.1,424.8,463.6
		c90.8,31.2,219.5,36,318.8,10.4c232.7-57.7,450.3-241.2,567.6-477.8c62.4-125.8,86.1-218.5,91.8-361.4
		c8.5-189.2-30.3-331.1-142.9-517.5c-235.6-392.6-591.3-644.3-1008.5-712.4c-131.5-21.8-368-13.2-501.4,18
		c-354.8,84.2-657.5,264-969.7,578c-282.9,284.8-478.7,610.2-657.5,1093.6c-22.7,59.6-94.6,272.5-160.8,473
		c-128.7,386.9-180.7,531.7-257.3,714.3c-233.7,559.1-684,1220.4-1193.9,1753l-103.1,106l117.3,121.1
		c261.1,267.7,495.7,562.9,732.3,919.6c160.8,242.2,238.4,374.6,335.9,572.4c116.4,237.5,204.3,465.5,372.7,967.8
		c203.4,604.5,223.3,655.6,336.8,882.7c139.1,278.1,284.8,481.5,488.2,684.9c335.9,335.9,709.5,538.3,1091.8,591.3
		C18563.7,13261.8,18797.4,13253.3,18892,13235.4z M10727.5,6346.1c55.8-102.2,203.4-322.6,280-419.1
		c395.5-494.8,1288.5-1068.1,2165.5-1389.8c228-84.2,280-105,425.7-176c188.3-91.8,354.8-203.4,468.3-313.1
		c49.2-48.2,97.4-100.3,106.9-116.4l17-28.4l-97.4,46.4c-150.4,71-283.8,108.8-646.2,183.5c-392.6,80.4-600.7,102.2-1007.6,105
		c-357.6,3.8-411.5,8.5-596,57.7c-172.2,45.4-393.6,143.8-551.6,246c-80.4,52-81.4,56.8,31.2-171.2
		c214.8-437.1,451.3-708.6,742.7-851.5c263-129.6,538.3-153.3,778.6-66.2c36,13.2,68.1,23.7,71,23.7c2.8,0,0-14.2-7.6-31.2
		c-21.8-52-59.6-213.8-71.9-304.6c-13.2-103.1-6.6-298,14.2-383.2c48.2-201.5,141-358.6,270.6-456c64.3-48.2,183.5-105,263-125.8
		c106.9-27.4,361.4-37.8,361.4-14.2c0,3.8-7.6,14.2-18,22.7c-26.5,23.7-74.7,125.8-91.8,194.9c-23.7,93.7-14.2,272.5,19.9,378.4
		c59.6,186.4,130.6,281.9,250.7,337.7c85.1,39.7,139.1,51.1,246,51.1c120.1,0,211.9-20.8,316.9-71.9
		c130.6-63.4,231.8-158.9,290.4-272.5c29.3-57.7,54.9-174.1,54.9-249.8c0-253.5-175-597-405.9-794.7
		c-136.2-117.3-269.6-194.9-434.2-252.6c-343.4-119.2-702.9-99.3-1018.9,57.7c-182.6,91.8-330.2,212.9-682.1,564.8
		c-406.8,407.8-928.1,993.4-1483.4,1668.8c-56.8,68.1-106,124.9-108.8,123.9c-2.8,0-56.8-62.4-119.2-139.1
		c-680.2-830.6-1442.7-1666-1807-1978.2c-314.1-268.7-568.6-371.8-917.7-372.7c-221.4,0-396.4,40.7-596,140
		c-206.2,102.2-372.7,246.9-495.7,430.5c-289.5,432.3-249.8,842,101.2,1050.1c106,61.5,196.8,88,328.3,92.7
		c134.3,4.7,193.9-5.7,285.7-49.2c87-41.6,153.3-108.8,194.9-197.7c119.2-250.7,120.1-507.1,2.8-682.1l-40.7-60.5l62.4-4.7
		c187.3-12.3,384.1,34.1,523.2,124.9c138.1,89.9,250.7,253.5,300.8,435.2c54.9,202.5,42.6,464.5-32.2,693.5
		c-13.2,37.8-21.8,70-20.8,71c0.9,0.9,37.8-10.4,83.3-25.5c236.5-79.5,510.9-54.9,767.3,70c231.8,112.6,436.1,319.8,627.2,636.7
		c97.4,161.8,228.9,439.9,200.6,422.9c-6.6-4.7-41.6-26.5-77.6-49.2c-94.6-61.5-316.9-165.6-436.1-204.3
		c-220.4-71.9-378.4-92.7-648.1-84.2c-387.9,12.3-867.5-52-1404.9-187.3c-123-31.2-255.4-79.5-333-122c-27.4-14.2-50.1-22.7-50.1-18
		c0,16.1,101.2,127.7,166.5,182.6c196.8,166.5,446.5,295.2,883.6,455.1c469.2,171.2,1027.4,466.4,1441.8,761.6
		c450.3,321.7,707.7,590.3,928.1,969.7c73.8,125.8,80.4,137.2,84.2,137.2C10685.9,6419,10705.7,6385.9,10727.5,6346.1z"/>
</g>
</svg>
