<?xml version="1.0" encoding="utf-8"?>
<!-- Generator: Adobe Illustrator 25.2.1, SVG Export Plug-In . SVG Version: 6.00 Build 0)  -->
<svg version="1.1" id="Слой_1" xmlns="http://www.w3.org/2000/svg" xmlns:xlink="http://www.w3.org/1999/xlink" x="0px" y="0px"
	 viewBox="0 0 2400 852.2" style="enable-background:new 0 0 2400 852.2;" xml:space="preserve">
<style type="text/css">
	.st0{fill:none;stroke:#3473B9;stroke-width:0.75;stroke-linejoin:round;stroke-miterlimit:10;}
	.st1{fill:none;stroke:#3473B9;stroke-width:0.5;stroke-linecap:round;stroke-linejoin:round;stroke-miterlimit:10;}
	.st2{fill:none;stroke:#EA6A8D;stroke-width:0.5;stroke-linecap:round;stroke-linejoin:round;stroke-miterlimit:10;}
	.st3{fill:#FFFFFF;stroke:#3473B9;stroke-width:0.75;stroke-linecap:round;stroke-linejoin:round;stroke-miterlimit:10;}
	.st4{fill:#DCEDFB;stroke:#3473B9;stroke-width:0.75;stroke-linecap:round;stroke-linejoin:round;stroke-miterlimit:10;}
	.st5{fill:#FDC733;}
	.st6{fill:none;stroke:#3473B9;stroke-width:0.75;stroke-linecap:round;stroke-linejoin:round;stroke-miterlimit:10;}
	.st7{fill:#3473B9;stroke:#3473B9;stroke-width:0.75;stroke-linecap:round;stroke-linejoin:round;stroke-miterlimit:10;}
	.st8{fill:#FFFFFF;}
	.st9{fill:#DCEDFB;}
	.st10{fill:#3473B9;}
	.st11{fill:none;stroke:#EA6A8D;stroke-width:0.75;stroke-linecap:round;stroke-linejoin:round;stroke-miterlimit:10;}
	.st12{fill:#FFFFFF;stroke:#3473B9;stroke-width:0.75;stroke-linejoin:round;stroke-miterlimit:10;}
</style>
<line class="st0" x1="2220.2" y1="810.3" x2="531.73" y2="810.3"/>
<g>
	<g>
		<line class="st1" x1="1804.85" y1="400.44" x2="1812.49" y2="408.08"/>
		<line class="st1" x1="1812.49" y1="400.44" x2="1804.85" y2="408.08"/>
	</g>
	<g>
		<line class="st1" x1="2088.63" y1="605.57" x2="2096.26" y2="613.21"/>
		<line class="st1" x1="2096.26" y1="605.57" x2="2088.63" y2="613.21"/>
	</g>
	<circle class="st1" cx="1492.9" cy="510.4" r="5.48"/>
	<polygon class="st1" points="1991.58,422.54 2004.52,424.59 1996.27,434.78 	"/>
	<polygon class="st2" points="1829.17,519.23 1816.23,521.29 1824.48,531.47 	"/>
	<polygon class="st2" points="1519.67,375.51 1506.73,377.56 1514.97,387.75 	"/>
	<path class="st1" d="M1207.05,445.64c4.3,0,4.3,3.22,8.59,3.22s4.3-3.22,8.6-3.22c4.3,0,4.3,3.22,8.6,3.22c4.3,0,4.3-3.22,8.6-3.22
		c4.31,0,4.31,3.22,8.62,3.22c4.31,0,4.31-3.22,8.61-3.22"/>
	<path class="st2" d="M2131.46,759.06c4.3,0,4.3,3.22,8.59,3.22c4.3,0,4.3-3.22,8.6-3.22s4.3,3.22,8.6,3.22c4.3,0,4.3-3.22,8.6-3.22
		c4.31,0,4.31,3.22,8.62,3.22c4.3,0,4.3-3.22,8.61-3.22"/>
	<path class="st1" d="M1384.17,702.43c4.3,0,4.3,3.22,8.59,3.22c4.3,0,4.3-3.22,8.6-3.22c4.3,0,4.3,3.22,8.6,3.22
		c4.3,0,4.3-3.22,8.6-3.22c4.31,0,4.31,3.22,8.62,3.22c4.31,0,4.31-3.22,8.61-3.22"/>
	<g>
		<path class="st2" d="M1421.38,604.26l-2.03-1.3c-4.81-3.1-4.82-5.37-4.82-6.22c-0.01-2.05,1.65-3.71,3.7-3.71
			c1.29,0,2.43,0.66,3.1,1.66c0.66-1,1.8-1.66,3.09-1.66c2.05,0,3.72,1.66,3.73,3.71c0,0.85,0.01,3.12-4.77,6.22L1421.38,604.26z"/>
	</g>
</g>
<g>
	<g>
		<line class="st1" x1="2165.96" y1="265.73" x2="2173.6" y2="258.09"/>
		<line class="st1" x1="2165.96" y1="258.09" x2="2173.6" y2="265.73"/>
	</g>
	<g>
		<line class="st1" x1="2371.09" y1="-18.05" x2="2378.73" y2="-25.69"/>
		<line class="st1" x1="2371.09" y1="-25.69" x2="2378.73" y2="-18.05"/>
	</g>
	<circle class="st1" cx="2275.92" cy="577.68" r="5.48"/>
	<polygon class="st1" points="2188.06,79 2190.11,66.06 2200.3,74.3 	"/>
	<polygon class="st2" points="2284.75,241.4 2286.81,254.34 2296.99,246.1 	"/>
	<polygon class="st2" points="2141.03,550.91 2143.08,563.84 2153.27,555.6 	"/>
	<path class="st1" d="M2211.16,863.52c0-4.3,3.22-4.3,3.22-8.59s-3.22-4.3-3.22-8.6c0-4.3,3.22-4.3,3.22-8.6
		c0-4.3-3.22-4.3-3.22-8.6c0-4.31,3.22-4.31,3.22-8.62c0-4.31-3.22-4.31-3.22-8.61"/>
	<path class="st2" d="M2524.58-60.89c0-4.3,3.22-4.3,3.22-8.59c0-4.3-3.22-4.3-3.22-8.6s3.22-4.3,3.22-8.6c0-4.3-3.22-4.3-3.22-8.6
		c0-4.31,3.22-4.31,3.22-8.62c0-4.3-3.22-4.3-3.22-8.61"/>
	<path class="st1" d="M2467.95,686.41c0-4.3,3.22-4.3,3.22-8.59c0-4.3-3.22-4.3-3.22-8.6c0-4.3,3.22-4.3,3.22-8.6
		c0-4.3-3.22-4.3-3.22-8.6c0-4.31,3.22-4.31,3.22-8.62c0-4.31-3.22-4.31-3.22-8.61"/>
	<g>
		<path class="st2" d="M2369.78,649.2l-1.3,2.03c-3.1,4.81-5.37,4.82-6.22,4.82c-2.05,0.01-3.71-1.65-3.71-3.7
			c0-1.29,0.66-2.43,1.66-3.1c-1-0.66-1.66-1.8-1.66-3.09c0-2.05,1.66-3.72,3.71-3.73c0.85,0,3.12-0.01,6.22,4.77L2369.78,649.2z"/>
	</g>
</g>
<g>
	<g>
		<polygon class="st3" points="1517.82,831 1493.91,831 1573.15,487.69 1597.06,487.69 		"/>
		<polygon class="st4" points="1529.87,831 1505.96,831 1585.19,487.69 1609.11,487.69 		"/>
		<polygon class="st3" points="1696.89,831 1720.81,831 1641.57,487.69 1617.65,487.69 		"/>
		<polygon class="st4" points="1708.93,831 1732.85,831 1653.61,487.69 1629.7,487.69 		"/>
		<path class="st3" d="M1652.15,486.76c0,4.62-3.74,8.36-8.36,8.36h-86.42c-4.62,0-8.36-3.74-8.36-8.36v-18.82
			c0-4.62,3.74-8.36,8.36-8.36h86.42c4.62,0,8.36,3.74,8.36,8.36V486.76z"/>
		<path class="st4" d="M1669.23,486.76c0,4.62-3.75,8.36-8.36,8.36h-86.42c-4.62,0-8.36-3.74-8.36-8.36v-18.82
			c0-4.62,3.74-8.36,8.36-8.36h86.42c4.61,0,8.36,3.74,8.36,8.36V486.76z"/>
	</g>
	<g>
		<path class="st3" d="M1904.53,337.08c1.94-9,11.05-16.36,20.24-16.36h120.75c9.2,0,15.14,7.36,13.2,16.36l-51.12,237.21
			c-1.94,8.99-11.05,16.35-20.24,16.35h-120.75c-9.2,0-15.14-7.36-13.21-16.35L1904.53,337.08z"/>
		<path class="st4" d="M1875.4,337.08c1.94-9,11.05-16.36,20.25-16.36h120.75c9.2,0,15.14,7.36,13.2,16.36l-51.12,237.21
			c-1.94,8.99-11.05,16.35-20.25,16.35h-120.75c-9.2,0-15.14-7.36-13.2-16.35L1875.4,337.08z"/>
		<rect x="1903.74" y="582.17" class="st3" width="15.69" height="211.44"/>
		<polygon class="st4" points="1926.55,785.26 1896.62,785.26 1840.86,818.47 1840.86,831 1860.94,831 1860.94,825.26 
			1896.62,804.01 1926.55,804.01 1962.23,825.25 1962.23,831 1982.31,831 1982.31,818.47 		"/>
		<rect x="1810.85" y="582.17" class="st4" width="178.93" height="28.18"/>
	</g>
	<g>
		<g>
			<path class="st3" d="M1758,434.13c0,0-33.92-9.28-34.96-9.28c-1.05,0-5.93,2.21-8.37,3.95c-2.44,1.75-14.75,17.66-15.33,23.58
				H1758V434.13z"/>
			<path class="st4" d="M1882.39,310.53c0,0-12.21,8.27-29.35,55.95c-4.76,13.23-15.66,52.33-15.66,52.33l-81.76,14.64v18.93
				c0,0,116.78,0,119.22,0c2.44,0,6.62-2.91,7.15-6.04c0.52-3.14,16.55-95.96,16.89-104.79
				C1899.35,329.72,1885.9,315.09,1882.39,310.53z"/>
		</g>
		<g>
			<g id="XMLID_305_">
				<g>
					<path class="st3" d="M1726.09,762.74c0,0-8.73,24.77-11.3,38.14l-30.36-11.73l12.64-35.19L1726.09,762.74z"/>
					<path class="st3" d="M1649.54,804.01c29.3,8.21,65.44,18.35,65.44,18.35s-1.08,5.87-1.8,7.48c-0.73,1.62-3.02,1.08-3.02,1.08
						s-35.16-9.91-64.58-18.22c-20.7-5.89-35.6-12.58-36.43-12.88c-0.77-0.26-1.17-1.27-0.95-1.85c0.26-0.58,2.19-4.23,3.29-5.45
						c0.24-0.25,0.56-0.38,0.93-0.44c0.64-0.1,1.34,0.08,1.34,0.08c0.75,0.26,14.88,5.96,33.32,11.16
						C1647.89,803.52,1648.72,803.79,1649.54,804.01z"/>
					<path class="st5" d="M1698.56,768.97c1.29,0.9,1.55,8.8-5.38,12.33c-0.41-0.64-0.7-1.17-1-1.55c-3.1,3.24-9.09,4.57-9.09,4.57
						c-13.88,4.29-29.61,4.97-31.01,4.94c-1.33-0.04-4.25-4.04-4.25-4.04l-0.07,0.04c-0.41-1.17-0.84-2.06-1.22-2.65l0.04-0.01
						c0,0,0.96-1.33,2.84-1.79c1.85-0.47,13.53,0.24,21.62-0.79c8.08-1,12.8-2.82,14.94-5.54c2.16-2.72,1.22-5.18,1.3-6.44
						c0.09-1.06,1.63-2.66,3.57-2C1692.78,766.76,1697.28,768.04,1698.56,768.97z"/>
					<path class="st6" d="M1690.85,766.04c1.92,0.71,6.42,2,7.71,2.93c1.29,0.9,1.55,8.8-5.38,12.33"/>
					<path class="st6" d="M1646.58,782.61c0,0,0.96-1.33,2.84-1.79c1.85-0.47,13.53,0.24,21.62-0.79c8.08-1,12.8-2.82,14.94-5.54
						c2.16-2.72,1.22-5.18,1.3-6.44c0.09-1.06,1.63-2.66,3.57-2"/>
					<path class="st3" d="M1684.01,782.32c0,0,6.84-4.06,9.18-1.02c1.81,3.32,4.7,9.43,9.98,10.19c6.31,0.86,13.96-2.28,14.95-0.57
						c0.96,1.72,1.23,14.07-3.14,31.43c0,0-39.56-11.1-68.86-19.31c1.28-8.86,1.75-9.22,1.67-15.01l0.04-2.81
						c0,0,1.18,1.22,2.51,1.26C1651.74,786.51,1670.12,786.61,1684.01,782.32z"/>
					<path class="st3" d="M1647.76,785.26c1.3,3.54,2.43,9.7,1.79,18.74c-0.82-0.22-1.65-0.48-2.47-0.69
						c-18.44-5.2-32.57-10.89-33.32-11.16c0,0-0.69-0.18-1.34-0.08c0,0,3.41-5.7,5.05-7.62c1.66-1.93,4.68-2.93,7.12-2.96
						c2.44-0.08,19.61,0.06,20.8,0.02c0.25-0.01,0.67,0.35,1.15,1.11C1646.92,783.21,1647.35,784.1,1647.76,785.26z"/>
					<g>
						<path class="st3" d="M1655.6,790.46c-1.23,0.1-2.3-0.79-2.42-2.02l-0.7-7.83c-0.1-1.22,0.8-2.31,2.02-2.42l0,0
							c1.23-0.11,2.31,0.79,2.41,2.02l0.7,7.83C1657.72,789.27,1656.83,790.34,1655.6,790.46L1655.6,790.46z"/>
						<path class="st3" d="M1665.91,789.99c-1.2,0.23-2.34-0.55-2.59-1.75l-1.45-7.65c-0.23-1.18,0.55-2.34,1.73-2.57l0,0
							c1.2-0.23,2.36,0.56,2.59,1.76l1.46,7.64C1667.89,788.61,1667.1,789.77,1665.91,789.99L1665.91,789.99z"/>
						<path class="st3" d="M1675.67,788.16c-1.16,0.34-2.39-0.31-2.74-1.49l-2.23-7.44c-0.35-1.18,0.31-2.4,1.48-2.74l0,0
							c1.18-0.35,2.39,0.31,2.75,1.48l2.22,7.45C1677.51,786.59,1676.84,787.81,1675.67,788.16L1675.67,788.16z"/>
						<path class="st3" d="M1685.44,786.32c-1.15,0.45-2.44-0.08-2.91-1.22l-3-7.26c-0.47-1.14,0.08-2.44,1.22-2.9l0,0
							c1.13-0.47,2.44,0.07,2.9,1.21l2.99,7.26C1687.13,784.56,1686.57,785.85,1685.44,786.32L1685.44,786.32z"/>
					</g>
				</g>
			</g>
			<path class="st4" d="M1858.56,489.55c0,0-30.74,14.14-103.19,55.03c-11.05,6.24-15.64,21.18-18.89,33.25
				c-3.25,12.08-44.03,181.08-44.03,181.08s22.65,9.06,39.37,11.15l2.79-18.12c0,0,25.09-61.68,33.45-80.15
				c8.36-18.47,29-81.16,29-81.16l145.23-50.21v-50.88H1858.56z"/>
		</g>
		<g>
			<g id="XMLID_306_">
				<g>
					<path class="st3" d="M1782.71,762.74c0,0-8.73,24.77-11.3,38.14l-30.36-11.73l12.64-35.19L1782.71,762.74z"/>
					<path class="st3" d="M1706.16,804.01c29.3,8.21,65.44,18.35,65.44,18.35s-1.08,5.87-1.8,7.48c-0.73,1.62-3.02,1.08-3.02,1.08
						s-35.16-9.91-64.58-18.22c-20.7-5.89-35.6-12.58-36.43-12.88c-0.77-0.26-1.17-1.27-0.95-1.85c0.26-0.58,2.19-4.23,3.29-5.45
						c0.24-0.25,0.56-0.38,0.93-0.44c0.64-0.1,1.34,0.08,1.34,0.08c0.75,0.26,14.88,5.96,33.32,11.16
						C1704.51,803.52,1705.35,803.79,1706.16,804.01z"/>
					<path class="st5" d="M1755.19,768.97c1.29,0.9,1.55,8.8-5.38,12.33c-0.41-0.64-0.7-1.17-1-1.55c-3.1,3.24-9.09,4.57-9.09,4.57
						c-13.88,4.29-29.61,4.97-31.01,4.94c-1.33-0.04-4.25-4.04-4.25-4.04l-0.07,0.04c-0.41-1.17-0.84-2.06-1.22-2.65l0.04-0.01
						c0,0,0.96-1.33,2.84-1.79c1.85-0.47,13.53,0.24,21.62-0.79c8.08-1,12.8-2.82,14.94-5.54c2.16-2.72,1.22-5.18,1.3-6.44
						c0.09-1.06,1.63-2.66,3.57-2C1749.4,766.76,1753.9,768.04,1755.19,768.97z"/>
					<path class="st6" d="M1747.47,766.04c1.92,0.71,6.42,2,7.71,2.93c1.29,0.9,1.55,8.8-5.38,12.33"/>
					<path class="st6" d="M1703.2,782.61c0,0,0.96-1.33,2.84-1.79c1.85-0.47,13.53,0.24,21.62-0.79c8.08-1,12.8-2.82,14.94-5.54
						c2.16-2.72,1.22-5.18,1.3-6.44c0.09-1.06,1.63-2.66,3.57-2"/>
					<path class="st3" d="M1740.63,782.32c0,0,6.85-4.06,9.18-1.02c1.81,3.32,4.7,9.43,9.98,10.19c6.31,0.86,13.96-2.28,14.95-0.57
						c0.96,1.72,1.23,14.07-3.14,31.43c0,0-39.56-11.1-68.86-19.31c1.28-8.86,1.75-9.22,1.67-15.01l0.04-2.81
						c0,0,1.18,1.22,2.51,1.26C1708.36,786.51,1726.74,786.61,1740.63,782.32z"/>
					<path class="st3" d="M1704.38,785.26c1.3,3.54,2.43,9.7,1.79,18.74c-0.82-0.22-1.65-0.48-2.47-0.69
						c-18.44-5.2-32.57-10.89-33.32-11.16c0,0-0.69-0.18-1.34-0.08c0,0,3.41-5.7,5.05-7.62c1.66-1.93,4.68-2.93,7.12-2.96
						c2.44-0.08,19.61,0.06,20.8,0.02c0.25-0.01,0.67,0.35,1.15,1.11C1703.54,783.21,1703.97,784.1,1704.38,785.26z"/>
					<g>
						<path class="st3" d="M1712.22,790.46c-1.23,0.1-2.3-0.79-2.42-2.02l-0.7-7.83c-0.1-1.22,0.8-2.31,2.02-2.42l0,0
							c1.23-0.11,2.31,0.79,2.41,2.02l0.7,7.83C1714.34,789.27,1713.45,790.34,1712.22,790.46L1712.22,790.46z"/>
						<path class="st3" d="M1722.53,789.99c-1.2,0.23-2.35-0.55-2.59-1.75l-1.45-7.65c-0.23-1.18,0.55-2.34,1.73-2.57l0,0
							c1.2-0.23,2.36,0.56,2.59,1.76l1.46,7.64C1724.51,788.61,1723.72,789.77,1722.53,789.99L1722.53,789.99z"/>
						<path class="st3" d="M1732.29,788.16c-1.16,0.34-2.39-0.31-2.74-1.49l-2.23-7.44c-0.35-1.18,0.31-2.4,1.48-2.74l0,0
							c1.18-0.35,2.39,0.31,2.75,1.48l2.22,7.45C1734.13,786.59,1733.46,787.81,1732.29,788.16L1732.29,788.16z"/>
						<path class="st3" d="M1742.06,786.32c-1.15,0.45-2.44-0.08-2.91-1.22l-3-7.26c-0.47-1.14,0.08-2.44,1.22-2.9l0,0
							c1.13-0.47,2.44,0.07,2.9,1.21l2.99,7.26C1743.75,784.56,1743.2,785.85,1742.06,786.32L1742.06,786.32z"/>
					</g>
				</g>
			</g>
			<path class="st3" d="M1891.13,497.53c0,0-32.47,17.15-84.55,50.1c-10.73,6.79-13.63,16.6-16.88,28.68
				c-3.25,12.08-40.62,182.61-40.62,182.61s22.65,9.06,39.37,11.15l2.79-18.12c0,0,25.09-61.68,33.45-80.15
				c8.36-18.47,29-81.16,29-81.16s55.15-2.64,73.25-5.83c59.04-10.41,37.44-87.27,37.44-87.27H1891.13z"/>
		</g>
		<path class="st3" d="M1966.93,294.06c0,0,28.58,16.36,35.41,20.45c6.83,4.09,10.1,13.75,4.5,31.47
			c-5.61,17.72-39.41,122.9-38.39,131.38c1.02,8.48,4.25,22.45,4.25,22.45s-20.7,12.41-83.53,7.49
			c-33.04-2.59-38.62-14.05-38.62-14.05s2.27-108.95,15.13-147.24c5.68-16.91,13.26-32.75,17.86-36.63
			c4.6-3.88,19.49-17.05,19.49-17.05L1966.93,294.06z"/>
		<g>
			<path class="st7" d="M1876.9,181.23c0,0-5.42,12.39-6.22,24.93c-0.79,12.54,6.62,18.7,16.09,18.56v-43.5H1876.9z"/>
			<g>
				<path class="st8" d="M1959.03,244.22c0,0-2.04,19.49-1.25,30.66c0.78,11.16,6.93,21.33,6.93,21.33s-11.8,23.63-46.39,17.19
					c-15.02-2.8-15.18-16.19-12.98-19.33c2.2-3.15,14.24-13.46,14.24-49.84H1959.03z"/>
				<path class="st9" d="M1957.6,268.29c0.05-10.89,1.43-24.07,1.43-24.07h-39.45c0,36.38-12.04,46.69-14.24,49.84
					c-1.05,1.5-1.24,5.36,0.46,9.3C1931.07,299.46,1949.28,278.6,1957.6,268.29z"/>
				<path class="st6" d="M1959.03,244.22c0,0-2.04,19.49-1.25,30.66c0.78,11.16,6.93,21.33,6.93,21.33s-11.8,23.63-46.39,17.19
					c-15.02-2.8-15.18-16.19-12.98-19.33c2.2-3.15,14.24-13.46,14.24-49.84H1959.03z"/>
			</g>
			<path class="st3" d="M1899.05,166.88c-17.39,13.62-19.85,31.25-18.31,49.58c1.54,18.33,1.71,18.91,1.56,28.39
				c-0.15,9.48,10.75,32.65,22.43,33.59c13.34,1.06,42.22-7.8,53.43-29.21c14.17-5.93,24.98-18.64,23.59-49.08
				C1980.08,163.37,1932.68,140.55,1899.05,166.88z"/>
			<path class="st7" d="M1876.9,181.23c0,0,19.38,29.01,72.74,34.99l6.79,16.5c0,0,2.21-1.68,4.38-5.5l5.03-7.53l-0.42,23.64
				l-6.39,5.87l-1.41,18.97c0,0,11.67-13.03,17.39-21.05c5.72-8.02,12.98-24.34,12.98-40.65c0-16.32-7.86-41.67-35.97-50.97
				C1923.91,146.2,1891.95,155.97,1876.9,181.23z"/>
			<g>
				<path class="st8" d="M1962.62,226.84c0,0-0.91-1.63,0.87-3.94c2.34-3.04,6.17-6.58,11.41-6.68c9.21-0.19,7.02,14.55,1.88,22.32
					c-5.15,7.77-14.59,10.81-18.62,10.68C1958.17,249.22,1958.96,238.15,1962.62,226.84z"/>
				<path class="st6" d="M1960.81,227.22c0,0,4.88-10.82,14.1-11c9.21-0.19,7.02,14.55,1.88,22.32
					c-5.15,7.77-14.59,10.81-18.62,10.68"/>
			</g>
			<path class="st10" d="M1924.07,224.17c0.24,2.81-1.36,5.24-3.57,5.43c-2.21,0.19-4.19-1.94-4.42-4.76
				c-0.24-2.81,1.35-5.24,3.57-5.43C1921.85,219.22,1923.83,221.36,1924.07,224.17z"/>
			<path class="st10" d="M1890.85,226.97c0.21,2.48-1.08,4.6-2.87,4.75c-1.8,0.15-3.42-1.72-3.63-4.2
				c-0.21-2.46,1.08-4.59,2.87-4.74C1889.03,222.62,1890.65,224.5,1890.85,226.97z"/>
			<path class="st6" d="M1898.71,247.12c0,0-2.83-1.3-1.8-5.88"/>
			<path class="st11" d="M1898.91,259.65c0,0,8.23,1.91,16.17-3.61"/>
			<path class="st6" d="M1912.46,212.25c0,0,4.04-2.59,14.21-1.2"/>
			<path class="st6" d="M1889.69,213.16c0,0-2.71-1.26-6.11-0.97"/>
			<path class="st7" d="M1882.78,187.9c0,0,3.73,20.58,22.38,29.6c-1.92-11.97-6.26-24.68-6.26-24.68L1882.78,187.9z"/>
		</g>
		<g>
			<polygon class="st3" points="1957.92,276.36 1910.95,310.57 1938.65,333.85 1966.93,294.06 			"/>
			<polygon class="st3" points="1910.95,310.57 1913.11,281.99 1901.68,291.76 1888.32,320.72 			"/>
		</g>
		<path class="st3" d="M1870.19,434.13c0,0-33.92-9.28-34.96-9.28c-1.05,0-5.93,2.21-8.37,3.95c-2.44,1.75-14.75,17.66-15.33,23.58
			h58.66V434.13z"/>
		<g>
			<path class="st8" d="M2006.93,318.8c0,0-32.14,5.13-49.21,47.12l-8.14,52.89l-81.76,14.64v18.93c0,0,116.78,0,119.22,0
				c2.44,0,6.62-2.91,7.15-6.04c0.52-3.14,16.55-95.96,16.9-104.79C2011.54,329.72,2010.44,323.36,2006.93,318.8z"/>
			<path class="st6" d="M1960.26,346.94l-10.68,71.87l-81.76,14.64v18.93c0,0,116.78,0,119.22,0c2.44,0,6.62-2.91,7.15-6.04
				c0.52-3.14,16.55-95.96,16.9-104.79c0.46-11.84-0.64-18.19-4.15-22.75"/>
		</g>
	</g>
	<g>
		<polygon class="st3" points="1838.38,831 1814.46,831 1893.69,487.69 1917.61,487.69 		"/>
		<polygon class="st4" points="1850.42,831 1826.5,831 1905.74,487.69 1929.66,487.69 		"/>
		<polygon class="st3" points="2017.44,831 2041.36,831 1962.12,487.69 1938.2,487.69 		"/>
		<polygon class="st4" points="2029.48,831 2053.4,831 1974.16,487.69 1950.24,487.69 		"/>
		<path class="st3" d="M1972.7,486.76c0,4.62-3.74,8.36-8.36,8.36h-86.42c-4.61,0-8.36-3.74-8.36-8.36v-18.82
			c0-4.62,3.75-8.36,8.36-8.36h86.42c4.62,0,8.36,3.74,8.36,8.36V486.76z"/>
		<path class="st4" d="M1989.77,486.76c0,4.62-3.74,8.36-8.36,8.36h-86.42c-4.62,0-8.36-3.74-8.36-8.36v-18.82
			c0-4.62,3.74-8.36,8.36-8.36h86.42c4.62,0,8.36,3.74,8.36,8.36V486.76z"/>
	</g>
	<g>
		<rect x="1455.86" y="452.38" class="st3" width="635.59" height="19.63"/>
		<rect x="1803.62" y="452.38" class="st4" width="287.83" height="19.63"/>
	</g>
	<g>
		<rect x="1646.69" y="441.55" class="st3" width="167.41" height="10.84"/>
		<polygon class="st4" points="1903.03,452.38 1814.1,452.38 1814.1,441.55 1896.78,448.03 		"/>
	</g>
	<g>
		<path class="st4" d="M1782.77,393.82c0.73,4.13-2.11,7.51-6.31,7.51H1544.4c-4.19,0-8.21-3.38-8.94-7.51L1507.6,235.2
			c-0.73-4.13,2.11-7.51,6.31-7.51h232.07c4.19,0,8.21,3.38,8.94,7.51L1782.77,393.82z"/>
		<path class="st3" d="M1773.72,393.82c0.73,4.13-2.11,7.51-6.31,7.51h-232.07c-4.19,0-8.21-3.38-8.94-7.51l-27.86-158.61
			c-0.73-4.13,2.11-7.51,6.31-7.51h232.07c4.19,0,8.21,3.38,8.94,7.51L1773.72,393.82z"/>
		<path class="st3" d="M1607.1,333.85c0,0-14.2,2.85-17.83,21.07c-5.88,29.54-10.65,75.77-12.32,83.7
			c-1.67,7.93,1.67,13.76,12.86,13.76h52.95c-11.2,0-14.53-5.83-12.86-13.76c1.67-7.93,6.44-54.17,12.32-83.7
			c3.62-18.21,15.35-21.07,15.35-21.07H1607.1z"/>
		<path class="st4" d="M1640.29,452.38c-11.2,0-14.53-5.83-12.86-13.76c1.67-7.93,6.44-54.17,12.32-83.7
			c3.63-18.21,17.83-21.07,17.83-21.07l1.84,10.6c0,0-7.75,0.6-10.86,16.26c-5.06,25.4-9.16,65.16-10.59,71.99
			c-1.43,6.82,2.48,8.85,12.11,8.85c12.86,0,30.73,0,30.73,0l7.86,10.84H1640.29z"/>
		<g>
			<path class="st10" d="M1627.91,309.83l-5.87-3.23c-13.98-7.68-15.51-13.29-16.09-15.4c-1.38-5.08,1.61-9.21,6.69-9.21
				c3.2,0,6.47,1.64,8.79,4.12c0.97-2.48,3.35-4.12,6.54-4.12c5.08,0,10.33,4.12,11.72,9.21c0.58,2.11,2.11,7.72-7.67,15.4
				L1627.91,309.83z"/>
		</g>
	</g>
	<g>
		<polygon class="st3" points="1954.63,452.38 1917.5,452.38 1913.11,399.41 1959.03,399.41 		"/>
		<polygon class="st3" points="1958.08,396.31 1914.06,396.31 1917.26,383.92 1954.87,383.92 		"/>
		<rect x="1909.38" y="392.71" class="st3" width="53.39" height="12.39"/>
		<polygon class="st4" points="1956.66,441.55 1959.18,412.86 1912.96,412.86 1915.48,441.55 		"/>
	</g>
</g>
<g>
	<g>
		<path class="st4" d="M1416.14,561.85c0,61.7-15.14,93.86-33.82,93.86c-18.68,0-33.82-32.16-33.82-93.86
			c0-61.7,15.14-129.59,33.82-129.59C1401,432.25,1416.14,500.14,1416.14,561.85z"/>
		<line class="st1" x1="1382.31" y1="432.25" x2="1382.31" y2="655.7"/>
		<polyline class="st1" points="1352.5,610.58 1382.31,640.4 1412.13,610.59 		"/>
		<polyline class="st1" points="1348.56,554.51 1382.31,588.26 1416.07,554.51 		"/>
		<polyline class="st1" points="1352.32,506.14 1382.31,536.13 1412.3,506.15 		"/>
		<polyline class="st1" points="1361.39,463.06 1382.31,483.99 1403.24,463.07 		"/>
	</g>
	<g>
		<path class="st3" d="M1350.97,574.56c19.05,47.83,17.24,77.42,2.76,83.19c-14.48,5.77-36.15-14.48-55.19-62.31
			c-19.05-47.83-28.27-105.12-13.78-110.89C1299.24,478.78,1331.93,526.73,1350.97,574.56z"/>
		<line class="st1" x1="1284.76" y1="484.54" x2="1353.73" y2="657.75"/>
		<polyline class="st1" points="1316.69,631.98 1349.01,645.88 1362.92,613.58 		"/>
		<polyline class="st1" points="1296.33,589.72 1332.91,605.47 1348.66,568.89 		"/>
		<polyline class="st1" points="1284.31,551.07 1316.82,565.06 1330.81,532.57 		"/>
		<polyline class="st1" points="1278.04,514.88 1300.73,524.65 1310.48,501.97 		"/>
	</g>
	<g>
		<path class="st3" d="M1411.21,587.37c-16.24,40.77-14.7,66.01-2.35,70.92c12.35,4.92,30.82-12.35,47.05-53.12
			c16.24-40.78,24.1-89.62,11.75-94.54C1455.32,505.72,1427.45,546.59,1411.21,587.37z"/>
		<line class="st1" x1="1467.66" y1="510.63" x2="1408.86" y2="658.29"/>
		<polyline class="st1" points="1440.44,636.32 1412.88,648.18 1401.03,620.63 		"/>
		<polyline class="st1" points="1457.8,600.3 1426.61,613.73 1413.18,582.54 		"/>
		<polyline class="st1" points="1468.04,567.35 1440.32,579.27 1428.4,551.57 		"/>
		<polyline class="st1" points="1473.38,536.49 1454.04,544.82 1445.73,525.49 		"/>
	</g>
	<g>
		<polygon class="st3" points="1427.58,786.78 1337.05,786.78 1317.51,644.27 1447.12,644.27 		"/>
		<g>
			<rect x="1321.2" y="719.55" class="st3" width="11.37" height="102.81"/>
			<rect x="1432.06" y="719.55" class="st3" width="11.37" height="102.81"/>
		</g>
		<rect x="1332.57" y="786.78" class="st3" width="99.49" height="10.48"/>
		<rect x="1332.57" y="738.19" class="st3" width="99.49" height="10.48"/>
		<rect x="1376.63" y="719.55" class="st3" width="11.37" height="102.81"/>
	</g>
</g>
<g>
	<path class="st4" d="M2141.03,89.34c0,31.55-25.58,57.13-57.13,57.13c-31.55,0-57.13-25.58-57.13-57.13s25.57-57.13,57.13-57.13
		C2115.45,32.21,2141.03,57.78,2141.03,89.34z"/>
	<path class="st3" d="M2133.17,89.34c0,31.55-25.57,57.13-57.13,57.13c-31.55,0-57.13-25.58-57.13-57.13s25.58-57.13,57.13-57.13
		C2107.59,32.21,2133.17,57.78,2133.17,89.34z"/>
	
		<ellipse transform="matrix(0.2285 -0.9735 0.9735 0.2285 1514.644 2090.0251)" class="st3" cx="2076.04" cy="89.34" rx="47.89" ry="47.89"/>
	<path class="st10" d="M2079.77,89.34c0,2.06-1.67,3.73-3.73,3.73s-3.74-1.67-3.74-3.73s1.67-3.74,3.74-3.74
		S2079.77,87.27,2079.77,89.34z"/>
	<path class="st10" d="M2078.04,87.94c0,1.11-0.89,2-2,2l0,0c-1.11,0-2.01-0.9-2.01-2V54.36c0-1.11,0.9-2,2.01-2l0,0
		c1.11,0,2,0.89,2,2V87.94z"/>
	<path class="st10" d="M2075.31,87.21c0.96,0.55,1.29,1.78,0.73,2.74l0,0c-0.55,0.96-1.78,1.29-2.74,0.73l-18.99-10.97
		c-0.96-0.55-1.28-1.78-0.73-2.73l0,0c0.55-0.96,1.78-1.29,2.73-0.73L2075.31,87.21z"/>
</g>
<g>
	<g>
		<path class="st12" d="M1175.36,225.07c0,10.77-8.74,19.51-19.51,19.51c-10.78,0-19.51-8.74-19.51-19.51
			c0-10.78,8.74-19.51,19.51-19.51C1166.63,205.56,1175.36,214.3,1175.36,225.07z"/>
		<line class="st6" x1="1155.86" y1="251.35" x2="1155.86" y2="258.61"/>
		<line class="st6" x1="1168.99" y1="247.84" x2="1172.63" y2="254.12"/>
		<line class="st6" x1="1178.62" y1="238.21" x2="1184.9" y2="241.84"/>
		<line class="st6" x1="1182.14" y1="225.07" x2="1189.4" y2="225.07"/>
		<line class="st6" x1="1178.62" y1="211.93" x2="1184.9" y2="208.3"/>
		<line class="st6" x1="1168.99" y1="202.31" x2="1172.63" y2="196.02"/>
		<line class="st6" x1="1155.86" y1="198.79" x2="1155.86" y2="191.53"/>
		<line class="st6" x1="1142.71" y1="202.31" x2="1139.08" y2="196.02"/>
		<line class="st6" x1="1133.09" y1="211.93" x2="1126.8" y2="208.3"/>
		<line class="st6" x1="1129.57" y1="225.07" x2="1122.31" y2="225.07"/>
		<line class="st6" x1="1133.09" y1="238.22" x2="1126.8" y2="241.84"/>
		<line class="st6" x1="1142.71" y1="247.84" x2="1139.08" y2="254.12"/>
	</g>
	<line class="st0" x1="1155.86" y1="-58.78" x2="1155.86" y2="212.21"/>
	<path class="st3" d="M1155.86,152.11L1155.86,152.11L1155.86,152.11L1155.86,152.11L1155.86,152.11
		c-25.73,0-44.15,19.89-44.15,49.43c0,17.79,0,25.17,0,25.17h44.15l0,0H1200c0,0,0-7.38,0-25.17
		C1200,171.99,1181.58,152.11,1155.86,152.11z"/>
</g>
<g>
	<g>
		<line class="st1" x1="1771.5" y1="51.02" x2="1779.14" y2="58.66"/>
		<line class="st1" x1="1779.14" y1="51.02" x2="1771.5" y2="58.66"/>
	</g>
	<g>
		<line class="st1" x1="2055.28" y1="256.15" x2="2062.92" y2="263.79"/>
		<line class="st1" x1="2062.92" y1="256.15" x2="2055.28" y2="263.79"/>
	</g>
	<circle class="st1" cx="1459.55" cy="160.98" r="5.48"/>
	<polygon class="st1" points="1958.23,73.12 1971.17,75.17 1962.93,85.36 	"/>
	<polygon class="st2" points="1795.83,169.81 1782.89,171.86 1791.13,182.05 	"/>
	<polygon class="st2" points="1486.32,26.09 1473.38,28.14 1481.63,38.32 	"/>
	<path class="st1" d="M1173.71,96.22c4.3,0,4.3,3.22,8.59,3.22s4.3-3.22,8.6-3.22c4.3,0,4.3,3.22,8.6,3.22c4.3,0,4.3-3.22,8.6-3.22
		c4.31,0,4.31,3.22,8.62,3.22c4.31,0,4.31-3.22,8.61-3.22"/>
	<path class="st2" d="M2098.12,409.64c4.3,0,4.3,3.22,8.59,3.22c4.3,0,4.3-3.22,8.6-3.22s4.3,3.22,8.6,3.22c4.3,0,4.3-3.22,8.6-3.22
		c4.31,0,4.31,3.22,8.62,3.22c4.3,0,4.3-3.22,8.61-3.22"/>
	<path class="st1" d="M1350.82,353.01c4.3,0,4.3,3.22,8.59,3.22c4.3,0,4.3-3.22,8.6-3.22c4.3,0,4.3,3.22,8.6,3.22
		c4.3,0,4.3-3.22,8.6-3.22c4.31,0,4.31,3.22,8.62,3.22c4.31,0,4.31-3.22,8.61-3.22"/>
	<g>
		<path class="st2" d="M1388.03,254.84l-2.03-1.3c-4.81-3.1-4.82-5.37-4.82-6.22c-0.01-2.05,1.65-3.71,3.7-3.71
			c1.29,0,2.43,0.66,3.1,1.66c0.66-1,1.8-1.66,3.09-1.66c2.05,0,3.72,1.66,3.73,3.71c0,0.85,0.01,3.12-4.77,6.22L1388.03,254.84z"/>
	</g>
</g>
<g>
	<g>
		<line class="st1" x1="654.46" y1="80.77" x2="662.1" y2="88.41"/>
		<line class="st1" x1="662.1" y1="80.77" x2="654.46" y2="88.41"/>
	</g>
	<g>
		<line class="st1" x1="938.24" y1="285.9" x2="945.88" y2="293.54"/>
		<line class="st1" x1="945.88" y1="285.9" x2="938.24" y2="293.54"/>
	</g>
	<circle class="st1" cx="342.52" cy="190.73" r="5.48"/>
	<polygon class="st1" points="841.19,102.87 854.14,104.92 845.89,115.11 	"/>
	<polygon class="st2" points="678.79,199.57 665.85,201.62 674.09,211.8 	"/>
	<polygon class="st2" points="369.28,55.84 356.35,57.89 364.59,68.08 	"/>
	<path class="st1" d="M56.67,125.97c4.3,0,4.3,3.22,8.59,3.22s4.3-3.22,8.6-3.22c4.3,0,4.3,3.22,8.6,3.22c4.3,0,4.3-3.22,8.6-3.22
		c4.31,0,4.31,3.22,8.62,3.22c4.31,0,4.31-3.22,8.61-3.22"/>
	<path class="st2" d="M981.08,439.39c4.3,0,4.3,3.22,8.59,3.22c4.3,0,4.3-3.22,8.6-3.22c4.3,0,4.3,3.22,8.6,3.22
		c4.3,0,4.3-3.22,8.6-3.22c4.31,0,4.31,3.22,8.62,3.22c4.3,0,4.3-3.22,8.61-3.22"/>
	<path class="st1" d="M233.78,382.76c4.3,0,4.3,3.22,8.59,3.22c4.3,0,4.3-3.22,8.6-3.22c4.3,0,4.3,3.22,8.6,3.22
		c4.3,0,4.3-3.22,8.6-3.22c4.31,0,4.31,3.22,8.62,3.22c4.31,0,4.31-3.22,8.61-3.22"/>
	<g>
		<path class="st2" d="M270.99,284.6l-2.03-1.3c-4.81-3.1-4.82-5.37-4.82-6.22c-0.01-2.05,1.65-3.71,3.7-3.71
			c1.29,0,2.43,0.66,3.1,1.66c0.66-1,1.8-1.66,3.09-1.66c2.05,0,3.72,1.66,3.73,3.71c0,0.85,0.01,3.12-4.77,6.22L270.99,284.6z"/>
	</g>
</g>
</svg>
